<mxfile host="Electron" modified="2024-06-07T01:45:06.993Z" agent="Mozilla/5.0 (X11; Linux x86_64) AppleWebKit/537.36 (KHTML, like Gecko) draw.io/24.4.13 Chrome/124.0.6367.207 Electron/30.0.6 Safari/537.36" etag="CVYJRn7DSyoSPKHqkLFy" version="24.4.13" type="device">
  <diagram name="페이지-1" id="BYXTRoYtiXxjvSM3ygJW">
    <mxGraphModel dx="1509" dy="836" grid="1" gridSize="10" guides="1" tooltips="1" connect="1" arrows="1" fold="1" page="1" pageScale="1" pageWidth="827" pageHeight="1169" math="0" shadow="0">
      <root>
        <mxCell id="0" />
        <mxCell id="1" parent="0" />
        <mxCell id="XKejNxqJNqAKCkhe8Pqw-106" value="" style="rounded=0;whiteSpace=wrap;html=1;" vertex="1" parent="1">
          <mxGeometry x="330" y="100" width="620" height="490" as="geometry" />
        </mxCell>
        <mxCell id="XKejNxqJNqAKCkhe8Pqw-105" value="" style="rounded=0;whiteSpace=wrap;html=1;" vertex="1" parent="1">
          <mxGeometry x="24" y="100" width="276" height="490" as="geometry" />
        </mxCell>
        <mxCell id="XKejNxqJNqAKCkhe8Pqw-66" value="" style="rounded=1;whiteSpace=wrap;html=1;" vertex="1" parent="1">
          <mxGeometry x="390" y="200" width="380" height="80" as="geometry" />
        </mxCell>
        <mxCell id="XKejNxqJNqAKCkhe8Pqw-37" value="" style="rounded=0;whiteSpace=wrap;html=1;" vertex="1" parent="1">
          <mxGeometry x="400" y="430" width="360" height="90" as="geometry" />
        </mxCell>
        <mxCell id="XKejNxqJNqAKCkhe8Pqw-43" value="" style="rounded=1;whiteSpace=wrap;html=1;" vertex="1" parent="1">
          <mxGeometry x="390" y="340" width="380" height="80" as="geometry" />
        </mxCell>
        <mxCell id="XKejNxqJNqAKCkhe8Pqw-2" value="" style="sketch=0;outlineConnect=0;fontColor=#232F3E;gradientColor=none;fillColor=#232F3D;strokeColor=none;dashed=0;verticalLabelPosition=bottom;verticalAlign=top;align=center;html=1;fontSize=12;fontStyle=0;aspect=fixed;pointerEvents=1;shape=mxgraph.aws4.user;" vertex="1" parent="1">
          <mxGeometry x="100" y="122" width="78" height="78" as="geometry" />
        </mxCell>
        <mxCell id="XKejNxqJNqAKCkhe8Pqw-4" value="&lt;div&gt;&lt;br&gt;&lt;/div&gt;Web" style="html=1;whiteSpace=wrap;strokeColor=none;fillColor=#0079D6;labelPosition=center;verticalLabelPosition=middle;verticalAlign=top;align=center;fontSize=12;outlineConnect=0;spacingTop=-6;fontColor=#FFFFFF;sketch=0;shape=mxgraph.sitemap.page;" vertex="1" parent="1">
          <mxGeometry x="39" y="240" width="200" height="150" as="geometry" />
        </mxCell>
        <mxCell id="XKejNxqJNqAKCkhe8Pqw-3" value="" style="verticalLabelPosition=bottom;aspect=fixed;html=1;shape=mxgraph.salesforce.web;" vertex="1" parent="1">
          <mxGeometry x="49" y="280" width="60" height="47.400000000000006" as="geometry" />
        </mxCell>
        <mxCell id="XKejNxqJNqAKCkhe8Pqw-6" value="" style="endArrow=none;dashed=1;html=1;dashPattern=1 3;strokeWidth=2;rounded=0;" edge="1" parent="1">
          <mxGeometry width="50" height="50" relative="1" as="geometry">
            <mxPoint x="320" y="600" as="sourcePoint" />
            <mxPoint x="320" y="120" as="targetPoint" />
          </mxGeometry>
        </mxCell>
        <mxCell id="XKejNxqJNqAKCkhe8Pqw-12" value="K8s cluster" style="swimlane;childLayout=stackLayout;resizeParent=1;resizeParentMax=0;startSize=20;html=1;" vertex="1" parent="1">
          <mxGeometry x="400" y="160" width="360" height="270" as="geometry" />
        </mxCell>
        <mxCell id="XKejNxqJNqAKCkhe8Pqw-13" value="Controle plan" style="swimlane;startSize=20;html=1;" vertex="1" parent="XKejNxqJNqAKCkhe8Pqw-12">
          <mxGeometry y="20" width="120" height="250" as="geometry" />
        </mxCell>
        <mxCell id="XKejNxqJNqAKCkhe8Pqw-40" value="" style="image;sketch=0;aspect=fixed;html=1;points=[];align=center;fontSize=12;image=img/lib/mscae/Cache_Redis_Product.svg;" vertex="1" parent="XKejNxqJNqAKCkhe8Pqw-13">
          <mxGeometry x="64.81" y="36.99999999999997" width="50" height="42" as="geometry" />
        </mxCell>
        <mxCell id="XKejNxqJNqAKCkhe8Pqw-39" value="" style="image;aspect=fixed;html=1;points=[];align=center;fontSize=12;image=img/lib/azure2/databases/Azure_Database_MariaDB_Server.svg;" vertex="1" parent="XKejNxqJNqAKCkhe8Pqw-13">
          <mxGeometry x="70" y="170" width="42.75" height="57" as="geometry" />
        </mxCell>
        <mxCell id="XKejNxqJNqAKCkhe8Pqw-64" value="" style="shape=image;verticalLabelPosition=bottom;labelBackgroundColor=default;verticalAlign=top;aspect=fixed;imageAspect=0;image=data:image/png,iVBORw0KGgoAAAANSUhEUgAAAZAAAAGQCAMAAAC3Ycb+AAACvlBMVEX////9/vzY68263KeXyXeGwWJzt0hts0Bssz5utEJ3uU+JwmedzIDA367f7tXY68yl0Yt7u1OEwF+w1pnh79j5/PfB4K+HwWORxnDN5sDC4LB8u1SKw2jT6cbX68vl8d36/fms1ZRutEG63Kbk8dyEwGD0+fC93qrV6si12aDc7dFxtkbs9efz+fBxtUWVyHax15vQ6MPr9Ob+//56u1KUyHO32qLX68ry+O9ttEB/vVmezYK+3qv1+vOHwWSl0YrK5Lvm8t52uE2LxGqw15rS6MXu9umXyXi22qLb7dDx+O6Dv174+/ap04/J5Lvp8+J1uEyTx3Kv1pjU6cjv9ura7M/1+vJvtUOAvluiz4bC4LHk8duAvlqPxW2VyHWo0o7O58G22qH9/v3c7tKr1JLq9ON5ulG12Z/s9eWPxW602Z/W6sq93arw9+t8vFWczH6Zy3yFwGH0+fFwtUTO5sChz4bG4rV2uEz7/fp0t0qYynh4uU+u1paNxGvM5b6326N5ulCay33Z7M7y+O6by36ay3ut1ZR9vFek0Im/3qy426Sm0Yz2+vOIwmXV6smDv19ytkbL5b2t1ZXG4rbo8+BytkeOxWygzoTT6MX2+vT+/v6dzYHt9eh7u1TH47fx9+2UyHTd7tK526SfzoPN5r/i8Nn3+/X5/PjK5bzP58Pj8Nqu1Zf8/ft3uU602J6x15qp05DP58Lv9+uq05F1uEuczH+j0IiCv12Mw2miz4eSx3HE4bOz2J3r9OSn0o3J5Ll+vVj6/PiZynq83and7dN/vVrD4bLn8t+QxW7B36/n8uDp9OLg7tbo8+Ht9unZ7M2+3qy73Ke526V6ulHw9+y73aiWyXbe7dSBvlzS6MSq1JGYynmQxm+Tx3N+vFeezYHF4rTU6cey2J2Cvl3I47jg79es1JOhzoWy2Jy/363mr9GjAAASp0lEQVR4nO3d+aNW0xoH8BN12qdJpTTcVKKUJgkNpEQTRcaoTGkihYqGi0o0pzKLuEKRSpK4l0zdUpQ04Jpn7v0v7jmdc3LO2c/a71rPWms/a5++n1+9e+29nqXzvnvvZz1PXh4AAAAAAAAAAAAAAAAAAAAAAAAAAAAAAAAAAAAAAAAAAAAAAAAAAAAAAAAAAAAAAAAAAAAAAAAAAAAAAAAAeFDlmGOrVsuvHqWooEbNWrXrSE88TMfVrZfmUpRV//gG0rMPTcMTGkmtRrHGTaRDEJSmf5NdjiLNTpSOQjCaN5NejGJVW0hHIggtT5JeiCNanSwdjACc0lp6Gcqq2kY6HtKatJJeg/LqHeW/gU+VXoCY6m2lYyKpnXT4KUfxitSWjj3tNOm4SGkuHXmF9h2kIyOjYyfpyKvUlw6NjM7ScVc7XTo2ErpIRz3JGdLRSV/XM6WDnuQs6fCk72zpmCfrJh2ftHXvIR3yZD2lA5S2c6Qjnsu50hFKVwPpeOfUqZd0jFJ1nnS8c+stHaM09ZGOto7zpaOUnip9pYOt4wLpMKXnQulY6+knHae09JeOtKYzu0pHKiUDpCOta6B0pNIxSDrO2lpdJB2rVFwsHWd9taRjlYam0lE2cRSkmA7Olw6yiUbS4fJviHSMzVwiHS/fLpWOsKGhLaUj5tll0hE2dbl0xPy6Qjq+5q6UjplXAWw7MFVVOmY+hZc5quEq6aj5c/Uw6eByXCMdNn+ulY4tz3DpuPkyQjqyTPkNpSPnib+dayOvu76ZxzyvG6Qj58eNnsI18qYGowqHH3zz6PaezhCNkY6dD6PG+gnWuCpHTjG+lp9TRLcIxs2bW72EqvqEcie5zctJKuUmnol+SmYMqnAaT3c6kyrf29zbvQSqduw8d3g5T1TpNkzX8RKmO+MnmuxnG9CUq9OPmVd3egnTVOJMN3g5U3RX6iHz6m4vQZo2nTiVn3+LUTQi9aB51HKGlxjNpM41/e9ezhU1SztoPt3jJ0b3kCe718/JovtSDppHHTyFaBZ5Nk+/s6LZo1IOmz++9tvSmYVzPJ0tGpdy2Ly531eEbiJP5+tfSNRjbsqB86WnrwilvCDRAykHzhObVMVJD86bN2e+6r+aLcj8BWcvXLR4pMXVRJWidtMS/kPxOc0Pf4+O6qZ4imuyIEtvLPlOfsjiV9iy1KLm0WLu7JeXyRpcQa6qwYI8XOYD47hXFEWP+I1VGh7lzn3ppWWHafEY8RH9BVlU7hNth3IvqhIkMj7OnPoTFX71U7tKtBdkToWP9Ge/TT7JT5TS8yRz4u1iI/WOf0h3Qdo/VfEzK59mXlf0jPsYpanrKt60n40P9Vy8XKbugswjPvUw78KyXpZmEWvS1Z+kxvpH7HO6C0L+WuVWvznOYXhS14aVqljwPDnY6tgHNRek72Dyc8yKj5lOZHyBM+Me9HrkvRj7pOaCEO8VDxvOubpMl6V5iTPfAlVR0HgJOssFYa5I+zUuYiOC1YJCmWwefwSjuSCz16qGjP8V1JHZsjQvc2b7inK4+Mty3S/1dcoxX+VcYlbL0qzfwJhrwh/o+GYf3QXZqB70AcY1ZjWR8TXGVDeph7sk/mndBamR8K6PVbnrdcvQiNjMmOi96uFWEreY2o9O3lCP22YL4zrPtIyNiJnm8xy6RD3cm8Tn9R8u9lEPfJr5dUbRarvYSODMU3EDUmQr9XmDx+8L1UMfy7jSVtlr/PKW+SzPVg7W4W3yAJMXVP9crxz9X+aXGj1tHaCUvWM+R/UXyBWK+ihGr3AbKcuHs95pvmQfozQNNv+qLFDu0F+oOsTsnfoWZV8QThn6jJWlecN8hsq9ru8qDzHNOlH+WuWkcr3sIEyp2WY+v7dVY72nPsY4Deh9xTl6MfYwbKAyvUPF+Jp8VDFU0t5287ysFYqzcB4zZqgszQTz2alu0UcnHcRIlOuiOA9n/8pmJ8FKwwfGc5vxIT3SxsSjOJmLinsdzq6SjxyFy7vt5nOL7xU8LMc+H86CtB9Pn4pTu7bijtNALZliPLOx9Ej/znEYK7d3B32HyPgdEl3sKmR+kU85ktGVDSfnqpfJS7Z+kL7sJ8wvO9rpKmY+fWw+r1X0SLtyHcfMft9NHjbe/LqjfMVXX1AYSYH0/2i583S42xE+IY/j5M4lvL8Jxevms+pbhRpIIymYuyD0335W9ahP3UXOj5WMEjPxtNEi9XMfyN6wQ7/O4OxTaOwscp5wUv27UwOdq3EgfwcV+SDzFca1h16W5iJGv/rbqYEm6+Q88heELjXKqYE2yV3wfOAkcTSnBiJy3eMs9hiSj+LVz5UTbHcYPuf2MCZE/ubdq3WoxYKQrzP0zlrBsJDL0nByasiHpnrFnGx24R5DHUq/Kc5hq8MAOvYsZz5UUZcxeofaLMhS6lDlu8lEp7iMoUstOd3wRlIjaW4UtdqnTj0Z/IwxgYR3a9JYibLUpr0lmttKrBaELCXE60DaxGUU3bmSNZl9xEifax5rV8mBer/Eq9Q5NsyyNFU5c9nSkhhpmebBdgtCPSBgpTEGWpaGV2KGukPTbiVttyBUy3TW12ChEPvrXcOayX5ipJN0D7YsPkPlujEykosE2F9vN28m1G8d7fowlgtyOnHwAd40oj1Og+nA4OWseeQT+/XO1z7ackHqEwc3Z00jilq7Dae9hHS2JI8TQ+kXp7atl0W8zOjO7TlDlDqQxHoKFNGNID7SPtp2QajaPhqvYUhbwkpk3MWcBvF6e/1B7aNtF+Ra4uhzONMo8qrbiNo5kTsLok6FwZtU2wWh/vDzi2l1cBtTK8oifLlsi4/1vv7RtgtScCh+NOsB6WHXOw6qhS+4c+hLJK1dqH+4dRFM4hm8Rbf3mx2Hla0hVe1NC1X0wiCe1gtCfIVZFH0O5qkvs6xOoS+J0QzqcVgvyMPxo5/ibJMu8ZXbuLK1Zs+A+Jmz1iCPyHpBiPyKlf8xn0apQN4dMnJHS42Oj3aoh/7h1gtC7TPlFoksNDSMzFLu45+ILN7ewuBw6wV5izg8XrhOXxhJWhYz+Dw+mskbCesFqUHcXts0yzrecWhZ1nCK/pQ4NT7c1waHWy/IUKKSlk3D3iASS21aDBH7QkySta0XZBiRUsrZJ1KKuq9KHVE2SRuRHWCyiZ9u6GLwN6c68aTAZkGCSIafZXH9lgtCv8o+S38A5wsSQg3Zbyyu/+74cFMNDqeLHxqUvWlPvAu3WhBVZYI02UyASFR+yODwatT1HDJ4xTSNuHGw+VIPYtMhK/unBPEry+g3AtVW+xGD4w8SX8JWDXpC6ND6rcX1E9Upje77qS1+Sw2Opx5ucqpnHXGh6+gyfGlx/cSjk7kmL7VbxbMPV5ic/ztiPuxOFkUWEQOmjd34odAL8eGqGNXliLXfvMioGBlx/lE7zKZQ3gk+Imxok8X1f0+MZ7b1skKpvavNnjwTf2GW5KpWkCiElki8/ORiVGaU4a+2zmV/uX71g9nB78RPr7k1RSGEp4smv2oqyicaSZi2HKlx6uSSI8cY74cgXrruMx2jnBD27jATxot9HB+vn/EgG37c3e/+FV90LjA9sNPk+Ol/Mj59GUGU2mCVhi71c3y8zdzcQXPUtjaDHIu4MN6q32IxA+KFCDt30Nx7xNmt7gsTSpqn6BeLGSwgxmN3ojRGVWC0eKUeRS/6jrWWryxmELuPKNTEJiQmehB5clcavNKPGdbLe7C1TOJPYTlRQ30yozwHC/V/Q1ubAUMpwjjQYg7diPGsniYZoGrNt7MZkPiJIqK78e/Nv1DvmGz6fZvYS5z7e4vxPvAcZ33z+JO4jBiOU1KIgfrRO9jmwUkfz2HWZzENsgcdqzGUMar0YluL8cjXZUKYLRqLUF1Wj7MIi7ZOsY7FefwOuUWC2vfJaN9SgtrUlmf1CFwTdQuU9yt/vB/9RtjQVex51KOGs/gXp43K2NHfABzTY67nEBviVOouRhVjr1KDHxlN5H4ni5QmupKnHF7lmSKLqeH4W050kS2L+H95D670G19zl3OnQqZfjvL9T+QOag6sZsrFwms1uX6a07n8xo+NFiJlkeq2qyuhI6YYdo4vnTJejR0cHVTZtLwP+bdTxIs2ebxqbIXIjh6/s4OjgS67wGj1V4L8CS1Ou8xVRUPI4fh/P3LrR57xYu5wnRJaxkqi2tXqmELdM+dVIboRO0Lfw/HTG6j3niHozn25Q+/zsNkJlGgDsW8qj1+vJfrBZ1Ct5O74QctvSQ7HLzuSjK64kKu/khpZKz0IXesxp0T/E8m7nh2jJIrW29dxx6PSL0PBavhQ6DEiYa5QS4uXw0pv0pfOzwwIYRubEqcnShHyviAvbxujJWoO1Iv0Iuz7HiKDPyDsx6X96fGs0iIpk8hfdIa7GMrKp38hBGMBc15UGZoijJZWSQ4qeoTzHy+HsIktyRruH5kJigHv40aK0vdSxVm0SwVXFH5vyduYM1PWTzfZlptDvTMU5zApsFIe2aknLD2ZU/tGNeA+V9nX1SaqTsFOJ1Z0DQ0KtxRxdJVqxBGG23AUBii/fvl3oEQyangMKimUM1tZKKSjTfpaqT+UF8x+Khq95iWArrGrFpL984pZ7dooMky9+2869/lCtIFsURqeN7gTbKoeswunx+Bf7qXb3x5Wiz0qtZ0hRA3Zb95+Vw/a5gV23MjKdUfotBSlkX3FgnQ3d4obknoC/szdSzOzRcKoFps817mOmz/sdJqaSaNOP5aznbF+YoWe/rw2G0XOcRszr/iPTp9OHPe5Tab3JCOTH20M5v+iLiD2GoVLv+VERURt47LGv6vfPCGKln2eo+beBezrjA64i1YKJlZnT/TWHEOvGa77jP/BnNlr/ARYuoVvwFiNl4vlThnYc3nuBJHG26liWuXx/x2rElfCtd4iF5TaSVNRnVmd1S0AVj2wM+G+4whmR7bDbrENUOrYb3wi3T6Ncwed3Pu82eUzXTqtajy69rqGWsdblQjQWfDA1LSYbo5v9jKmjxl0308nb393yE37t7//dZ3N2kno0y+zWQ9ym1Hg1tlM+E/fV/ecQVeMuE50Ukbg/rSZ8q6ke3Z7e0x+PMct9HpxvrSx2L4eRZMSnmtZ62O1HNEOj5fm02q7aRNVlh1hNX4vg2o5ngmW6dKL/ZS2H8NNHiulypAJH7u9YYll1IZQW4+wW5iVUuSQZQE7X7aU872th/ivo0rNc31NKfrUevaN3PYbGM5sYF/GtLCa3hpyUB3uBkWyIUMDbv5FWYG1hTa0hv/+54jH9rv5cu/f2/5a6HLxWeKk9tXI3fbpHR3HWZWsPqKOg6CIGukkDL/+ZFcpof8v7G305SWkKmWERbPfcnbs52cJrhsyxdFVtCJa8mRNZ0exiPLrsjKbW061ee9RQa7XmVkw3l04opoHHjU8+/PzXO6unq1K0c+U4x1GJIp2LSLr+FDW7pt3p9NzR1N9xik104e6jUrUenGfnO/Lq/y+83bnW0bDKO1uz0Nln+o9/xx44jaqgGZeXvcWl5w+0y4VWOH8lAPnja/KPmMvmLNp9c4buw0asW7dupeO6fbi7o11v13q5n6DQHR/zyhvRTJSNUyxgTeL7B+xBoDogplZc6WD6cB86SA65auOTIpU+7Yzaqx0PG0F0bveIW5ZmmDkzhTOGIvE/xBQXXez7RTpkFqZkclUxWRbpYNqI/QSMxy93Ne+Sk34JWY4+PuPxWWgxAyHj4J9qRggHTlPHpIOLJe7RKTApNUPzzGi63olYZ/IKGGon5zvIIyWDi5HH+moebTWOvM8fSF1w3Nvp3R4zWWoxAwHv8uTkOTiK9nnvDKyZwWBdcNz71vpEJtZJB0v7zZLh9hIva7S8fLvv9JBNkF16q1sRm2QjrK+ELvhuWe5az9NScUaK5Gl0nHWVVc6UinhV5JO1/JAu+G594R0qPX8TzpOqeloVZYmLT2lw5SiRdLB1hFuNzwP2PXv03OWdIxS1UU63LmRLZMrr8el452LopFfpbVXOuA5zMh0iRmOutIhT5btEjMcg4NOZGwtHR4BC6WDniTzJWY4lklHXS1LrUHc+UQ67ErT9GqVVzq7pQOv4qP2Ziaw27n55a9gcPCcFN1zbbV0VCQtkI5+3BfSMZF1q3T8K+ojHRFpKxzULXXnV58tADJizHfSq/CXrcqG0keV2t4KKpl5K2uNvryZ+Ecr6cWIohoDj7oHvAn2bhL+VzL/gN+WPtnTvfYusdXoNGBFJd62xteiaa30HzgWNLvr5WekZx6uzyb8Nmtju9RsXL1iX0fpOQMAAAAAAAAAAAAAAAAAAAAAAAAAAAAAAAAAAAAAAAAAAAAAAAAAAAAAAAAAAAAAAAAAAAAAAAAAAAAAAABUWv8HF/WkH1Nv95EAAAAASUVORK5CYII=;" vertex="1" parent="XKejNxqJNqAKCkhe8Pqw-13">
          <mxGeometry x="5.1899999999999995" y="30" width="56" height="56" as="geometry" />
        </mxCell>
        <mxCell id="XKejNxqJNqAKCkhe8Pqw-14" value="Worker01" style="swimlane;startSize=20;html=1;" vertex="1" parent="XKejNxqJNqAKCkhe8Pqw-12">
          <mxGeometry x="120" y="20" width="120" height="250" as="geometry">
            <mxRectangle x="120" y="20" width="40" height="260" as="alternateBounds" />
          </mxGeometry>
        </mxCell>
        <mxCell id="XKejNxqJNqAKCkhe8Pqw-41" value="" style="image;aspect=fixed;html=1;points=[];align=center;fontSize=12;image=img/lib/azure2/databases/Azure_Database_MariaDB_Server.svg;" vertex="1" parent="XKejNxqJNqAKCkhe8Pqw-14">
          <mxGeometry x="70" y="170" width="42.75" height="57" as="geometry" />
        </mxCell>
        <mxCell id="XKejNxqJNqAKCkhe8Pqw-58" value="" style="endArrow=classic;html=1;rounded=0;entryX=0.5;entryY=0;entryDx=0;entryDy=0;" edge="1" parent="XKejNxqJNqAKCkhe8Pqw-14">
          <mxGeometry width="50" height="50" relative="1" as="geometry">
            <mxPoint x="59.680000000000064" y="240" as="sourcePoint" />
            <mxPoint x="59.680000000000064" y="280" as="targetPoint" />
          </mxGeometry>
        </mxCell>
        <mxCell id="XKejNxqJNqAKCkhe8Pqw-15" value="Worker02" style="swimlane;startSize=20;html=1;" vertex="1" parent="XKejNxqJNqAKCkhe8Pqw-12">
          <mxGeometry x="240" y="20" width="120" height="250" as="geometry" />
        </mxCell>
        <mxCell id="XKejNxqJNqAKCkhe8Pqw-42" value="" style="image;aspect=fixed;html=1;points=[];align=center;fontSize=12;image=img/lib/azure2/databases/Azure_Database_MariaDB_Server.svg;" vertex="1" parent="XKejNxqJNqAKCkhe8Pqw-15">
          <mxGeometry x="70" y="170" width="42.75" height="57" as="geometry" />
        </mxCell>
        <mxCell id="XKejNxqJNqAKCkhe8Pqw-59" value="" style="endArrow=classic;html=1;rounded=0;entryX=0.5;entryY=0;entryDx=0;entryDy=0;" edge="1" parent="XKejNxqJNqAKCkhe8Pqw-15">
          <mxGeometry width="50" height="50" relative="1" as="geometry">
            <mxPoint x="59.680000000000064" y="240" as="sourcePoint" />
            <mxPoint x="59.680000000000064" y="280" as="targetPoint" />
          </mxGeometry>
        </mxCell>
        <mxCell id="XKejNxqJNqAKCkhe8Pqw-71" value="" style="image;sketch=0;aspect=fixed;html=1;points=[];align=center;fontSize=12;image=img/lib/mscae/Cache_Redis_Product.svg;" vertex="1" parent="XKejNxqJNqAKCkhe8Pqw-15">
          <mxGeometry x="64.80999999999995" y="36.99999999999997" width="50" height="42" as="geometry" />
        </mxCell>
        <mxCell id="XKejNxqJNqAKCkhe8Pqw-72" value="" style="shape=image;verticalLabelPosition=bottom;labelBackgroundColor=default;verticalAlign=top;aspect=fixed;imageAspect=0;image=data:image/png,iVBORw0KGgoAAAANSUhEUgAAAZAAAAGQCAMAAAC3Ycb+AAACvlBMVEX////9/vzY68263KeXyXeGwWJzt0hts0Bssz5utEJ3uU+JwmedzIDA367f7tXY68yl0Yt7u1OEwF+w1pnh79j5/PfB4K+HwWORxnDN5sDC4LB8u1SKw2jT6cbX68vl8d36/fms1ZRutEG63Kbk8dyEwGD0+fC93qrV6si12aDc7dFxtkbs9efz+fBxtUWVyHax15vQ6MPr9Ob+//56u1KUyHO32qLX68ry+O9ttEB/vVmezYK+3qv1+vOHwWSl0YrK5Lvm8t52uE2LxGqw15rS6MXu9umXyXi22qLb7dDx+O6Dv174+/ap04/J5Lvp8+J1uEyTx3Kv1pjU6cjv9ura7M/1+vJvtUOAvluiz4bC4LHk8duAvlqPxW2VyHWo0o7O58G22qH9/v3c7tKr1JLq9ON5ulG12Z/s9eWPxW602Z/W6sq93arw9+t8vFWczH6Zy3yFwGH0+fFwtUTO5sChz4bG4rV2uEz7/fp0t0qYynh4uU+u1paNxGvM5b6326N5ulCay33Z7M7y+O6by36ay3ut1ZR9vFek0Im/3qy426Sm0Yz2+vOIwmXV6smDv19ytkbL5b2t1ZXG4rbo8+BytkeOxWygzoTT6MX2+vT+/v6dzYHt9eh7u1TH47fx9+2UyHTd7tK526SfzoPN5r/i8Nn3+/X5/PjK5bzP58Pj8Nqu1Zf8/ft3uU602J6x15qp05DP58Lv9+uq05F1uEuczH+j0IiCv12Mw2miz4eSx3HE4bOz2J3r9OSn0o3J5Ll+vVj6/PiZynq83and7dN/vVrD4bLn8t+QxW7B36/n8uDp9OLg7tbo8+Ht9unZ7M2+3qy73Ke526V6ulHw9+y73aiWyXbe7dSBvlzS6MSq1JGYynmQxm+Tx3N+vFeezYHF4rTU6cey2J2Cvl3I47jg79es1JOhzoWy2Jy/363mr9GjAAASp0lEQVR4nO3d+aNW0xoH8BN12qdJpTTcVKKUJgkNpEQTRcaoTGkihYqGi0o0pzKLuEKRSpK4l0zdUpQ04Jpn7v0v7jmdc3LO2c/a71rPWms/a5++n1+9e+29nqXzvnvvZz1PXh4AAAAAAAAAAAAAAAAAAAAAAAAAAAAAAAAAAAAAAAAAAAAAAAAAAAAAAAAAAAAAAAAAAAAAAAAAAAAAAAAAeFDlmGOrVsuvHqWooEbNWrXrSE88TMfVrZfmUpRV//gG0rMPTcMTGkmtRrHGTaRDEJSmf5NdjiLNTpSOQjCaN5NejGJVW0hHIggtT5JeiCNanSwdjACc0lp6Gcqq2kY6HtKatJJeg/LqHeW/gU+VXoCY6m2lYyKpnXT4KUfxitSWjj3tNOm4SGkuHXmF9h2kIyOjYyfpyKvUlw6NjM7ScVc7XTo2ErpIRz3JGdLRSV/XM6WDnuQs6fCk72zpmCfrJh2ftHXvIR3yZD2lA5S2c6Qjnsu50hFKVwPpeOfUqZd0jFJ1nnS8c+stHaM09ZGOto7zpaOUnip9pYOt4wLpMKXnQulY6+knHae09JeOtKYzu0pHKiUDpCOta6B0pNIxSDrO2lpdJB2rVFwsHWd9taRjlYam0lE2cRSkmA7Olw6yiUbS4fJviHSMzVwiHS/fLpWOsKGhLaUj5tll0hE2dbl0xPy6Qjq+5q6UjplXAWw7MFVVOmY+hZc5quEq6aj5c/Uw6eByXCMdNn+ulY4tz3DpuPkyQjqyTPkNpSPnib+dayOvu76ZxzyvG6Qj58eNnsI18qYGowqHH3zz6PaezhCNkY6dD6PG+gnWuCpHTjG+lp9TRLcIxs2bW72EqvqEcie5zctJKuUmnol+SmYMqnAaT3c6kyrf29zbvQSqduw8d3g5T1TpNkzX8RKmO+MnmuxnG9CUq9OPmVd3egnTVOJMN3g5U3RX6iHz6m4vQZo2nTiVn3+LUTQi9aB51HKGlxjNpM41/e9ezhU1SztoPt3jJ0b3kCe718/JovtSDppHHTyFaBZ5Nk+/s6LZo1IOmz++9tvSmYVzPJ0tGpdy2Ly531eEbiJP5+tfSNRjbsqB86WnrwilvCDRAykHzhObVMVJD86bN2e+6r+aLcj8BWcvXLR4pMXVRJWidtMS/kPxOc0Pf4+O6qZ4imuyIEtvLPlOfsjiV9iy1KLm0WLu7JeXyRpcQa6qwYI8XOYD47hXFEWP+I1VGh7lzn3ppWWHafEY8RH9BVlU7hNth3IvqhIkMj7OnPoTFX71U7tKtBdkToWP9Ge/TT7JT5TS8yRz4u1iI/WOf0h3Qdo/VfEzK59mXlf0jPsYpanrKt60n40P9Vy8XKbugswjPvUw78KyXpZmEWvS1Z+kxvpH7HO6C0L+WuVWvznOYXhS14aVqljwPDnY6tgHNRek72Dyc8yKj5lOZHyBM+Me9HrkvRj7pOaCEO8VDxvOubpMl6V5iTPfAlVR0HgJOssFYa5I+zUuYiOC1YJCmWwefwSjuSCz16qGjP8V1JHZsjQvc2b7inK4+Mty3S/1dcoxX+VcYlbL0qzfwJhrwh/o+GYf3QXZqB70AcY1ZjWR8TXGVDeph7sk/mndBamR8K6PVbnrdcvQiNjMmOi96uFWEreY2o9O3lCP22YL4zrPtIyNiJnm8xy6RD3cm8Tn9R8u9lEPfJr5dUbRarvYSODMU3EDUmQr9XmDx+8L1UMfy7jSVtlr/PKW+SzPVg7W4W3yAJMXVP9crxz9X+aXGj1tHaCUvWM+R/UXyBWK+ihGr3AbKcuHs95pvmQfozQNNv+qLFDu0F+oOsTsnfoWZV8QThn6jJWlecN8hsq9ru8qDzHNOlH+WuWkcr3sIEyp2WY+v7dVY72nPsY4Deh9xTl6MfYwbKAyvUPF+Jp8VDFU0t5287ysFYqzcB4zZqgszQTz2alu0UcnHcRIlOuiOA9n/8pmJ8FKwwfGc5vxIT3SxsSjOJmLinsdzq6SjxyFy7vt5nOL7xU8LMc+H86CtB9Pn4pTu7bijtNALZliPLOx9Ej/znEYK7d3B32HyPgdEl3sKmR+kU85ktGVDSfnqpfJS7Z+kL7sJ8wvO9rpKmY+fWw+r1X0SLtyHcfMft9NHjbe/LqjfMVXX1AYSYH0/2i583S42xE+IY/j5M4lvL8Jxevms+pbhRpIIymYuyD0335W9ahP3UXOj5WMEjPxtNEi9XMfyN6wQ7/O4OxTaOwscp5wUv27UwOdq3EgfwcV+SDzFca1h16W5iJGv/rbqYEm6+Q88heELjXKqYE2yV3wfOAkcTSnBiJy3eMs9hiSj+LVz5UTbHcYPuf2MCZE/ubdq3WoxYKQrzP0zlrBsJDL0nByasiHpnrFnGx24R5DHUq/Kc5hq8MAOvYsZz5UUZcxeofaLMhS6lDlu8lEp7iMoUstOd3wRlIjaW4UtdqnTj0Z/IwxgYR3a9JYibLUpr0lmttKrBaELCXE60DaxGUU3bmSNZl9xEifax5rV8mBer/Eq9Q5NsyyNFU5c9nSkhhpmebBdgtCPSBgpTEGWpaGV2KGukPTbiVttyBUy3TW12ChEPvrXcOayX5ipJN0D7YsPkPlujEykosE2F9vN28m1G8d7fowlgtyOnHwAd40oj1Og+nA4OWseeQT+/XO1z7ackHqEwc3Z00jilq7Dae9hHS2JI8TQ+kXp7atl0W8zOjO7TlDlDqQxHoKFNGNID7SPtp2QajaPhqvYUhbwkpk3MWcBvF6e/1B7aNtF+Ra4uhzONMo8qrbiNo5kTsLok6FwZtU2wWh/vDzi2l1cBtTK8oifLlsi4/1vv7RtgtScCh+NOsB6WHXOw6qhS+4c+hLJK1dqH+4dRFM4hm8Rbf3mx2Hla0hVe1NC1X0wiCe1gtCfIVZFH0O5qkvs6xOoS+J0QzqcVgvyMPxo5/ibJMu8ZXbuLK1Zs+A+Jmz1iCPyHpBiPyKlf8xn0apQN4dMnJHS42Oj3aoh/7h1gtC7TPlFoksNDSMzFLu45+ILN7ewuBw6wV5izg8XrhOXxhJWhYz+Dw+mskbCesFqUHcXts0yzrecWhZ1nCK/pQ4NT7c1waHWy/IUKKSlk3D3iASS21aDBH7QkySta0XZBiRUsrZJ1KKuq9KHVE2SRuRHWCyiZ9u6GLwN6c68aTAZkGCSIafZXH9lgtCv8o+S38A5wsSQg3Zbyyu/+74cFMNDqeLHxqUvWlPvAu3WhBVZYI02UyASFR+yODwatT1HDJ4xTSNuHGw+VIPYtMhK/unBPEry+g3AtVW+xGD4w8SX8JWDXpC6ND6rcX1E9Upje77qS1+Sw2Opx5ucqpnHXGh6+gyfGlx/cSjk7kmL7VbxbMPV5ic/ztiPuxOFkUWEQOmjd34odAL8eGqGNXliLXfvMioGBlx/lE7zKZQ3gk+Imxok8X1f0+MZ7b1skKpvavNnjwTf2GW5KpWkCiElki8/ORiVGaU4a+2zmV/uX71g9nB78RPr7k1RSGEp4smv2oqyicaSZi2HKlx6uSSI8cY74cgXrruMx2jnBD27jATxot9HB+vn/EgG37c3e/+FV90LjA9sNPk+Ol/Mj59GUGU2mCVhi71c3y8zdzcQXPUtjaDHIu4MN6q32IxA+KFCDt30Nx7xNmt7gsTSpqn6BeLGSwgxmN3ojRGVWC0eKUeRS/6jrWWryxmELuPKNTEJiQmehB5clcavNKPGdbLe7C1TOJPYTlRQ30yozwHC/V/Q1ubAUMpwjjQYg7diPGsniYZoGrNt7MZkPiJIqK78e/Nv1DvmGz6fZvYS5z7e4vxPvAcZ33z+JO4jBiOU1KIgfrRO9jmwUkfz2HWZzENsgcdqzGUMar0YluL8cjXZUKYLRqLUF1Wj7MIi7ZOsY7FefwOuUWC2vfJaN9SgtrUlmf1CFwTdQuU9yt/vB/9RtjQVex51KOGs/gXp43K2NHfABzTY67nEBviVOouRhVjr1KDHxlN5H4ni5QmupKnHF7lmSKLqeH4W050kS2L+H95D670G19zl3OnQqZfjvL9T+QOag6sZsrFwms1uX6a07n8xo+NFiJlkeq2qyuhI6YYdo4vnTJejR0cHVTZtLwP+bdTxIs2ebxqbIXIjh6/s4OjgS67wGj1V4L8CS1Ou8xVRUPI4fh/P3LrR57xYu5wnRJaxkqi2tXqmELdM+dVIboRO0Lfw/HTG6j3niHozn25Q+/zsNkJlGgDsW8qj1+vJfrBZ1Ct5O74QctvSQ7HLzuSjK64kKu/khpZKz0IXesxp0T/E8m7nh2jJIrW29dxx6PSL0PBavhQ6DEiYa5QS4uXw0pv0pfOzwwIYRubEqcnShHyviAvbxujJWoO1Iv0Iuz7HiKDPyDsx6X96fGs0iIpk8hfdIa7GMrKp38hBGMBc15UGZoijJZWSQ4qeoTzHy+HsIktyRruH5kJigHv40aK0vdSxVm0SwVXFH5vyduYM1PWTzfZlptDvTMU5zApsFIe2aknLD2ZU/tGNeA+V9nX1SaqTsFOJ1Z0DQ0KtxRxdJVqxBGG23AUBii/fvl3oEQyangMKimUM1tZKKSjTfpaqT+UF8x+Khq95iWArrGrFpL984pZ7dooMky9+2869/lCtIFsURqeN7gTbKoeswunx+Bf7qXb3x5Wiz0qtZ0hRA3Zb95+Vw/a5gV23MjKdUfotBSlkX3FgnQ3d4obknoC/szdSzOzRcKoFps817mOmz/sdJqaSaNOP5aznbF+YoWe/rw2G0XOcRszr/iPTp9OHPe5Tab3JCOTH20M5v+iLiD2GoVLv+VERURt47LGv6vfPCGKln2eo+beBezrjA64i1YKJlZnT/TWHEOvGa77jP/BnNlr/ARYuoVvwFiNl4vlThnYc3nuBJHG26liWuXx/x2rElfCtd4iF5TaSVNRnVmd1S0AVj2wM+G+4whmR7bDbrENUOrYb3wi3T6Ncwed3Pu82eUzXTqtajy69rqGWsdblQjQWfDA1LSYbo5v9jKmjxl0308nb393yE37t7//dZ3N2kno0y+zWQ9ym1Hg1tlM+E/fV/ecQVeMuE50Ukbg/rSZ8q6ke3Z7e0x+PMct9HpxvrSx2L4eRZMSnmtZ62O1HNEOj5fm02q7aRNVlh1hNX4vg2o5ngmW6dKL/ZS2H8NNHiulypAJH7u9YYll1IZQW4+wW5iVUuSQZQE7X7aU872th/ivo0rNc31NKfrUevaN3PYbGM5sYF/GtLCa3hpyUB3uBkWyIUMDbv5FWYG1hTa0hv/+54jH9rv5cu/f2/5a6HLxWeKk9tXI3fbpHR3HWZWsPqKOg6CIGukkDL/+ZFcpof8v7G305SWkKmWERbPfcnbs52cJrhsyxdFVtCJa8mRNZ0exiPLrsjKbW061ee9RQa7XmVkw3l04opoHHjU8+/PzXO6unq1K0c+U4x1GJIp2LSLr+FDW7pt3p9NzR1N9xik104e6jUrUenGfnO/Lq/y+83bnW0bDKO1uz0Nln+o9/xx44jaqgGZeXvcWl5w+0y4VWOH8lAPnja/KPmMvmLNp9c4buw0asW7dupeO6fbi7o11v13q5n6DQHR/zyhvRTJSNUyxgTeL7B+xBoDogplZc6WD6cB86SA65auOTIpU+7Yzaqx0PG0F0bveIW5ZmmDkzhTOGIvE/xBQXXez7RTpkFqZkclUxWRbpYNqI/QSMxy93Ne+Sk34JWY4+PuPxWWgxAyHj4J9qRggHTlPHpIOLJe7RKTApNUPzzGi63olYZ/IKGGon5zvIIyWDi5HH+moebTWOvM8fSF1w3Nvp3R4zWWoxAwHv8uTkOTiK9nnvDKyZwWBdcNz71vpEJtZJB0v7zZLh9hIva7S8fLvv9JBNkF16q1sRm2QjrK+ELvhuWe5az9NScUaK5Gl0nHWVVc6UinhV5JO1/JAu+G594R0qPX8TzpOqeloVZYmLT2lw5SiRdLB1hFuNzwP2PXv03OWdIxS1UU63LmRLZMrr8el452LopFfpbVXOuA5zMh0iRmOutIhT5btEjMcg4NOZGwtHR4BC6WDniTzJWY4lklHXS1LrUHc+UQ67ErT9GqVVzq7pQOv4qP2Ziaw27n55a9gcPCcFN1zbbV0VCQtkI5+3BfSMZF1q3T8K+ojHRFpKxzULXXnV58tADJizHfSq/CXrcqG0keV2t4KKpl5K2uNvryZ+Ecr6cWIohoDj7oHvAn2bhL+VzL/gN+WPtnTvfYusdXoNGBFJd62xteiaa30HzgWNLvr5WekZx6uzyb8Nmtju9RsXL1iX0fpOQMAAAAAAAAAAAAAAAAAAAAAAAAAAAAAAAAAAAAAAAAAAAAAAAAAAAAAAAAAAAAAAAAAAAAAAAAAAAAAAABUWv8HF/WkH1Nv95EAAAAASUVORK5CYII=;" vertex="1" parent="XKejNxqJNqAKCkhe8Pqw-15">
          <mxGeometry x="5.190000000000055" y="30" width="56" height="56" as="geometry" />
        </mxCell>
        <mxCell id="XKejNxqJNqAKCkhe8Pqw-29" value="" style="endArrow=classic;html=1;rounded=0;exitX=1;exitY=0.5;exitDx=0;exitDy=0;exitPerimeter=0;" edge="1" parent="1" source="XKejNxqJNqAKCkhe8Pqw-4" target="XKejNxqJNqAKCkhe8Pqw-25">
          <mxGeometry width="50" height="50" relative="1" as="geometry">
            <mxPoint x="420" y="310" as="sourcePoint" />
            <mxPoint x="470" y="260" as="targetPoint" />
          </mxGeometry>
        </mxCell>
        <mxCell id="XKejNxqJNqAKCkhe8Pqw-25" value="" style="aspect=fixed;sketch=0;html=1;dashed=0;whitespace=wrap;verticalLabelPosition=bottom;verticalAlign=top;fillColor=#2875E2;strokeColor=#ffffff;points=[[0.005,0.63,0],[0.1,0.2,0],[0.9,0.2,0],[0.5,0,0],[0.995,0.63,0],[0.72,0.99,0],[0.5,1,0],[0.28,0.99,0]];shape=mxgraph.kubernetes.icon2;kubernetesLabel=1;prIcon=svc" vertex="1" parent="1">
          <mxGeometry x="374" y="290" width="50" height="48" as="geometry" />
        </mxCell>
        <mxCell id="XKejNxqJNqAKCkhe8Pqw-30" value="물리 LB&lt;br&gt;또는&lt;br&gt;가상 LB 사용" style="text;html=1;align=center;verticalAlign=middle;resizable=0;points=[];autosize=1;strokeColor=none;fillColor=none;" vertex="1" parent="1">
          <mxGeometry x="310" y="240" width="90" height="60" as="geometry" />
        </mxCell>
        <mxCell id="XKejNxqJNqAKCkhe8Pqw-31" value="Public VPC" style="text;html=1;align=center;verticalAlign=middle;resizable=0;points=[];autosize=1;strokeColor=none;fillColor=none;fontStyle=1;fontSize=15;" vertex="1" parent="1">
          <mxGeometry x="19" y="70" width="100" height="30" as="geometry" />
        </mxCell>
        <mxCell id="XKejNxqJNqAKCkhe8Pqw-32" value="Private VPC" style="text;html=1;align=center;verticalAlign=middle;resizable=0;points=[];autosize=1;strokeColor=none;fillColor=none;fontStyle=1;fontSize=15;" vertex="1" parent="1">
          <mxGeometry x="330" y="70" width="110" height="30" as="geometry" />
        </mxCell>
        <mxCell id="XKejNxqJNqAKCkhe8Pqw-33" value="SSL/TLS 인증" style="text;html=1;align=center;verticalAlign=middle;resizable=0;points=[];autosize=1;strokeColor=none;fillColor=none;" vertex="1" parent="1">
          <mxGeometry x="230" y="308" width="100" height="30" as="geometry" />
        </mxCell>
        <mxCell id="XKejNxqJNqAKCkhe8Pqw-36" value="" style="endArrow=classic;html=1;rounded=0;entryX=0.5;entryY=0;entryDx=0;entryDy=0;entryPerimeter=0;" edge="1" parent="1" source="XKejNxqJNqAKCkhe8Pqw-2" target="XKejNxqJNqAKCkhe8Pqw-4">
          <mxGeometry width="50" height="50" relative="1" as="geometry">
            <mxPoint x="460" y="170" as="sourcePoint" />
            <mxPoint x="510" y="120" as="targetPoint" />
          </mxGeometry>
        </mxCell>
        <mxCell id="XKejNxqJNqAKCkhe8Pqw-44" value="DB Replication" style="text;html=1;align=center;verticalAlign=middle;resizable=0;points=[];autosize=1;strokeColor=none;fillColor=none;" vertex="1" parent="1">
          <mxGeometry x="770" y="365" width="100" height="30" as="geometry" />
        </mxCell>
        <mxCell id="XKejNxqJNqAKCkhe8Pqw-45" value="" style="shape=image;verticalLabelPosition=bottom;labelBackgroundColor=default;verticalAlign=top;aspect=fixed;imageAspect=0;image=data:image/png,iVBORw0KGgoAAAANSUhEUgAAAzQAAAP8CAMAAACnFwucAAACN1BMVEVHcEztW1vwXVXxW1fxXFbxW1bwXFXwXFbwXFbwXFbwXFbwW1bwXFbwXFbwW1bwXFbxXFbwW1bvXVXrXFH/VlbvW1XwXFbxXFXwXFbwW1XxXFXwW1XwXFbwXFbwXFbvXVb/VVX1XlTvW1fwXFbwW1bwXFbxXFb0XVX/VVXvXVXwXVXwXFbvXFbwW1XwXFbwXFbwXFbwXFbwXFb2YFbvXFbwXFbwXFbvW1bvWlLwXFbvW1X/UVHyXlHwXFbwXFbwXFXyXFXwW1XwXFbwXFbtWFjvW1XwW1bvXFbtW1LmZk3zW1XwXFbvXFfoXV3sWlfwW1byXVbxW1buXFbwXFbwXVbwXFXwXFbvXVfwXFbwXFXwXFbxW1XwW1bwXFXyXFbxV1fwXFbwXFbyWVnwXFbwXFbxXFbwXFfvXFbwXVbwXFXwXFbxXFbwXFXwXVfvXFbwXVfwXFY3Qkk6PUs3Qko3Qko3Qko2Qko3Qko2Qko2QUo3QUo3QkoAT083QUo3Qko3Qko2QkpAQEo3Qko2Qkk3Qkk3Qko3Qko3QUo3QUo3Qko3Qkk2Qkk3QUoyTEw3QUs4REs3QUo2QUk1QEo7RkY5Qks3Qko3Qko3Qko2Qko2Qko3Qko3Qko3Qko3Qko3Qkk3Qko4QUk3Qko3Qko2Qko2Qko3Qko2Qko3QUk3Qko3Qko3Qko3Qko2Qko3Qko2Q0o3Q0o2REs3Qko3QUo3Qko3Qko6QEo4Q0k3QUo3Qko2Qkk2QUrwXFY3QkoHUUMRAAAAu3RSTlMADiI1SFtueIiLmKGqtruGazMfDAQ+Xn2brsPV5vrBPAMYQIDfvZ4WBiuz78RWg9z+/VQITvfMkQ/YUAET5OlmJXrJxx1zxnAcCijsMAsauDk3LadD0tZS8r/1sUXPSxHhYxTj0Fjak+11Z49pqKSllTwR1/2YVciGNeKQAd4vzGYI5oge+604u/6yLJQKM0ROShcEG1uBnMXq7vbztaEoFWDa+M+mdGJr06p8uHAllSJRwj93DVe/R0KM2fbwawAASZBJREFUeNrt3fdjVUXawPGASJAAUmIUIRKKS7loEkIAvQgRKwQQFFwMItgL6iogNlaxYBd0UVREgbW3fVFxV738cW8KIEnOmfvM88wpN/f7+TmZOWWee86Z8kxNDQAAAAAAAAAAAAAAAAAAAAAAAAAAAAAAAAAAAAAAAAAAAAAAAAAAAAAAAAAAAAAAAAAAAAAAAAAAAAAAAAAAAAAAAAAAAAAAAAAAAAAAAAAAAAAAAAAAAAAAAAAAAAAAAAAAAAAAAAAAAAAAAAAAAAAAAAAAAAAAAAAAAAAAAAAAAAAAAAAAAAAAAAAAAAAAAAAAAAAAAAAAAAAAAAAAAAAAAAAAAAAAAAAgBcOGnzfi/JG1taNGXTB6dN2YMWPHjRs7Zkzd6NEXjLqwtnb8+SMmTJyU9TEC2aufeFHDxZdMvnTK1MaSQOPUKZdNvuTihmkTm7I+ciBt02c0zKy7bJYoVCLDZ9blf5vZMGN21ucBpGDO3IZR86Zqg2WgwvzRI6fx2oYha/gVV05ubgkVL39pbZ585YLhWZ8dEFb9hJF1s8KHy7mmzqud1pb1eQJBzF44c1x7sgFzRuOixQv4zkFlW7LgkuZ04uUvV42+eljW5w3ozK0dp+4es2ldNHNCMevTB/wsXTD6mmwC5oxlY5ZPz/oqAFId165ozTZiTj9wrqulUw0VYOLI+Ql0K6tNmdmR9RUBXK7PV8SciRueN8ipiTesyF/E9Gq58aabs746wEBzFszLxXdMnNZxC+ZkfY2Ac3SMWpZ1VJRXGD036+sE9GlbMC6nr2WDLFq+MuurBdSsGtWZdSj4KIxenfUVQ3VrWnBj1lHgb/7VzBZAVtYsvyrrANBpHrkm62uHqjR7ZmfWjV+vsHht1tcPVadjcUrT/ZPSWEdfGtI045ZK6S9zaBl7UdbXEVVj3eVZt/dQ5s/I+lqiKqyfl3VTD2nceVlfTwx5t44ZAi9m/cNmQtbXFEPa3CEXMt1a5jHeiaSsGpPrOZl6rbd1ZH1tMSQtGVXhncwujYuXZH19MeQUGypgHrNF58imrK8xhpYNG7Nu1Mm7fUTWVxlDSMeYrBt0OuaxLhphTJo5hD9m+uPTBkFcMcQ/Zvqb+vesrzcq3trJWTfjtM27PutrjopWXL4p6zacvsJIFqlBreOOrBtwNuavyvrKo0LV11ZNB8BAjaPY6gYK027PuulmaeP6rK8/Kk79zCE6z0yqdTHJBeFl1aKsG232VnRkfRdQSRq6sm6xedA+Muv7gIoxe3PWzTUvJi/N+l6gMtw5Neu2mh/LmMSJ8tpGVXkPQH8ti+l8RhkdVbAGwM8Wpj7D6a5C1m00fzZdnfVdQY41VfvgTLSWUUxGQ4ylt2TdPPNq7Nas7w3yafWsrNtmfm0jORoiNFTt9EyJ9ruzvj/InbbFWTfLvBvNXDT0s/WyrNtk/s2/J+u7hDwZXqFbmqWruSPr+4T8WF9VuTP0OqdlfaeQF1fkpgug/d4ti+aPGzd5zG2ju902ZvK4cfMX3Xdvbo6vi1w16FWb8U4Ardsuq5s5/v4Nq69fGXeIK69ffef942fWXXpvxqOvrTdkfbeQA/WXZNcCHxhz5d0bhtf7HO6cjjuXXzi5ObvYebAp6zuGrE0am0nTK8wfPXKaYV/yOXMbRs3L5kvslmFZ3zNka/Z9qTe6xkUPXhEoH9/E8x/ckv4zZxEr06ra9CnptrdN80ctDJwtedK02nmFdM/i9rVZ3zdkZ2Jzmm1tyqgNXp8vck0Tauen2ZsxiyU2VWvVvak1s84xyxP+eZ69oO6h1E5nW0fW9w7ZWJ3Wh/SsUeub0jihpmkXbEvplKbOzfruIQsTOlNpXvcunpbmEq65o65J5bQKZOCsQtPS2A+gc3SqEdOrOG1xGul0CkypqTp3Jp8OsHHyiIyWCTfdtbkx8dPr2pD1PUS6NiQ+nat5ZqabI02vTbxnsH1G1ncRaVqf8LtZ45gNmeeiKG6oS/iXYRPfNVVkQiHRxrTs4tlZn2Gf2TM7Ez3Rh27N+gyRllWJ9jU3j8xRTsq2hkR32VnGlmlVoiPJzqX5C5qyPr/+igvHJXi61zA3oCpMTG4AsHVMLjMdrZ+c3BybZuahVYHZyb2vjMtlyPS4dUxiYfPA9KxPDkm7Z0pSrWdsbkOmx7rLkzrv+8i+OcS1zU+o6czP/aDFtKTC5rIcdXwgvOKYZNrNlooYHR+R0DYidZmPSSFBFyTSaDpHNmV9YjLFhmQ622dmfWJIzt1JtJjGxYHXYiZpyagkZgm0NGR9XkjKiCRmMY6rsPG9jnlJ/HDcmfVpIRmrE5hwdlVFfMz0d1cCUzkLLEobktaGH9RsHFWRHUdJ7MV7zc1ZnxXCmxQ+WdOWXI/MuKxeFPxiLJqU9UkhtGLwV/muG5qyPim9+trgHQJj6HgeamaGbiOXdWR9SjbDg491Ppz1KSGsOwO/xbePrPjf1eLywCu+W0dkfUoIaWJn2PaxcUisvpob+DPvIdYJDCFtYb97WxZXZKdZxHUJ3I22ZYhcF3SrC9o0lg2h15A7wy7Iq8v6fBDKyKANY/KQSpo/O2yvIhunDxHrQs6eaa2t+B6A/oq1IV/R2s/L+nwQwvSQbyDLcr9sxt+IkInTt7Fv+hBQDLnV2aKJyR3osFXTFoyfecHoMWPHXbfotBvHzRsz+oKZ4/8+bVWCA+7Xrwh4iTYnd5xIy00BG0RdIr1DW6c9sn3ylrI/952LJm9/ZFoia4vbQu47ujzZ+4nk3Rpuukh78K/cptXLt4/zfHu8Ztz2u29tCn0kj4b77uuqsLUSGKgt3Arfhy4KemTDNszUb/vXsw1h2I+HaZ3BLtSiOWneYQS3OFhTaA74A7pm4YO3m3MqtUx58C7D/tADdTwQ7FJdmP59Rjh3Bkv3dV2w9MzDR44L9srYOL92Qqgu8KXBEvW0VuDKPJxxT7De5jFhugCK0x4MnhP33u3rwsRN22OhDukaUqFVrs2hWsHiIM1y7syE9owJtEVhMdj6ickZ33ioLQ/UBFofDXAwHaMS3UR21oUhphjfFOp1lvQ0FWptIVDM2FtA24JxyeUgP2PR8pXmA20I1PVcIC96ZZoc5v43LrAeyK2LC4lHTK/O7eakMPcHiprHsr770LgizN1vX2g8jmnzkn/I/GX+QuPXzV2Buvaslw0ZWBKmm8q4h/GchoTyJ8fbuNzW0zcjTHq4qRWUdxSn/S3IrS+ssxzDsIeT3HQt1rYbTLM7p4WJmgezbgHwNSPIO5Fp/+KVIxPd29Ols9bSJxBm7+vWaVm3AfhpCzIi0m5YPTNneSZPmTOW1Rpe0jYE+a65iowBlWVUiLveeJe6/vqGhMYx5bYtr1cf/p1BooYdOCrK6hAdp436DqARV2UcMb2m6DsxFoRYA91IVvQKUrw0wC1vPV9b/fCE9lvzN089TaAhRNRcnnVDgNz9AW54i3bJ2cqZSeybpNQ+StuRNj5ETwqDNRWjbVaA+12rrHxBolPM/M26WnkiIWZvNtMXUCkuDnC7L9FVPTs3b2Z/maebB1asC1A3SdErxNoAib1v0fU8LejMOEAiFXS5LuoD7CuwaXrWrQEij9vv9RTVHJDpgaaIhjdPtU/ZsABTgJRPbKRrvf0Ldqoqvdn9haxjI15BNVV7on1KQ2vF7hZXTYr2zHebVivqbQuXwyMRdZokHBPsb7rzh1ga3yHpfPNtbtV0lM5NfTazr9s1e+ossD+2zcuRkLS2e813WTP7oyHwrmJJaB+pODH7fKRm/WwepMO+rca4Ju9K1+SwoznKP/znPhdvMddKntqcazNPLZ7lv/3M9eE3GE/Iff49HFvNI8XbGOHMt4etd7jdv7fnosyWzfjr9F/ssNo8K2h81q0CLmvM7dc/88zykHtGJa7Rf3pQg7XOqTxq8uxa6/31XqNbH2ZZdYqeaPI9R/NGHDdl3S4Qb4l1T6+Nvr+Ja0JuGZWSzb7dAeatF5YluCMVjKwTc9t9hzK2BksanqYVvsnc51o/a5i3mVtLCsZ7O96zwuG5WKDpr7nD80St/Sudw7JuG4hxofHWjvWc8TEh09QZFlM9JwoVxxkrvDjrtoFowwq2G7vMcxr7hJC7Iqes4Jmbam2nsT6+avLJ+A7R4pl7Zl2YnHoZ8Y2aq431jc+6dSBKvXHW2RN+1QXKQ5mZTev8ztfY79zclHX7QATjGJxn7uFKj5lSqctvcsCSa2zVMdk5j7bYbqrfeoAZFTCruZxNfnljF9hqW5F1+8BgG2z39B9ela0uZN3iQ/BcbGdczE1q5/yxDc13eo33dVTQFE2XZR0+Zz29YKqMfThzZ65tiaFXNs21IfKq5UKzVy+7bQ/TllVZtxEMYJs3OdanqiX3Zd3Ww9nos3l50ZbTaXTWbQT9TTfNjmr3WZvVdmPWLT2kS32mqHaYVkG0+055Q7JsSTV9sgIU/5F1Ow+rzucyX2CqSpvpF4komr4yrvHJbhQi522u+DTlSabZds1kc8qTEaZm49ML8PcQW1DkilfGqrtNVRk2lkNwpiGEGz1+AFcPgUHNgTZ5rCIqmnKI+A2GIVGzLR+oLR5TF6fbs6rl0CyPL/R1lq799nuybik4q9bSZP4mr8e8rCSnLm+SXwNTijdNukIkomjZFLbLY/eWK7Nu3UnxWCM20dK5PyXrpoIzTNPOLpTXM2PIdQKc0eqxpa0p0fu6rNsKTrvNcBc3yd/np6cx46x16orNYy4ZPerC2tpRo0ZfMmbzoqlphOpUj8tg6QvxeBdGkpZaXhjk45pNATYGc2h9YPKVV6xbG5EtvP7mdfdfOLk52dgZJ+9CtIxwdpFhIx8sOc8L8qVnpt6GMkcx79oZZRfRT9pw8dhCcscgz7J0j2X93SNZtxb0suzidK24FnPurxiti0ZtEG9G0TShdlxCWXDb54ovhaU/5I6sWwt6TDSMHHSKk6TUJ7IzQOv8kd47uS5tmJdI3CwSh64lv1yrbqtphGVJQnODuJYkppxtHKmc9zt95JQEDkc+Cc1yMcZn3FzQw/AIeEg8U3N18B/3rks8kyj1t+5vwSf0yF/QJhX0tVyaZVtBn+GGt7MrpZXMCb3ubOq1Pqu/Ii29OHQXuPwFzdCBxvtZDhg6tdrF3xOBe86a7w6yY0vb8sDrrsVbYqw1PHjZdyN7hsxNl0jruDlokrN7Rwbb5Kh+uTEbWX+bxE+Bx/WVzE+7hWCg4fq71yJ+hw+5D23hhqD7grU9HDKgH5dWe6v+pbjFf99PhGXoyJknrcOYUq1fi6kLvlB+6eKAcwXEy8QM873lXZZIhmGTLmkDmXN7sDa5xdRjFme9MbnoOTZK+wIMa2XJtZmxDkMDltZh3jH6jPZrxd1TfuovDtYjLv1ML+p/rVquT6FhIJ5h3tlyYRVLC4Ha4wr5RBVvc0NNWHhIOhkvhSuPZOiT0W6SzrfdHqY1tiyek+SFqJ8Z6MtGur5oiX5wdUyybQJubfo7J+1vXhtmouayEUlfiw1hNjNsv1lYX526ik0JvaVCxPA5ep6wClu+2zOuS2Ec/OYwr2hPCKubpq/iouQvBmJtV9+3jcIaVgX5xH486NhMnLYgAd7YIaxuiroKjyXmCE7fGTxeWINxU5ZeraklYXk4xIfNbcLKblDXsCit64HBJqpvW7twvqRh5Puvuq5I74r8PcAXWKuwl0+/zLzFexERgnlE3TCkab8Nc6zOKKT6Bj+jYD9iaR+JfnZRQ5qXBP1sVt81YV/WRPsXzTKPpK8hrO40H3KjsAPt7+oapG+ACK5ePVexIBwzedAeMwmOaEZbbV9mc4Gspjb19X+oKe2rgtP0nZ7CF5DZ5i+E9GOmpmaVecCma6msJv3L64T0Lwt66ZeGCRNKmtPQdmYQMyH2nhamqV2oroCkzlnZrG7LsiHptk5j2+tKZFJzedOsT8hlsnGlOQVtBcykyUhR/fIu3DK1wdj0GhOfOhNnobUDQ7jPVZ22/KlZXZlqt0rdJIQraSxZCHtkOJvXtmOZOGeMfhoTyzezoX4QLGsSlb/a2PCEfVDJeMJ48LKPsfqCtvz7s7w4VewS7Q0Tjmyqy+9zS1OWF6femK79QVk16vFNYfkITD3xTPYrN8mWsWKbObGZzVZbeqdNsoS96tdA8bpZhLRVOzmxVZbbYryp0TVKlx4kZp2tM+BuUSXTtXPzWsVZtBHQXdrmcJ2s/OtMbS4HAxG23AaXySpRpx712HsNwVyovV2ykTtLuttSaazHNutJsW2r2ypLf5HwXUBY6iYhG3G81tLiCtI1w4laW7Ccg2yXp4u0xY/N+upUJe3QZqfsIWBIqCYeG0yaabRG9qmu7nTelvXFqUaztY3hH6Lib7W0t83Wk1uytmPChI611g0qi7dYzmKVqA710lb5xo0IRZ0rVrbro/pdvVu7fri7acLy7WP/2pO28YF5Fyxfrf8+Gm6ZhCbbiOQmbfHTwrYHCKhvlmys+wFDa5Nv5NnfqpGbC1HldU4eP1xZpGWe9u2iGs7TFs+WtenTZl4piH639fPaSqVmVeqZrcvnuwpdpNtqsM0yxNkhqUG9EvCJpFoGYmmTfMl6bfSZVkqlhYqzOW9y2aHI9sdWKwq+33AisrEm7Xwd9hFMXVGbW1P27mSYubXC/xNk2jzZoNC4df7XyZBB8BZRDdo3QNkjHwGptwsQ5YYZZpiCIt7i5Yy5HhE6tsO3dEMS0nbRVBd1BbkYy6oqC5R3qnFlkqWX/AftVs706uFqXCzekfq0O/TncrWk/GHaOYCZLdGrWjOVd0q2o5Ahv6tnT+qd23wraPbMo2bYx02Wf0S7pVRtGu0E59Au5JCtdNb3Ofl93jZpNshonen3NaCfedosKl/7CyNN2IhQtEuRRaMDa9XNrHSXz0nMVs6fu9wrravhXVO014F2eye6z9KmnXm2TlK4vp92is9DYK56P/NZsikufYr6gVrRcj3t+9+29FoLeqxR3qgW0XQu/QL78R7ncFFBXU3poXUeFekX1ogWJS9VFt6a6NZwGGSu8kbJ3tLVM5y7PNY4X21KTtbl0fekT+8v28VHm9FTOzcIOtplm5MlhasXUovz7fecgTE1WeOd8rrqtJW0iH4EtBufsngzXdoF/DMlhasXUgvXt/VYr98t9LRN8nzI6pVisn6NC5SFy9IQIJRRyvu0QFL4xdom1izuBpj7kLodn7VM3BtQVHehiyYdaRPQiX7BEMxjyvskWhegTuYlW4FSY86vdNpV4owu2meBLOfyBGXhDNSkSzlM0yKaRHOVtolJ9wgohtjJs9tj0sulThYqWlOzVVm4MOENAlEO04jybq/U9gPIVm3V2BYe9CP+KmhWVtAq+pUp6ArflnqzqWptyvxKopRn67VNWJq8eUKQbdZ7tEufbeot3US9DcrZZ62yHU8QxvXKJiDa63G5toEJZ1IWrbsRnONSYdeDev6+6FmmfdtULUaFkvYd/UJJ4dpf5YLwh9OW73YA4T7J6u0xt0tK364sPJN94qqWdrqTaMcYbd4jYeKm2QVl+ZGWCecgaE9qnqRw7ZTNVDeLr3pXKO+SaBRd23l2g+zYjTt4DCT8kNImDJ0iKVy796ZokRsCeVR5lzoEZRe1M7Vk0wFuDtYL0KdL9mGg3Qm7S1K4diYgUwLSpB2zlywVnq5tXrJPGnU/VhzZiGqb9qfgHkHh2oEa1m6mabvuJrVLyl6nbAHzRUc+27rx8iCbZPldtVlpJH3OReXIVqYbLFadx3U36RpJ2doVaE+Ijlyb28BB9i2lXZQsmq3XqSv7bxk1n+qknIx+n6TsWmXrEi2kLmqH5h1k6f21aXxFIancydGcKB4elMODl0vK1n50rJMUrv0ed7pVUvMMZeGigZr5urLJEpAm5e+1aM7ubcrWJfq0GK0s3En0aaDdmkQ0FXmzrmzxZD0EoJyv+YSkbOUwYEFSdlOAZTSDbZNUrc3jKxrdVH4wiQ4cgRR0N0nUO6vsZhJ9Waj3pXDrkNSt/O4QdQoq1wQuy6wBVSPlTKqbJGUrX/1E2Qe0nQxliPoglJ0nolco5XmJns4IRDmqLmpcyjco0QezaTu/eKJvNeXnlGgJknLymWi6AcIoKhuXZNpGk3KgTrKavsmcTSOa6DVHuSVGo6TsRxIsG2G0KRuXZNNl7ZSQRwVlq/cHKUcy/0y7XFSydlO7jXRTps2ougxT3iPJ6LZ26tkVgrL1uaHKkGxVoM0ZI1l7cL6ybNVGi1C5R3mPJBv7aReFSlYdBMsNMJDkvVM7f1/yFNPmWGdb9PRos/pLUrlOVJa9TlB2IkObPSTDm9qFe5KdA5IMSIShbdiSnf203x2S1TTzlGWXJcl9oJ1Hc72g7DuVZbODYHq0DVvy6q/dDF0yhf5SZdllSYbttdPeJGnKtQFJCvT0aFcKSp4G2rIl+5VrN9orS5J2T5uZqkNQtnYNks82O7DRPg3WCcq+VVm2ZKpxAusC+kjm8Gin8EgatjbDekeWrajKaF/PJN802qCRPMW0G7mUJdl2R/t6Jgka7TcNr2fpGa68R5Ju4SQDMkja8yiSzZe0+QInCsrWDkBJOhkQhrb3TLLbirY7W1K2eoe1ciRTkbVjKUsFZV+tLNtrw12YaBu2JM/WEmXZktkGygWO5d0iqFw7I0AyjUabh45xmvQkOdVljrJsyQzqhCY5y6Y5K5MEtEqyRWun0XhsUQoj7aRKyYRN7bIDybZedcrjLusJQeXKhWKi6fvaCZuijTwQhPZpIMroqFzgNlpQtHpfwnJGCiqv0xUtWnagzOneIt5uEXbKp8HDkrKV/cKSdETaV/+yJJPqlCs3Z0mumfLXgEVoaSrobpJopw1lF9ciQdHaMaCyJN3CyvNaIblm23VlkyMgTcqngeQVSvu1vklQdJt2Y8IyugSvOdq87qKEfspsNKKnGAJ5QHeTRGvp65QtVzLmEHAPtHONE1StHdsS/dBs1pUtGZNFKMo0S5LGpe1lEu1QdKGy7DIk2fe1EwIkvYI1l+nKFm2BikAu190kyXeHOumxZJc17RytMiTz3rS7lUlyH2i/l8Zm2YaqzhjdTZLMa1TvGiB5j1kZfKONHqLNPrW7Boh2K7tXV/bjWbahqqNcNyzq4tQuqBI9xjYrC7e3vSnKwiVPsaJyCGBxhk2o+mi/DSTTNrRTqBslqVW0syadJJO312g77iQrkrXTmkTfSwjkYeVdkiyvbNK+Qq0TFD6nU1m4w9QmQcXaZWKS3mz1olDJRAaEop3rJJm/r36REe0gmUBCGtFOG9rdnUV53bXPT9FcQASiTRkkSuY8WVm4aMuo1S3K0mO1dkjq1eb0kOS5UffMiXaoRyATlHdJNI9GO1DTOElS+mZl6bFE3QDDtBuxiz47tisLn5tdC6pC2lVoom29tO9+spc/7ft/nBZRy/u7tnjRG5RyBIDlNKnSpva/Q1K4el/MB0XHPk5bfDTR1CD9p5QknVvNdbqy21kZkCrljE3RZivaTNGysdOaCUFnbTaKUocVtymLbxkmKb4zyeuFUJSTz2QZt9VJYyQDgfrtoyOJdkRUdziXrpKUrt0Dl82d07U5yWatfUUXvp8NC5j+bNsaUZWXaMsX9TJoQ1L2ZolQtL/WDZLCtUOnpc45ooPXpqGIIOp7qGkraMsXDT8q90GTDTAhGO1OL6MkhWtnn8k2wKkJmGBD9mgzLLNeJyl+u7Jw0QRqBKPNTidahzhJ/akufOFYo9yefKCNwp3E1Ft8tIre/rSZqSSZDRDOauV9En3YqifSlBqFG67MDbJj7SZh0v2J2pHN0n2i8rUdJx0ZNJxqps2D2SjKtKVdeyKcctDtigD9zo2yDxr961OpdImk+GHKc2llx82UFZTNYJ2kcPWcgFJBNJWm26PqKs5oEWVx6zZMmcmtJJwPoP0EvDeDZlPdtCkqRN1B2lk60vJ7XKmvo48oiVuPWnUVLaIE5drORslOVAipTnmnRLPPaq5St7NZkqXHvbar6+glG9XsVq9ci1ySZovRDmuJ8twgIO3P5+2i0p/QN2b5GpGRhlUCLeLnjOFds7RdVIG2H4AlaGnT9jm3iiZTqScFdz9q5J+3Depercb7xZW0aaedlYRDp1u1sc9qmrRpt90UpSerWWLo3PL4AR3Rqatiqugk+ui/aEqNoh8YbUI1tkFLXb32V/oGUfHKye49OkVNrc9a1YLKyz02ENta0J+J7Etdu5B6EwsDUjdFea9EcwIsv8/yT/Ru9Rd6P9MaL/ZpbdsNJyJ7ZmrnA4hSXiGofyjvVaFJUrp2u9oeXcJpAX1W3+hX+qWSvdfPGm7ITtgi2Yugpl47CiQaOEVQ6qnIkjROtj1l/bKtFhuWyYt+aKTfS41lw0LRJhs167TFj0+lmeBc6rTIN4mKn2lobSV531avrTMLsnI7rxUtovuLdnPaXqKUVOpPmtK0NFoJ+tEuFxR+1Jj2X+r03bV4Uq3gaTP1BtmKs7/c02k5C9l0UG3KA9lCaoSlXf8o+6jRboHT5x/eZzNn4Rhnf2D7vAWyFW7nUi9B7SGbDlCvna9NgoAsqBeJiBKs2N7PZCtEB1j66OZCdGkPTV7u+V7WyzAXoNu1ojrUqXtY65wFdauWvasPN6XC7BIudRmg6byHx2zp99vdteWxGyboRjRsi3ZaZWOP6g2rZXcBYalHooVJUJS7e522UbRwJ1Jx4oyrz3+0tvaR8xdeZBg1XzPFdALCLkBtWqDSjIBNAVLqqS6t94jKN/U8lUp/y/r61NmO/wpRJdO1z+NW6cIjBKVeaC/74FijX7vVS9a1nRj1OFafh2TzTpdry5ctpEZo6kXJwm9Q/aLnXq3C1DTJGGFcTy3Mc7NZWz6LabKhTbdV2iTrvFWPdZ+pJsOk+LcaH5PCeRNt6r4G6VpthKUff9wgq0C7pPqMWb5jnMHc02w8dOFS5LvUFeh6F2FV7NTeMdmKRHsmzPkZ5VuZY+v56/Z3WUXqzQiWsS4gI9oty2S7VJpW158my0gQnDp18xmzhBfIY6ppf49lc2FQc5O6UQgHCdSTEc+SL+UPyLIYqI9spZ7h7YyMtFnRptkUr+XYak6E2ZLBXqwLzIkINwkn7TyuroFPmqzoP2oKwo8N+17M7evSvirTDOvOThP2N7epu+j4pMmO+qNGmt5/uDpfzF/tY3i616Sj03zIjaIlm/qd0PmkyZI+t6top+8a8wBnj+ZUO57v0ec5PEs68Kj/zWKUJjvD1XetSzj1KcCjprTCd+2YwUpDGp0zpA+aJer3wJa16V0RDKRfKSb9rauzN8LSPHGqWqumzQEOV/qgGa+uQba+DcnQ7/kqyxrR/YkQ4FFTeiKt6xHgbVL8oKnZoq6CfQOzpB8oEE6uCrTV3/h0LodxZnMf6YNmvb4K4TQmJGKNvnv1CWEV14fYtKwxlSVXdwbYKarULl33pn+qdbGbU6bGqu9cQfp5fmGAllh6KIWO5+GdIY70YmFtS/Q/JpOTvxZwUC+CkncFTNKmvelnY+JdaJMs+Q3PukZ6nPpuAFXWEYQzXf9GIu0KsATmOaQjQ1pF/aiJqkHfp66icWnClwJlGNa8rBNW0RTkJ7y0PNkLMTLIQW6Rzm/RbrTZ7fJkLwTKMszoFWfe2hCkPbZL++tUbrXPOOsh3vhGnXWOHdCyp97cqVRqFX+cmzJVnnVVgglYJgWYPdPtcfFlN2SFS3kyHgYzvDsJJ/N2fzkVgjTJBLM6aTce6U+eg9qwzE38LYnEqFM8lkpd4i9SdQ6P/hYkdRHMC7P7iHsBZhteBoUL3JAg/aRNabribkXVNn+DeO8mIDS9M8jh3SFe5XKlvhLZVlFIljoxaqk0VTw0vSrMd7Zsmw9vYXqb2zuk9a3s1NdyY+INAuVZJlyNF9di20TgLM/tnmSMCXTPkKckt1xy+s7yYKKhI+ca8aOm3poErU8SL2hrC0EObX6TtMJJ6iQ0pVIrS2lywfK9If/dG27NWdlH3KkrF6ZDfFOHuEJLtptxKTQIlGfZu2iqfEeMMLNpwk+LV28+2p98QpjlQVPKIDsPIgyzTN736AANNMQZeF78nDDDmh4bkxk6+Uub9Nv2ICh9+q3ujwz5MP3WbUGaZ+AtwCxN+C/3bhVXuOQhQz3ChHNInOkFxaMNbwixyKvUZdjdbLDhQfrCGz32Jzf1I4rntiFhRcsjoODRn2VPU9sjaILnMO+MHlli11pehptJEpgbph+/J+T1FIM00VbZ9tIi603b6Z7hMynOlLuD3WnzY7olZUyrx95LS9RbFp4rYLereU+NHpfKNrnqtdryitqY2YY9GGyzpc34LIqaaOluPWtEqPNeGOJotvk05cstNZGNNk/U26N7t+EA6cVLpY2BXu2bQjz4unzeFq82VcU26HlSnGW5l7f7ZMC8P0QXWqA1AiFWBLQKNz3rZRsUohsgX2z7GHlNIjSkYTlrSpDmUwyRvMDr3G3ZCFlJky+27Zc2ec0ivCBAU706xElfEeBArvSpcKJp/p10qyikxbb9ksckku4f+Dp7WxVnfXEdR4AHzeNex7HZVNfidFsEypprG7AQbvLUZ844e2u9y37Kto/yXn77Geg3cerRwpaBuXOL6Y5u88oUM8mwWvS0O+xnPN98ENd5TZ8cdo2psoRWrcLAsIFAD7/dH2bbpxabs6BNMB/CA35jjU/YamOrgPwp2sYsGv0a8XBzgmdzPidz1qapfiku1tv62u9LtzlAxLhSforfOpdbC8Ym2z7ddrprrbtNFfx+Jtqm2KpLJDsCjOpNA5yl0ii/6i6yTg2YaTtdQxalXl0eqwF66Ded69Wc2haK8GFMAd7qudbjauME42uaLCdbb3w/bPHqL6yp2WA820dSbgyQWWmcTDnLM9ey9bfe1OtsnarpNahZU7PEuGp1GZuf5ZR15a/nWtyiIXN+D68R1YE22+q+vMmvOsuK8h4Pp9wUILWkYLy1nq8sk6aYarOsLplt6wbYdo9fdbZhTa9MDEiZ9VGzzDOT3aqCqTpDsknbBNV2z7WjEzuNF5YVm/k1zJIopceNnn08fzfVtkV/prZBKel2o6fVW+ce8KDJM3Pmiws9KzStmC+pZ2PdaqrWd0LLdutVZU1AnpmSP/bw7Ym19SqJt/oYyJRJxDef9EJr8g6PNKbIgG2VVLeHPLdPMY1fqN/PplhO8Qq/ujoK1ms6PoOGALk5zdY7vMIjNUsP00h5h+4sDRuNeme3aDPP6G72vKJIm32vlif8Klz5gKEuZa+SpZdwmWdvs+2rrUdimyYikKJ9qct4vxotmXDm607SsleO58TJG8yXcwXpNHJvhvkuN3qu/BhrqEq1bP4ewyT96/ya8Ah77h3yNlUA2xLOHoUOrwpXGUbnVa8uhsxNLX5zm+fad7JiwWYlsLTh066SbzzRw9AXoNp6ok5fn99GbFvN3Sqlxo7MGgI8bDff6dI4r5kBWzvVFd2rOL+ifjCq3atDvd6Ug7aP72gxsrEkQL7lB71qNIwOKSYFrNbX5rcgwJYWq9dUJtBUiBC7Y3otmppUUNfjOQ2sh36xXZdXd3OIVKLynTyRrSZ7t7PX3mA1NReq61Hk13hMXZnX8/Mi+7ehb18dMnRegCTlncM9KpytThjQ7H926ulurT6nFGJTkVZzniqkx5iiq9eWNR4VXqKuxjspzUR1Vbd51GKfPdNte9btAB6WmNOSlfzenFapn20+O130ul99Qj5Lz+oCXMB76QWoKPqWdQ6fGSfq3lnvPtnt2pp85uzYVtedFmRrBKTHPi+gVCp4bF6u7rEb63tm6vD02ML55kKAyzcv6zYAT7atVE67tElc31ZtV8A1vmfWqayoUd7fXAwwqlna5LkyCdkzpg7s4zF1f7O2Ds+p+mu19Xj88NunNndbnnULgLdiiN3C2zvE9am3JfOcU63eHUH+hXa9aVu50y5niKYCdYTYh/kWcXUrtS3tJr/T0iZv6pL3oI8JcOG6fMaEkBvmfAE95LljtV0PT/idlXYlpfztbEOI6zY+67sPlSb7VmGlUrM4CbE2fZT8YdZL+9YpTgxbPyXAZePlrFIND9GDJm5s65QVeE6k0U6iWS+tIMQ8zQI9ZxXr7gD3X5zvvl4Zoo1ea3falFMPNklrabIvPCuVzs/6zkMvxCfteGll2o8ar09mbfYm8RiqYS31WZOzvu8wmB1gDto26W+0NrGSV5+zNveNOJnnFvsVm7o06/sOi7usKVVL8ncN7Xw3r3cZ7RundB6YJSHVaa13Zn3XYbPd3gik3VvaPcq9Bmq0wzRzheXfZr9epAWodPWWxHp9pJsvTVI+1bwa2XZdHa3C7ow2e4fjCrakrXgB+p2ls6iUH1BeK56VT4JZwuKtW56VSgWmAgwB9u6gy4U13aEr3msKvXL+sfQVU59/4AwyNw8J+qXIp3UJXzjqdMVf53Myys4taVLCTuu18st9hbyyL3cXfkUrMxNs9DkZ5dDjBbLS9fkHTlvB1udDhHmfVWH2rlG60qXfG72U300zZaVfbbxQvltiIb/uMqZ0WiyrRjm6ucznVJTdGsIZdKZtCRmhGVqutDUGYeb7m3Sld/mciTKDnzA/gLEf4OKs7zMCajLsIVMS53FRjta3eEyjb1OegfAF05YbYB7rAYaUJVdZWsMiWSXaKS4ee1JOUlYhnKpj6jKZMizru4ywVhUMzUG4C7N2JYrHELo2aIR51i2zNT23wkIFsHQGXCqrQpvEpUl+FmuUVYyXFX+d/ho10gkwBGmnOpbEHQHatQEenwIrlVUIe88Mn36e+UFQEYp16gYhTOStHKfxCRptR4BwnEY/eUK1DyJyb446E5qww7ZOV3q7xzkUlS+Zo2XFq7ME+u23iMqxVduFJtxmRdlhm8bgpnBSqDZ70+2qrd1RCTo6VU2i0CQr/nZdi3vA5xSu0dUh7P9bqRs7XcbsmSFsmirrpnQfceVTQDgK1GeKrg7p00z1sGwXp4dCJVqg+SZYKCt7uq49i5fr9LpRWYnw/elRRdGtwuuDSvWIf6O4V/iRe6eyPUsfZL0mKysR7ru7RJGRenzW9xRJ89+IWZr9SDlfszTK5/AfVFYi3eLdP1U0szSHvqLvWMRD0ilV2tTkI30OXztEK11R2eHbFSDszEZFq9/s1yrEyZw3Ktuz16r6BmUlK6QV1PmVO6Yp6/uJNMzxmixylXQB71bt5DafTZdrpikraZTutDy94FPsOJY3V4lJHl1QrRdJS12obM4lrxn1s7W1iOdT+swKuGxl1vcSaVkiXzcizEhRo8/lOdXv2AvKaq6UVuCxS+0WJgJUkdnSwfv58tcP7VqUy/wOXZsx9EZxDeI8JBtJdF5V1j4gahazhBlpawzZj57wO3JtH13rdHEVF8l60G6Xl4ghYbrkWbPpVnmB6gnCwkWVZ6g3KpOO1HS7X5KV+qq1Wd9DpG1t+bR7rfJdamtqLtU2ZuEU6jPWa+vx2dtTkL2H50w1urlc1DT6DKBM13Y4t3uuRFFORO4+HY8vkOJoYgZRbnZ/17T7PGf0i6nlH+in3aetyWfmQfECd1lTiJkqNds1ht/llSiiqN7e1XsLJO3ss9LtXtU4fwW2yDtIMMQsjR+vWbbOqyTtksdSaYTvQeu3kPE7pZHxL5w3Mj5TxSbFDeRt8VyLqN5GutE7w95s9TaidX4VzVgWU85l0ik5GJLWjItsFn/znFLVoU6qJp5I+RftxNBS4/V+FQ2PHq+dx3yzKjcnYj++xlrfUvSpjxSrUfxXBJ0hTEV1VlvUeT1O4pmqV1w8sFXcfp5vGdNVqQd6eY7S9NBOdC6Vury/3xsKA8u4gCzn6P7i7feR0DLaf+budnUznqpogk2d6ur8dyufvrlfAS3i1UUY2u4+Z7ywWbiY/lzDteONynWP2ulnpVK7ItfSuQ+bRuHuAxj6RpxJvtS4fY3i39VdZ6WSeLVOv8PV1+eVxOO0tWeTeRRmpHtfkGdzZ/U2ijs8Jmj+Zb26D7g0tUlTYf0ydYUtXstEz9jQNwth1qoUbwlyb/qKUule4XZhA9QbdkJSbiBedmZYvBtV3/HFhu44vY5pAOhn5W0zlcMPD+tbsKbvrMc6Q5VeuW/+suSCxxmeQSAd+u5m6V6eg03R19k1POsrhmpXVO/fURJvHzuYesVbt1sYaEG2rjU03071C89sw+OtdEPW1wzVbZp+iMYzH21/+qGaUqlxXdZXDdVs6yxD423p0Fc8V9/NXSpt25r1dUP1qh9naLqlsZaqlbuuna65Kesrh6r1hKXlSne/iKZf9daDrOXIiGWExi87TARLr516tAawuUK98qzXOlvtM0yVt16d9dVDNbra0nFmftBYHzWN7PmH1N1pGSopGb9oeujXovVFjVeGKsBuhDFmTF1nfUwdaKVS14asryGqS4Pt3azUqFqE0N9q2zcVK8qQqpGWscUevikuItl6vEullplZX0dUjTmG9Sx9lgXJtre103oci8ksg1SsnW9tq/rpzf09Yj6QS8nJjBRMm2puqisCzc4vardF+8syugOQtPqZxi6Abo3KBZuDTQhwMBfzioZEzTUkBDjr2nDHMzPA4WwMFsPAIHOuNY7O9FoR8KfdktXjrPbaOVlfWQxVG6YEaKGl9rkhj2lViDAuPeCz6RsgtXRsiOYZfLWxbar1WWPZ3hwJWGebInmmdQbOa1EMEssr6ERDMjZsMbfObfeEPijTkus+UxaQoQZJKS54wNY8k0hqsd7Y7zxreVPW1xVDWn2D6Yf90SSO6SbLEd07kq4zJK3tBv2UgL8lc0iPqw9o6k0km0Ua5jRcpWuilyXUQufcoTue5pGEDNJSXKiZ9dUcvBPgjKWaT637GphAg1RNm+fbSDs7kjuaVQXfo5m/kB4zpG51ndfSyS5zVgCX9Zt8jqV13vqsrx6q1PBRneJ22p7w1nsb5PNpCovZbgPZaVsgzEybfPIXaUqpRcv9t68GgppwSZcgZlKYEXm+4G2x6xLWASAPhi2fUi5mUklouaDcs+aBWvYLQG5MWOzacbk9pXSWd7m+awp1G+gvQ67MWTgmrskWLkrrIDYU4sJ2zEIGZZBDSxrmRX1WTE3xM6Ijaq5C6/yRrJZBbk2sXTEwj+CitWkewD0D80u1rKidmPVVAdyuXz7v3A/yx1Lu4G2r6/+MuTnr6wFILG2YfHqAvn1k6h/fxYdPx2xhTAOdZaggTRNmLmop3Z7JqMjcjaVS8+INrJNB5Vl7f0Yz79fcn+p3FAAAAAAAAAAAAAAAAAAAAAAAAAAAAAAAAAAAAAAAAAAAAAAAAAAAAAAAAAAAAAAAAAAAAAAAAAAAAAAAAAAAAAAAAAAAAAAAAAAAAAAAAAAAQGBP7sj6CIAKs3PXzqd2EziA3M5T3XY9/cyzWR8IUCl6g6bHc88/uSfrgwEqwdmg6fbPZ17I+nCA/Ds3aLq9uPelrI8IyLkBQXPq1MuvvJr1MQG5NihoTp3a99rrWR8VkGMRQdPtDTrTgDjRQUPYALHigubUm2+9nfWxAbkUGzSnTr2T9bEBuUTQAJ4IGsATQQN4ImgATwQN4ImgATwRNIAnggbwRNAAnggawBNBA3giaABPBA3giaABPBE0gCeCBvBE0ACeCBrAE0EDeCJoAE8EDeCJoAE8ETSAJ4IG8ETQAJ4IGsATQQN4ImgATwQN4ImgATwRNIAnggbwRNAAnggawBNBg6Hr3bf3P3ngvd2DvX/gwOv73/7XQV2x6qDZ88H+Zw8c2B3twIFn97/6UtaXbAja8eyHhz566+Odnxz+9JSnI4efe/Gzzw/tPqpsKf0ce/L4M5+/9fG/Dx/+wucYDh9++cs3vnrn6/e8DuIbR4nvxv3Tq8c/f/qT8ge08413vj1wzPPsNUFz8MlDn+0U3LRPvvv+h/f/FeAWocfRvV895xspUT798af/GA5jz7M/vVa+NZaz77v/+/BVYY3+QXPilX/7HMyb373z87vCg+nhHTQHf37riNcBvXhofyJtqLocPbTT56qX88uHyufN24f+Ge4odh4SRa9n0Ox577Nd/sdy5PNf90gvgmfQ/OsHzY/di9/4xDEGefKtcC31tOeOi9vIWXt+/jL0YbxxoHy1fkHz+sfaY/lut/CSeAXNuyePKI/n5b0h3qSr1Au/hG6qfe31A8/jOPBdEofx9JPl6vUJmqOfWY7l4xdEF8IjaA7ufdlwPF++nV2rq2gHD+1Loq12+0TwK/+X355XvPRIvPn5DnfN8qB56RXjMX7xteRhIw+aF4yP5k+/9X8fQM2xp5Npqr1N5L/y4zga8FtmoH+7P23EQfNsgO++N8pEcA9p0Bw86dW3GOlzXtG8/SfBtnrq1K7d0uN48nCSx3HY+YomDJqDh4I8Cr8r/9YqDBrrY6bPWwzdeDpq79x1+rTsB0WfA97DQgGPQxY0R0N9cf3zRLmrIQqaPV8Heq1+i2eNlxNBBmZcDos6fV8/kvhxOD7BRUHzYbhD/He5sUVJ0Oz4PtjxfM53jYffEumu6u9pwR15NeHnXY/njsVWLwial54PeSwvlnkjEgTNsyFfq7/NuiFWkD3hR2dUd+Td4KMzUf4X+xZSPmiCvZqd9pH7gpQNmj0/2XsAzvEpPc9i34ZtCTGOlP3wfSqV4zh1Mq7+skHz85HQx/Ke84KUC5rfXgt8OC/ygib0n4Q/vs8o87Na8/ub6RzHF0djDqBM0Ow5FP4AX/7NdUXKBM2J8G/V4l7Oamca2/bwhftRc9Br7qPFGzFH4A6a4D/rvZ5xXRJ30PyeQO/8v+lBE/k9ibYQ6ZDzOH5K7ThO/R59BM6g+U/QiaxnfXrMcUmcQfN1IhMnfs66OVYG9bxDb8+53phfssyd8vRL9CG4gubnpAZdXb8kjqD56PNkDue1rJtjRfg1ocYQ5VnHcexN8ThORQ9xuoImse+tw45uZ0fQJHU8Xwhm9yCRN/UYyl/V8L6KPIRv7AUr7M7JNTntm6wbZAXYEbSjv4wX44/j2VRbxqeRv6fZBM1b8Rcli6D5qgblpDNGc9qu+Hkj76TbNI5HHUM2QbMv/oUoi6D5Z9YtsgK8keodiX0V2ZP45Lf+Ir93swkaR4dVFkFzynfJYPV5N823M8eoxAspt4wjUZ/fGQVN/KBvJkHD+GY576V7Q2Lf30/K/n/f4XKOCI/kj4iDyCho4l+IMgmaH7Juk7n3Z7lLeOTL759655VXTpb1wyvvfPRGubGW5+KOwz0rYdfHz3zz5L92yFZJHdzxwdGfT35e5n0vqmn4Bc2b/3zt+Z/++/uB/dEOHNj9370n/+8NwfhO7AuRX9AcefqjH755/8DrEQfz5IGfd3/z7Z+vSV6CP8+6Teaee2Tzu72+L7gfuLMIvRnz0bvH2bQ+06RP2/O+c9L8jxH/Ig+aXU8f+kM4oLFn/zPl4ib2hUgeNEe+3/u2ZLLliZNl4+ZjxcWuKgedczX/1ExE2vGjq8iYhZNHXf/zjHLq7Q5XJ8fhiEKFQbPvs+N+I4C/Pe8einwl7h+FQfPJR+/Llyq/9EyZ6Tcv66529XB+fytfbl9yrYr5MPp/PnT8y/Pqs9vhetacGPz3oqD58lvFmPmHzob6Wdy/SYJm32sHPH/b3iszq53cgW6uxvqLdm2Fq3Ph6+h/eSb+Pz75za/2cx13HMn7g/+8fNB88fnruiP5wVVq7Jde+aB5+ZCih/h3d1IBaRbfavWK49r9ri30oOMdPuax4Vg6esivcvGRRCxFKxc0R/5Uj2HsceZhjHt2lQuap3frZvK7+ypliQyrl6PT6hP9Ij5HCHwf/R+O9yjlT3sfx1TgiE4id9B8csgyl/GAq+i4c3QHzRt/eB3BOQ46C1YXWyUcF+97famOd5HorpmD8a/8h00LcB2vnxHLA1xB889vja/6LzoKj/nSc92eXa8961W9/EwZ3XTb4/gkNGQm2e1oe5H/8B+vtu3BUXDEh4SrKRm+rPq4vmriulwcQfOU6WB+c/UF7LWe6tD2gePS/aov9vX4Uo9E/oPj3cXWOPYciS34zcG9tKpNnaRc07jjxhOT2z7QNZj8ta3ooc7Rui3z9k7El/pm5Jero7X+ZDtDR4LqwSOmiQbNHkdOt7ikBckFjeu5d9JW9FDneI/61PAtcdAxlhf5muO4hcYXbEf6ycFf34kGTc3/4gv/LuZfkgua9x2nyuQzJ8cS4+8s5Tp+VCMfYI60lcIc0HEcc+veG/THyQbN/8UXHjcIn1zQuKZgWDr5q4DjF/4NS7mOOQGROce+iv/7E7YzdKS4GbyuN9mgcSz32xUz3JJc0PzmONVXbEUPdY5feEOPs/MzM7Kj9Mf4vzf2WjleQAe/uicbNK6RmmPR/5Jc0OxxvEH/aT7VIe2rhG6Ko9zIkbP4J9M+Y55UR0sd3DaSDRpH9/epmBzKyQVNzafJFT3E/Rh/5Uwvto6kzO9F/X38dPXDxjPcH38kg/t5kw2aHY7SY/ZXTDBoHJ+d/2c+1SHNMUpt2nXB8doX2RsW/7NnTfPg6P0ePLc42aBx/bjHTAlIMGgcE5cIGifHlfvQUu4zfuW+G//nXxrP0PHz/vSgP044aBzLv2JGoxIMGkfibILG6Uj8lTPl9HXMoo0Kmlfj/9w2i8b5wTv4IZZw0Die6zEJRwia/HnJ0UjUCwN6OHpXoxKOOZbCmXq+e8S/E30y6G8TDpofvdspQZM/rk9T06Cio/VFZT19Mv7PP/Oue4D4FTWDp8ElHDSOBMAxk88Imvxxzdfcbyn4v/Hl7o34c0e/sDmJfXx+nF2DerMTDhrH4p6YUTGCJn9cIwdHLQU7ZjZF9co51kebxlh7OPo6Bk1zTjho3okvPeaBStDkz9uORmJaKO7YviOqn8jxYDIn4XK0u0ELMRMOGsfa8pj+DoImf1xLPI4lVHDUYg1H/oty+3SW5ZgGN2juaMJB45jpF7OdAkGTP679nNLc28cx2dq2Bq3GuaDmxMC/TThoHJNHd0b/B0GTP67dNtNMfuVoTfqkZ6c5UogOmvCVcNA4fhtikjgRNPnzs6ORpLnLr+O9xTxN3RE0gyZcJxw0juJjptgRNPnjShVonF3sxTHr5hlr2Y58Y4OyICQcNI7L/Wn0fxA0+eNoJPvSPA7H8krzKkLHIuNBkx4SDhpHJ2HMg52gyR/HbJdP7aXLORYCm5M8OJKgD5pel3DQOBbExay1I2jy5+v4C3fEXrrcR/HHYU4n9GN82YNWKSQcNK4c18ci/4OgyR/HZGTr4i8vjvklpmU9PXIUNK4MMNE7+BI0+ePotUp1kxJH0Dz3opEjBfqgVQoJB40rSUB0ljmCJn8cQfOcvXQ5R0qBJKUdNK6x5OhZSwRN/hwiaPpJOGgcKyBiMlURNPmTl6BxpMFM0qD1cAkHjSsJ8InI/yBo8scRNNaEFl4cq7OSNGg9XIZBE70VL0GTP46R+GoImr0DjyPDoIlevkTQ5I9jgUeqQePYOW0oBY1rJUZ0tkCCJn+qPGgGjQFlGDTR+1wSNPnjmPOVatC4dhgaQkHjyPYZk5KBoMkfR9D8O83j+DGboBm08jrhoHFkqorOC0/Q5JAjeyxBk27QRO/vTNDkzzvxF26nvXQ5x0zkJA2aDJph0ESnmSNo8scxJZ+gCR80ruQ/0dsCEzT5Q9D0R9AQNGW9Q9D0w+sZQVNWlXcE5Clo6AioFARNf3Q5EzRl5WWcJqPBzbSDhsHNoaDKp9GkHTRMoxkKqjxo0l4awITNoaC6lwbsSjstrStoWBpQKao6aF4evOkH62kImrIqYLnz1zsSEhUErNwkaMqqgKD5yV66HIk1CJqyKiCFkznDpg9SOBE0ZVVAskBzLmcfJAskaMpypKX9JM3jcATND2keR8JB49pDi7S0lSIvuZwdCdDNW234IAE6QVOWY9u+VLfaeKo6gsa18Vz0FqcETf44NoFMdVMnx8RR805oPtjUiaApy7Gf3ZtpHodjkPXPNI8ju+0DY36jCJr8cW3NlZONas27O/tIOGiOx5fORrUVw7XLkK2R/PR9rIi/duzI9lSa14Mt0Qmasv5wNJLfTCXHzyb7IuKvHXt/fp7m9Ug4aBz9LjHLlwia/HFNhjpmKjl+sn9Ut5yjsX7vXbVBwkHjeAv9Mvo/CJr8ca2//cBUcvxazKgdcB1fyJ+leT0SDhpHf8cv0f9B0OTPfxyN5D+mkuPzy0R98joGMP6X5vVIOGjeiS/9x+j/IGjy51VHI3nBVPL/YsuNmp/jmF/ydJrXI+GgcUx8eC36Pwia/DnmaCRPmkr+JbbcqJmgjjnzX3pXbZBw0DhWQMT0dxA0+fOuo5H8bir5aa+gcawDTnUFacJB40i6E9OzTtDk0KfxV+5nU8EvxpYbNSJxIv4wzBNHHXmT0t41IP6XJG7iA0GTQ8/FX7kPTQV/GVtu1KPjt/jD2LXHeIqOsai9A/824aD5Z3zpMWvtCJocim/bg1uUl+9iy40cxvsi/jhsg6zO+fiDfhcSDpoj8aUfj/4PgiaHHJnHbau/4m9J5Jf9y/HH8apv1QM4xoB2D/zbZING8QVJ0OSQY3G+babkJ7HlRg7jOZ54tq5v5xSd9wf+bbJB4/hyiztLgiaH3om/cl+ZCo5/34oc4nc88Q4YT9GxOvWPgX+bbNC4ktHEzL8gaHLIkcPpR0u5L8WXGzmZzDGCcdy37gEcc1cGbW+RbNA4Sn8zZiEGQZNDjncX06iiY9T0o6i/d2zJZs2s8U580YPeiZINGsceDXEd6wRNDjkW4JoGSBwzQSO/lRxPPOsddKS8HfROlGzQOMY24/adI2hyyJW+7pihXMdksshF/44n3lvGU3SMKA6Kg2SDxjEoFjctlaDJIVeHzuuGch0LeyNftxxLSK27S8U31cErexINGteU8rheF4Imhw7ui790li9wx9f3N1F/fzT+73e9lNQZDp7Q4wqaZxWV9+N4msbm3CFo8sgxs+MjQ7GOXZrej/r7d9+M/4f9vpX380F8wd8N+mNX0Lz5mu1AnBuLfhPzPwRNHjkGSCzzix2xGD2M55gSYNs3wPF1NXiY1RU03T5+z3AgR3c5Sv415p8ImjxypOkzjMW7PpWikxY7gtc0YORalz94xKhM0Jw69fTP6vmjX7nKjVtbTtDkkSOrkGFOgGMUfl90q3ME7xf/8qy9n/g1CqdeGfTHZYPm1Kmdx3XfWD87XkDju/cJmjxy5aPZ9Z6y0N8cnasxCb5cwWtJsulKUrV30F8LgubUqU/+POp/HC8ccRUZmwiBoMmj31xv2kd2q8p8ybVZc8yaf9cerrve96v/HB84Pq4iZhaLgqbnJL72nHv9oTNm4gOAoMklx/ziU6fe/Nz/u+bd/+50FRnTJ3fQsYb01Bd7lV8Sv77sOpTBDwxp0HRfmRefOSAduXnp51/KlBbbu0/Q5JJjl4tez73x1Nd7d+/+/YDA7t0/Pf/ZEXd5cX1h7nb15U/PHvM8sT1Hj//PWWbEAJA8aHrs++7zr3e//sGOmI+cgzs+OPH2H8ef+fFI2ZJi02URNLnkWKOViD9ijuOZsv955LsXX/zfGzIff/nPsk118DCNZ9AEE79VI0GTS8dcHzUJ2BFzHL/ai/YU8aKYUdDEp94laPLJMaExAbGbRh88nOpxnIpMgpBR0MRPWCJo8skx+peA+B/Vr+yF+4mYFZNN0OyKH4giaPLp1VTfz+J/VN+3F+7lcMRiyWyC5uP4m0PQ5JS7jymsXcdiD+Pgy/bifUT1fWcTNHvj7w1Bk1OuPQRDc/youlZvJiFqxDSToPl0R/w1IWhy6qBr1Dywk47j2HEkvePofjuLGl1xBc3HSR2JawkGQZNX6f2+uude/mmvQO4d3yvx2yvJHMibrplsBE1eHXROpQnJPW96xyf2GqT2RU4ecy93/u+RJI7EuakoQZNbv7qmrQe0q8z04L32KqSi34nK5Ag4ulNcvtinzqmfBE1+uZaiBVRue/M9P6ZzHN1N9UTkAZRLrPHba+IapNzrUgma/HopPsl/QM+V3QDgg7Re0GKaatlsNHt+CDyq9Yt7/jZBk2MnUmitbwr2VnvyC3s9hqYqSOH063PiWgReLrOHNkGTZ3+41rOEIdqG4Hgan1efxH1HSPKeHftMXE9ZR8rlhSJocu09Rwa0IN46KDqOb+01lfNpbBpEUbLAPT+Fehx++ke5q0HQ5Nt7yT5rPpbmo/gp6blw++JXTwszbO4P00d/uPwG2gRNzj2b5OSvX3aIj+PnZKP3C0fiA2la2oOHAjyXnxPk5yBo8u6DgG/rA3zvk/fohRftFcY6/KujZnku57fNy5BeOya4FARN/h1PZiXYEc+00Ad/SOxh8z/nWKJHAvSD35o6HA/LLglBUwF+Oxn+HW3fUx94H8e/XjkS/Di6vVwmrY3XrgHvnlQf45FXhG+rBE1FeOn4j0H70Q4//x/Vcez49uPQvc87fyqXdMlzq40P/lQ9bXaePCa9CgRNpTj2zeeOK+rjuY92GzbKePXb78M993Y+/2v55Gne+9O89OEvfqG97+lXfPbsIGgqyb9+//adH797WfvQefPlL996ZrfuGdPPife+fup/Oz8xPHT2vfzl9z/8LHtD1GzqdGz3UztFl+nw05+ffL/sTKL+CJpKtOPE0f37n5RkCjzj1/37T3wgG8iU23PsxAv79//hcxzdntz/wol/+STn1O6EdvDEH8f3njz5SoRnTp78ae/x918/4RkufV6PPzlFQum0ikY1SXbPTWAIImgATwQN4ImgATwRNIAnggbwRNAAnggawBNBA3giaABPBA3giaABPBE0gCeCBvBE0ACeCBrAE0EDeCJoAE8EDeCJoAE8ETSAJ4IG8ETQAJ4IGsATQQN4ImgATwQN4ImgATwRNIAnggbw9Psb8Qy7UwEAAAAAAAAAAAAAAAAAAAAAAAAAAAAAAAAAAAAAAAAAAAAAAAAAAAAAAAAAAAAAAAAAAAAAAAAAAAAAAAAAAAAAAAAAAAAAAAAAAAAAAAAAAAAAAAAAAAAAAAAAAAAAAAAAAAAAAAAAAAAAAAAAAAAAAAAAAAAAAAAAAAAAAAAAAAAAAAAAAAAAAAAAAAAAAAAAAAAAAAAAAAAAAAAAAAAAAAAAAAAAAAAAHP4fEKvmQpClRMUAAAAASUVORK5CYII=;" vertex="1" parent="1">
          <mxGeometry x="327.65" y="430" width="72.35" height="90" as="geometry" />
        </mxCell>
        <mxCell id="XKejNxqJNqAKCkhe8Pqw-46" value="" style="shape=image;verticalLabelPosition=bottom;labelBackgroundColor=default;verticalAlign=top;aspect=fixed;imageAspect=0;image=data:image/png,iVBORw0KGgoAAAANSUhEUgAAAgAAAAIACAMAAADDpiTIAAADAFBMVEUAAAAA/wCAgIBVqlVAv0BmmTNVqlVJtklAn0BVqjlNs01GokZVqkBOsTtJpElVqkRQr0BLpTxVqkdRrkNNpkBVqj1RrkZOpkNKqkBSrT1Op0VMqkJSrUBPpz5NqkRSrUJQp0BNqj5TrURQqEJOqkBMrD5RqENOqkFNrEBRqD5PqkNNrEFRqEBPqj5OrENRqEFQqkBOrD5NqEJQqkFOrEBNqENQqkJPrEFNqEBRqkNPq0JOqUFRqkBPq0NOqUJRqkFQq0BOqUNNqkJQq0FPqUBOqkNQq0JPqUFOqkBQq0JPqUFOqkFRq0BPqUJOqkFNq0FQqUBPqkJOq0FQqUFPqkBOq0JQqUFPqkBOq0BQqUJPqkFOq0BOqUBQqkJPq0FOqUBQqkBPq0JOqUFQqkBPq0BOqUJQqkFPq0BOqUJQqkJPq0FPqUBOqkJQq0JPqUFOqkBQq0JPqUFOqkFQq0BPqUJOqkFQq0FPqUBPqkJOq0FPqUFPqkBOq0JQqUFPqkFOq0BQqUJPqkFOq0FQqUBPqkJPq0FQqUFPqkBPq0JOqUFPqkFPq0BOqUJQqkFPq0FOqUBQqkJPq0FPqUFQqkBPq0FPqUFOqkFPq0BPqUFOqkFPq0FPqUJOqkFQq0FPqUFPqkJQq0FPqUFPqkFOq0JPqUFPqkFOq0FPqUJPqkFOq0FQqkFPqkJPqkFQqkFPqkBPqkJQqkFPqkFPqkBOqkJPqkFPqkFOqkBPqkFPqkFPqkFQqkBPqkFPqkFQqkFPqkBPqkFOqkFPqkFPqkBOqkFPqkFPqkFPqkBPqkFPqkFPqkFQqkBPqkFPqkFQqkFPqkJPqkFOqkFPqkFPqkJPqkFPqkFPqkFPqkJPqkFPqkFPqkFQqkJPqkFPqkFOqkFPqkFPqkFPqkFPqkFPqkFPqkFPqkFPqkFPqkFPqkFPqkFPqkFOqkFPqkFPqkFPqkFPqkFPqkFPqkFPqkFPqkFPqkFPqkFPqkFPqkFPqkFPqkFPqkFPqkFPqkFPqkFPqkFPqkFPqkHLwE+LAAAA/3RSTlMAAQIDBAUGBwgJCgsMDQ4PEBESExQVFhcYGRobHB0eHyAhIiMkJSYnKCkqKywtLi8wMTIzNDU2Nzg5Ojs8PT4/QEFCQ0RFRkdISUpLTE1OT1BRUlNUVVZXWFlaW1xdXl9gYWJjZGVmZ2hpamtsbW5vcHFyc3R1dnd4eXp7fH1+f4CBgoOEhYaHiImKi4yNjo+QkZKTlJWWl5iZmpucnZ6foKGio6SlpqeoqaqrrK2ur7CxsrO0tba3uLm6u7y9vr/AwcLDxMXGx8jJysvMzc7P0NHS09TV1tfY2drb3N3e3+Dh4uPk5ebn6Onq6+zt7u/w8fLz9PX29/j5+vv8/f7rCNk1AAAACXBIWXMAAAsTAAALEwEAmpwYAAAgAElEQVR4nO2deYBO1fvA35kxw9j3EvoNkhJlX8pWTSmEfBNfirIrWyQqhdahaF+0iGihCEVliW8qKWUJJaZBRci+jRnznt8s773nufeec+99Z+be533vfT5/Mefce895nue99yzP85xAgCAIgiAIgiAIgiAIgiAIgiAIwrMkYTeAwOWLYtgtIDCJOdcbuwkEJpXYGuwmEJjUZ8F62G0gELmDsY+w20AgMoOxYEPsRhB47GCMfYbdCAKN5iyHltjNILB4K9cAVmI3g0DiotO5BsCuxW4IgcObefpn32I3hEChQWbIAFgH7KYQCBTdrOif/RSD3RjCfV5gnG7YjSFcpy/QP9sai90cwmXanIMGwGhT0Gc0PKLRP9tZBLtFhJvo9c/YAOwmES5y9VG9/tme4tiNIlzjhlMG/TM2GbtVhFt0OSvQPztbA7tdhDsMPC/SP2Nf0GqQLxgZFOufsWHYTSOcJ2aqTP2Mnbkcu3WE08S+Ltc/Y9tLYbePcJbYt830z9giGgZ4mrg55vpnbBJ2EwkHsdY/C/bDbiThGPELLPXPWMZN2M0kHCL+Exv6Z+x0O+yGEo6QYE//jJ1qhd1UwgFs65+xY42xG0sUOgmLbOufsUNXYDeXKGSKfhqG/hnbVxu7wUShkrA4LP0z9mct7CYThUjY+mdsb03sRhOFRsKSsPXP2J4k7GYThUT85/nQP2O7qmI3nCgcnsuX/hn7tRJ2y4nCoLPU/8OKTWWx204UnEuO5Vf/jK2mHIJRT7Gf8q9/xpZQtEi0M6Mg+mdsFjmIRDc9C6Z/xp7A7gFREOqcKKgBsHuw+0DknxLbCqx/dr4zdi+IfDO74Ppn7HQz7G4Q+WRwYeifsX0XY3eEyBdXnikcA2AbS2B3hcgHpX4rJP0ztoAmg9FHzMeFpn+KFohGRhei/lmwJ3Z3iDBpmVGYBsBOX4XdISIsyqcVqv4Z210Bu0tEGMQuK2T9M/YpJRKMIiYUuv4Zm4DdKcI27SQ5YApEFgUNRgtV9jugf8YOVcPuGGGL2BWO6J+xr+Owu0bY4SmH9E/rQdFBhyzHDCDrOuzOEZZUP+SY/hn7qyJ29wgL4tY5qH/GFmP3j7Dgbkf1z1h/7A4SphTb47ABnLoEu4uEGeMc1j9j39BcMIIpd9hxA2D3Y3eSkPOs8/pn6ZQ/JmJJSnfBANh6+ghEKnPd0D9j92H3kxBzlXNrgBpOUwKhyGS5O/pn7CvyEo5EbnBL/7QcFJHEFigTQHgcpuwxkccd7umfsbewe0voSUh10wCCV2P3l9BRqIEg1myh5DGRRdl/3TUANhK7x4SGFJf1z45Vxu4yAah62m0DYK9j95kAvOO6/tn5K7E7TajUdyISxIpV2L0mVJYi6J8xSh8VKbRD0T/bEY/dcSKXGGc9geUMwe45kUsPJP2zfcWxu05kE78TywDYeOy+E9mMQNM/O1oeu/NEoNQ/eAbAUrB7TwSeQNQ/O30Bdvd9T5VTmAbAnsHuv+95GFX/7BTtCSHzK64BsCnYAvA5LZD1T68AZF7DNgD2FLYIfE2C245ARo6XwRaCn+mOrf5sxmILwc98hq39bP5KwJaCf6lcuDnB80k/bDH4l/uwdZ/Lb5RHGouN2LrPoxO2HPxKPWzNh/gSWxB+ZTq25hXqYUvCnxRxJit4PngFWxT+pBO23lVO0mIQBvOx9c4ZhS0LP1LuLLbaOTsoaYz7DMHWOqQttjR8CFY0gJC52NLwH7WD2EqHpNNJAm6D6gxqhBJGuEys04nhw2QrtkD8xnXYGtfTDFsiPmM2tsL1vIQtEX9R4iS2wvX8S34hbtIXW99GKF+Em6zCVreRj7Bl4icudikzfDikl8OWio94GlvbIsg30DXiXDgcKny+wBaLf2iFrWshmZRE3i2exNa1mIHYcvENP2OrWswKbLn4hSoRtRHIoW+ASzh9QnS+GYwtGZ8wD1vRMlZiS8YfxBzAVrSM85Qtwg2uwNaznEHYsvEF92CrWQ7NA9wgYocA2fOACtjC8QN/Y6vZhDuxheMD6mAr2Yz52NLxAYOwlWzGiaLY4vE+s7CVbEp7bPF4n+3YOjblZWzxeJ4yEegMBEjDlo/nScZWsQWXYAvI6yCnB7fkHmwBeZ1F2Bq24BNsAXmdfdgatuA4HSzvKBdiK9iSq7FF5G3aY+vXkgexReRtxmLr15Jl2CLyNnOw9WvJCRoEOMlmbP1a0xhbRl4m/hy2eq0ZjS0kL3MltnZtQGHCDoJ2UngY7MYWkpd5FFu7dqDzZJ3jPWzl2qEjtpQ8zAZs5dphEraUvEvMCWzl2uEzbDF5l6rYurXFHmwxeZeISw8pJFgWW06eJaI9gjnXYMvJs0RoahA9FCbuFFExC6S0sc7xLbZq7bEKW06eJZLDAgG7seXkVYpGdkyAShYFiDnDpdiatcul2JLyKJEeFKJyM7akPEofbMXaZRi2pDzKQ9iKtUsKtqQ8ykvYirXLbGxJeZQF2Iq1y3JsSXmUiDos1IxfsCXlUSLsrEA5/2JLypvERIFPeB5BOkLMCcpi69U+5BfqBJdgq9U+dbBl5UlaYqvVPs2xZeVJbsFWq30oW5wT9MNWq316YMvKkzyArVb7kFOYE6Rgq9U+D2DLypO8gq1W+0zClpUnmYmtVvvQdqATfIitVvu8gC0rT7IYW632mYEtK0+yAlut9iGHACf4Clut9qGTQ5xgObZa7fMptqw8yTJstdqHskU6wRJstdqHDMAJosYlkAzAGaJoHeBzbFl5krew1WofegM4wXRstdqHDMAJJmGr1T5kAE4wBlut9qF1ACcYiK1W+9BKoBNEQ6boEO9iy8qT3IytVvvQbqATtMJWq33IH8AJouG0iBBTsGXlSZKw1WqfSdiy8iTlsNVqn7HYsvIkMRnYerVNP2xZeZMoyROZTVdsUXmTTdh6tU0bbFF5k+jxCauHLSpvMhdbr7a5CFtU3uQ5bL3aphi2qLzJg9h6tctJbEl5lLuwFWuX37Al5VFaYyvWLiuwJeVRqmAr1i7vYEvKq0TFuZHZPIEtKK+yEVuzNhmKLSiv8hG2Zm1yC7agvMrT2Jq1SQNsQXmV/tiatUewBLagvEpzbNXaYy+2nDxLYia2bm2xEltO3uUXbN3a4lVsMXmX2di6tcUobDF5l1HYurVFB2wxeZc22Lq1RU1sMXmX0tFwevCxGGwxeZjfsLVrgzXYQvIy0ZAlZDq2kLxMNBwffCe2kLxMdWzt2qA+tpA8zW5s9VqSHo8tI08zC1u/lnyDLSJvE/knR9E6oKPUwtavJbWxReRx0rAVbMFubAF5nVexNWzBm9gC8jqRfn5oT2wBeZ3EM9gqNiVIB4c7zRfYOjZlI7Z4vM8IbB2b8gy2eLzPJdg6NuUmbPH4gEh2DDxHHuHO8yi2lk1YjS0cP1AXW8smPIwtHF+wDVvNchphy8YXRO7RIQdjsWXjC+ph61kKnRnsDtuxFS2jF7ZkfMJ4bEVLOF8RWzI+oep5bFWLoahQt/gSW9VihmDLxTf0wla1kPO0E+gWiUexlS3iK2yx+Ig3sZUt4h5sqfiIZtjKFpBOcwAX+QFb3Ubex5aJr4jAxNHXY8vEVxQ9iK1vPWm0D+AqU7EVrucRbIn4jJoRliwkszq2RPzGEmyVa1mALQ/fEWHHR7TDlof/+BZb55BtlBnKdbpiKx0yGFsaPiQmgnwDj5I7OAIDsNXOmYotC19SNGJOk06no0JRGI6teIU3sCXhU4ruxdZ8HlmXYkvCrwzFVn0eH2HLwbfE/4Gt+1xaYMvBvwzE1n0O5AyMR/wubO1ncyO2FPxMD2ztM7aJVoERifkGW//sdmwZ+JsWQWT9p8Zhi8DnfIxsAP2wBeB3aqaj6v+3ItgC8D3PoxpAN+zuE6X3Ier/B5oC4IN5kBAFA0QAMavR9P8ldt+JHK7IQNJ/sDl214lcpiMZwDzsjhN5lP4TRf/pdDxMpNABxQAmY3ebUHkPQf+7i2P3mlCp8I/7BtARu9MEwP194Y+xu0xoWOiy/k8nYfeY0FDlkLsGMBa7w4SOLq7qfyudER1xvO2i/jNpDTDyKPG7ewYwCbuzhICmru0JbKAPQEQy2SX9n66D3VNCSOxKdwyAksJGKhe44h20nNyAIpZrXThL4kg17F4Scpw/Uiz4H+w+EibELnfaAOh86MimssNZI9ZQIECE0+C0k/rfXwW7f4QVvR3Uf0Yr7N4R1kxzzgBoBSAaiFvmlP7nYneNsEX5nc7ofyN5AUYJtRw5UORvOhMgamjtQND4iQbYvSLs06PQM4dktMfuExEOEwvbAIZi94gIi5hZhav/J7A7RIRJXKE6is+mLeCoI/HrwtP/J7QDEIWU2VhY+l9ZFLsvRH64qJCSSX9fErsnRP6oXSgxo1vKYfeDyC/1CyFg7NcLsXtB5J+rDhdU/zvoQKCopuGRgun/d9J/lNPyRIH0XxW7/URBaXuKfv/+ptVx+v37myb5HAnuJP17hIb5mg2mJWG3mygs6uYjaHB3EnaricKjbtgHDe8iBzBPkbQjPP1voxBQj1H+u3D0v74idnuJwqZkGHGjn5IDuAdJmG1T/cEpdBacNxmZZUf/Z/tgt5Nwit424gX+aIjdSsI52vxrpf/PyP3D09Tcbv75T4nFbiHhLKWWmuj/Xwr/8T7xM6T6X0+rf77gPkkyubRE7JYR7tD+mNAAbsduF+EW9XcL9P8dhX/5h6qZxgkAnQHgJ9YaDIASAPmK8Xr9n7kYu0mEm1ypN4APsFtEuIt+GNgLu0GEu7yu1X8mbQH4jM5aA1iD3R7CZUqc1RjAG9jtIdxmtcYAKAmU73hBYwDDsJtDuM0AjQHcht0cwm1aaAygNXZzCLcpqckmWxu7OYTraHKIlcZuDeE6i4H+z2A3hnCfJ4EBpGE3hnCfnsAA1mE3hnCfesAAFmE3hnCf+HPcAGZgN4ZAYAs3gMnYbSEQeI8bwL3YbSEQmMINgI4E9yNjuQFcg90WAoG7uAFcgt0WAoFO3AAoJbwfaU4G4G9qcQOogt0WAoHS3AAoK7gv4RmDKC20L/mbDMDfbFINgBLD+pKVqgFQbhhf8oFqABQa7EteUg3g/7CbQmDwHBmAv3lRNYBa2E0hMHhFNYDG2E0hMHhNNYBk7KYQGPA3AKUI9CXPqwYwGLspBAZTVQMYj90UAoPHVAOYgt0UAoMr1HOl38RuCoHCTXtDBvAxdksIHGJbvXAgxwBWYTeEQCO+8+JMthG7FQQmVR5c6dStSw8eN+6+QYP6dO/eMTm5ZWOVJsnZ3NC9++2DQvS/tW19224pDfsP6tu9W3JyU37Dxq2SVTp079690/WNLyvqVK8I28xl4XDi+zdHNbM+tqquMdm9kPO7lj5q43aEc9S3dVSllkPv3VnB/K4LwrndwbcbuNNXQsAn4es/h7OzmprctEa4VrWqg2sdJjQ0CVprR8IPPaXv7gnh3+1Lin1DIWn0OxvO5NcEfpJtUdZ4aPb6o2He7DhlwsQirs5tk1fqD6rLeGtQ57YNa2ZTq3mHPg++v+WcSGtzKspvW7nNiKUZ2uoLs6cbdwwYNm7aol+MZyQHKRkuJpWmaD8GPfUV4ts+vdH4vThgfpLp5btgZZjmJrH9tF26ewXpUHRURkFlpMeJqtSYYjjaOmui6Vl2jaDNdNWWxd7yg/ZeZ64svN4QYRO7A+hir6RSsbvT9CYwJ97srj+Bmm31hXEjtV+Cb+lgREzgkcU7pLUSHzmts4BlZut5b4KKrYzF7bRjxVsL3gsi34wEmthuUq/6FzoL+KSIvPJjoF5LQXkbzeDyfwXtA1EA7gaa+MWsYuxk3UKPibPCI6BaM1GFYfBGQYqBRaQH0MQm86odjmgt4B5pTbgmJHRtj4OjBDawQD0gCsQtQBE/WdStf0BjABnCH3cO0ADES/5d4Y3eKkgHiIJxHVDED1aVL/9HYwHbi0nqQQMQz/KK7AvnuYRzwCNqvrOs3Uw7GZA5rUIDuEJcZQ6o8lf+m08UlCZAEWutq3fXGMA5yZE20AAuE1eBw0A6FwORhkARa2zU155tK8lnDw1AYiNwEHAqv40nCg48r9yOD2rxnRoLaCisBA2gpvg+bUGVA/lvPlFQ4PkUK+xc0EFjAO8L60ADkOQ4aAeqWI89CMe4PFwDCCyFBpCZJKoCDUCS6OpmUIXOxUAkfANopnkFCM+0gAYgyXZ6K6hCWfERqRu2AYAsZkyygQQNoLL4JkN5jWMl89t4ouCEPQYIBG7TvAJES73QACSuxOCQ7OlhNbhSf+3/i7e5Y/TIPs0lW1Mxl/UYmzJ5+A1lw3pGDiUa9Rj7eErK+IHXS0xYSOX+j8L/Vr/rpe9SU39fNOH6cNzgy13Tpf/QQXfckBS273x8o1tHPJmS8tDdN9nOMlw/fANIOGT1DYAGIBH9NrXC0TAEXHXQsowsoOvKo78JOaCdnCuwxJYzlKXLc4u6J9h/TOy1z/4Aghz2z+lhy4DqPfBtFjuhujck9l7O989Sx9g7BbbS3fNS1YvO/m/iNXojiJFlDSnSZsqPYJf1nwW9y9h54FXhG4Bmu5+tFlSAu4HifoPlB5tZMGLrD5mTlnuBOqpo/YnG/XBeJc0FCQM2wlKW2tlm92pN+5vpyVwk8GuAVLx1RiikN5Tjv+gI7bo523uD5ZPje6zWu2myPY9rVlIqfPiP8NK60w4aGp3+iXS3hgMXguwagGYn54zAMwQaQAnhLT5Sy8UTSS3F2z68lDuRhCTccoW+wwda8Evi+qYZBPK6qRtTiKYLJfEN38vcoRObD5vzO69XPvePvfYYbhCcZu77VPyBv8RP/uH+pqFdl8smHmYs0XhpW723hsKn4oUaQCNQ264BlNTEgDU3VoAGINwwaq8WrxJ0R0Nil2nrtH7GuXe88H1Bd09er1x1zWaROL6U7V6p1J4vj5kIzjR+CMoMmLVFFxGXY2XVPhPe4RUTC4gZaHzvcDJ3//zVhk0neP8hDVabXDjJxHEnB7gXYNcAAj/DR/Q1lkMDEP3qLlFHEZ+LXxCczsf1XTqb/deYQeIIhJP1ci8q95ZEjQvNf4MJE9WP6JmtK77frg+e+Fv/Sq29j+nJaV6vY+LHm6R8uViZW22f1i25zX+fEhpwLpm6PpR8XX1lnVy/Ys1OvSv/t+bpRpuCqrYN4FX4gCeN5dAABCPZJorYMiYJ/ZAhHzE9B7JHSp/KpLOzXPY1yX9KpWeadam2IvWj05vnSjnuyvFbNZef1DnEP2Z8woFAwovGv4bIMrjIhmgbcrZJUyOvrloquYfuQOlmytr8/ifq5TY64erH0jQX7JVsx+QBTiiybwDD4f0/MpZDAzC8gao+p7wz111l/aim3xiEmNRJMaD0Iwf1H+yFMYkvmES+pdeRP+om5a0yE8xLYm7S/BYztF7urY2RM3uqfSd/PEsVv/FuCzlKf1ce/PH2U8Jb9NNc2SN05fkUsJoS2zsVXrHvchMBtwQVbRtAJ3h7gU8nNIBJzerXrJjbuLLV6re5fdJqRf0H7rbnD97wbWEY26mP+tbNNq6Eqyakaf7+9e7QPzbNvL97976PrdXqaKH0Od1CI43zOle3IhPhyDz0kVFIekH/iToZGo0Hdyx9Y8aM5Yd0xaNFj1acZNPKaf7cQu+KncMKzSt1eOgHcKKT9o4lXoPX/GUy074a3lteTQtcPmSbjeXQAEKc0IeF/Wr/RKwK43brb/fHCD69TBiboS9mux9Qv3yVn4ePDkocVAIdlZsMMhR1hha4U6ukQKl7txt7y1bfrZz4dvUszSAxVfBJrK5E3ujnGT2MN16kmVbfGXrZnb/JcNMh0GxXyJeUWsFq0lo6EuFLdo+xXGAARo690cp2SEhcL82k+vAw7apO25PaW+/pqxlbXJ4Gyl4UP+Fy5Zc8S1DYDX5o3tCXxly/SPfRWaaZfDX5BZZ10l8eCCwOFRnfpYv5dfcNTJn5wZTW2n4rRvuwoNH9YKMminudTWtQy7YBBOCiw3FjsS0DyGbXIxfYfWIToIP5hjdaF6ih88/op5ZVwFBun9Dqiiork8eES9dj4O0FU+ub4TvosH5zqwyMhnvHcHFHpei/hiIwSR9ifGp5ZbC7U7jK+Th4anoNUY0c2oJa9g0ADoyCRonaNYDsSdOrdg/H5EOrVwSl7/BbZglCV+uBr0Aj0d2fVEofET+dn+KSPcoQlL/Li4/XN5SWB1N8owPkqlBJpmDRlE+4XzYWqufM3y1sc9xq0OgPxP0KBK4FlewbAFx4yjQW2zeA7EHTGMupYC5qbzPKCUqr8qHebtHVD/EH3i8orqn8grMkQSqV4GCuhbEcvCJEb9v/gKv1LlLqhvx6wYV8nmlccm+uvONPSbZTa5/lTw3Kjh6AbuH2DeAdcNUJYzE0gC8eS5k6Y8b785esWLVh+wmRCay1NRxUHykOYeUJiraJisvwcZxo7XmmUigNU7sHNHiWsXgELzW+AAJw70sfLh24XymYKbiOz9LTDGWrlaIFskY/yZ8qDeRKzpcBvAyuEmxOTATF2jlouZufMA6a/xLKTMcsuSRy4AEufwjL1ReIKAKyijpQf9RYmEdCGm/vmfKGYhBmL1xufpCX6z8y6tt0kuC6WPUnc1BfxL05R8gaXQ6slx6TrLnfkC8DeA9cJVDIZFBsTAPUaKZ+2nawnvEeeiwMoJQ6DBTvlvVSH3baWDhOLZQf0XEfaO+dhtLRatl54dVguUU/i1DnNyNFF26RNpsvx8rzrcEfqnGImUt7UMW+AXwOrtpiLH7C1AACgYtn6eZNaSZZZ0KoBrBbXP6rUi6YlWTTmD/M+PtV52lB+aZ9ObAYMNdQOlYtyxJeXYFfvFRbUkwVhfDts0Qp1RtWrDoTOymf5MOdnlniKtA5074BrAdXLTYWPwWKxQvRbfYyDZ9aPnK2hQEsVMoFg9JsSnGTM5hkVbXob5MGqA9g7IBh4jOeF4qv5su6Oh/ommqBYYEhB/X4mP26Au6aaZZQGMx/JcH/0MvbvgHA4IBnjcVTLA0gUFG3Yt7d6pGqAQgWnnJ4W72VeNefa8DwvemjFolmeMZajNXVF4JZhnhSw1dOdDHYtc3Fry7p6iN3H1avm2/SaDAczxI7CMFlfdsGEAvXRo1Lp4FnrA0gUFJrATutJoOqAUgS2UxTbyV+jfNER4YJET+pc45JA2qA1upH8lDQYvvji9k6N9paaoEwRFJN6qt/0fIXUopJo+Ekr42wBgwPt20ASVB17Yzl00DxpbKbXKDdtO1h8UwrA+AqEC8t8acZDOB/apFojUkh5jBv7Fh94UReJs6dw+c+u7QFQJaiRUh1DKDfyP6DyUogpcCOgHgU2CU/BnAjuChYyVj+PCiXGoDG9hj7xOKZ6lrbn+JyPhMXr3ryr5ZhKXC/WmT2Y4Lu8K/qy4BjgHi6xTNi6KapZfmVvQTXqWuuOrMtysc0pqkWwZrtfcIKMEAjX/4Ags3AAPSIkBtAYDk0gNMWvmGqAUiCyfknWrzfp86nDPGM8Xwj4XGzFoCRjcFawbxHvOO/Vi3Xj2F43pX3jJeVVn7B/+iG+uCD1M94GQd4zondkbrlxwBeAReJvPrh9NPEAOAaBGMWqaOtDIB7qgoX+wN8Q0Y/ba7C2zDNrAUglmWdvuxpXlZKeDF/fejfYLzkiPE3oK7T6ReYr+EPvNes0WA4ZtyGygFGeeTLJ1CkN+iNYOKCE6vxqBtj/kw1o4RkqsZHs+JV72/Vcr0fEp+IsdfMWgByI2zVl4G3g3iwzXdP9O1/lF86wHCZ8mY5rV8oAT+eB80aDZYoxSGYt+fDAMqAkcU50UYETD5oYgCBt6ABvGT+UCsD4AsaYgPg72C9AYDwSNOBCBhRr9GXPcvLRHtVgQD3YtSvVILQnL3FdWUJyk/kKf39wPTddOACrFYwXw9onU7sGgB8aywVVYCKNTtiYBA0AMGCEkQ1gH3icr6kKTYAPtTXZy0C4/CfzVoAUikY/CCn8zJxLBw/osGwqP89v1b/I+gb+vtGw4Y/MIAPzRrdkdcTO4X8Nx8GADa/mTDf+0xQwcwAoDeKlQGoE2L9klgIvqslNoCv1HL91lNF3oajZj5KYNxlmAWAUEfBrCgAvZv/1RfBOBut20e10OLFaeO4FmwumGb3A4YizsbXCzzd5il1iWCP6ZDQF2UWuKlZdFJtUE/uspCHlQHwF7TYAPhYS78SGAv2pmqZtKAkXwiYpC/ja0lM7OTEPUqOGsq4bbLgRLAgVmFd3h/PXG+4JFCHX3PGbA2tMv9c3yiscAdQgc2crfCSx4Q1YAowMwMoDQ3gbfOnqgYg3u0DKUfEBsDnnIafE19TEU7FFeK400lvfRmIlBDH5fJjuoybVTVglMv6a5U/twyl1j8jCiosDpzgZL4eOYApjng0Ble4vzW5EYCPp9lJ8QcP7hYLIsdUEqEBPGT+VCsD4MNisTx4JKFhIf9L3gizpcCLeTXDdgLInSVOicJ/E4KUWB00rus7Hu96Wc2mw5RX1g7xtBY4SpstBfLp4knxi6IvePL3JjfitAVXSEKdPrRpAOVgvy2Cd1WjkqSUspoGrlLLDWESKbwRu01awN8xxwzRLiBg+mLhxepKtjApXjejY7vCbIm/F4g+NPt036nWEoVxB7TJojeY3IgDvlj7JRHo820aQDXYU0k6MQXVAAyj6Dy4253YAFbLDQB67JkcX9FfrbTEUMb3IlmS8OJ31PJ0UXELYzBxLt9Ko9LBBnSGiW819815WlyhH3iaRbLoPOAc0OgZk8fHoI7Ag1LlelAv1eK56jBaYgB8NCs2gDVquSF1ZQXwPZWIKQc+1RtqKAPDXrEhcwsR+yuUe974Egiu6SJvDQzpEoYb5cF9Ja8RVxgA7mOaLj5ECWCqX8gmTfBcQtF5AQqjQb0XLB6srqQcEpfzV5nYAMweS2IAAAlNSURBVL5Wy42DIeC3v1+eQ0AdRWQYZ3pg2Cs+Co8vjYhdhgKBWs9rYooz1j5iNiUJFAGZu00Up+6B7ZP4DcG1mF/NHhgCbAMckL55QECL6MQQFfimaGLxYFX8EgMYYmEAPMjUuDsxDrSjm7QFqvOeYL0QDHvFmx9v8ArStYYyeUZ6eN3C5wa3ssycBdfbpclHSqovt+clNQaD2/xu9UzN3tF5+dlhMHq7nfxmpYFfyTdWT1aXcg0LKXlwz3yxAXD/E6OLSg3gorhZ5mF3oVpF4FkBhr3i5MhgmiCdttfO8Vn4sYXNgDm4iibN8qyGfp6XDbHAFpdskRVQB5wZYfwQqiwDNzX5jMEBqPlJdNlsUGoeFpdPsjAAvuAqeEdDJ9c7JA1QR0ui2TIY9oo9nMFCgeQjEzM0x2vtF/s582B4lmCpKBd1m3qe7C4w4CHL6mD3amDyabYFAQOH5O4KccBjUZJ1GqBWPiIu59sxYgPg33nBpxW6xv4hkYLyDQqK5jXg4GzxtAfskIvz1FyaN+83bghKgcO3reJGxyh5AtKlu/IgpEWwRKLlIhDf8oxZxTXgnlOltfhXmx2SJJQFqCdOit2+wQ6k2AB+VMsFL8MYuMEt/lrWVNZUhdvqYNh7nfBysFas3/LLodjkUPSifAhiIAG65grytATA+rh4xTYHELIicHXTUA9MAJ4wrfkbuKco4i2XS3lMtyieU4+aQUuSXJ4Pw8QGwH2yRF/D1mAUEBQ6zykq3i1c+wCjnluEjwdOUoKX/I2qLsVeG2KgO1+maKU/TkmUt0XubgVWMBjba5ayqSefpZwz9UIKBGDWjCzxyljgQp5ZLShwLNYTqwY6ZopHaar3pGTewR8nHKXxtfrs9+XNxnJlWzVdfPd1/Gqx7yW4v8FptQhYRQjebyeXXQiYKO90a2O5cibgEZMJpfYs31nSEeiFIC5in0XSxLKae4piHrNHvGokD8sabn67XC7lN0wSVtiklgs3dLgBiX+iZUCmP5ZhiLduEorRC4qHiDHcr1SyKgNSHRkGCT018vrrvQe71hX7lempDtNmHDf4qt8SWls6Z5KisgnTMs8YN5VD5WdAwqLF4h1vjjaZsCB9SSB2AN8AOyvLfaoBTKMmicrr8EQsa0SvCNCmtcJRWH1NSqa52j62DUWHB8WetZoerxRVqAoSFHyqfx9DnwxVndtWvjt11H/b1BGNGFRaaXaRZmhf4P8J2fxZE2/LsoYcXMefN+zfxnecA7IVHbIcp1b4VXvL9FE6p4GivUAS19/Fm11aakAfo4wRRieENvAM5OWGBLuJw2Eoy9a7RUmT2mhi1489wuuUmRZaTskSp7VtOFWTAGmmYb+5VEdNlpi/Ulpp3vMV5FtB2RzevOTZQW0lr4S+mtSyBybw329lxW3nmPz3X+FRYbrFv2cPvzGUqLpivU4Tl8HzIjOmW6RNLt7yob2GOx7+YEy7i/LWPy5oOvR9MEQIvmH5skvq9eIGXSzpkfkPdlTnDcVbjf5Av5Xyz8Ix16g/naT+H+jzEmRteDLZ8NNqcVhTJ33pmKaVi8Zf2nW2Yv6HBGPVJo8sMSaLPLr29XuVz2TSvW//YkgAzE59/SL4Er1lKDeQ8b+xwtFnF20msVOLRjS4oFjilT0XKO+G9ZLkMKVuS/lBkhQ3l7NHjvy5R5/ZK7jYzMUzJnn0u1uNfVU4vy81Ne2s9m9bZIkTOXPFd1Pnl/1k5cp4+nFJ+TnD5/z/zDL8MfalYDhbXdrfs6Hh1E+yCiCi5kJ9MjkhRx4SjQ+bmmWYZVlTJWPKGsbc0pacfk1yBFyIe8O94a89bSTEN3ykFCbklQ+Wlb8busEvsgrGNcr4x/Umz9lj8ALK4TppfSVE7LC0Alj7aCPKCGhkjejTVeZF+Y/uc2nqgFel18jYMk48PlRJDNOmNvexlRzoa9n1If9JqdkpqWA2ySqI8pLUXCBOM7pjiPi4gZbC2jlkhd4A8h8ofKU3NGRCFJIqzKPQaJW49jfXimrnEmvrnaMS/HG8SYBPiNus78M59IJlHvMQ82W3UP2RS5SrVrNe49bJnbv3GTRq3NPPzpi7ePWG1P3KSRbSvMLiVfe6rxgSGR1851rZ9Phy0Y1zUZwr1ssq7Nfcs+IM+e8YsEb8Rm/4xhF9zT+fNksQ28DOw/I49920rray+T1lfa88zqyenGz/+I64Wo3r1szmgnLZWKQ+F1L8qgY519esnHMDO1stiTe//LMyachMXfTA1SZvqpgxMyBTU0JMGK6kG7v2NbX05RTOpDH6dfd660ylFkKU4yyHojdOXasOrvfOG9XC/Otafd6KHL7ekMtvqbkcgfy5Y8NXi54b3qmu1QaRSvtpM2bMmT//yxVfbdiwNTX1kHqrvTk337xhw8oVn78/fWS3JmGc3YJGbM2myV2Sm9UOY1muwPzHJMm1yiGTk2diLmyUfHNyg+qmSwdEpDI0d+J2ZunTIwbd0f2uUROfm/nZDmMycrNdeCKKKZYbTXVkpPYbVaTu4DkHtAbwGVIDCUe5ONff5XtRysz4zkvgt+FM2GfJEZHPdbmzMun5Oa3g+Q/hHGNIRAdDcjcDFslHnBWAw4pJ5AIRlRTJcxbZbDZFrc7n+TbO2SGiiVJ5K1VBswAK6LluN78+ER1UDnm7WrjFVlAWCjPdXJogHCde2YHsaVFRcWq1F8BJRAvDlDe71XHfSoYJWYQPEZ0orojnrbZGlUgweUJ7IgqppLwAglZ7LiEPr332DtghogR+bKPp+a4BdVtZHuFBRCM8wtM0428gUDrPV+mEOCcPEa3wHIU/mgcFD8yrNcGldhEuUYS7H5mGRxTNGyxuiwZfCiIceFjxIenhngEl1c8Zu350RNTAs3ixbZJDK7PpmuvBH5TlZCKil6IgrGSfLK3ubXnhFONcbRnhDvzAOcZOjxGtBpR+NdchJGiRSZOITuI1gSt/9NF7dJa5Py/yOKMvSvMIx2mki+77sE9D5T0Qe8ld80IO6nuuRm0k4SBdDSEh5/ds+WbFVxt2ctN4jxaAPEx74aHqgF02UugQUUzDLWbqPzxBnFeM8A4J46XBmgcftJcuhohuSg7/UaD9zGW9Kc7LN9TqN1sTJJ46ewDFAPiNSs16jM8JHh7bu7UoSoggCIIgCIIgCIIgCIIgCIIgCMIL/D8J+xSXM7wjvwAAAABJRU5ErkJggg==;" vertex="1" parent="1">
          <mxGeometry x="410" y="355.25" width="49.5" height="49.5" as="geometry" />
        </mxCell>
        <mxCell id="XKejNxqJNqAKCkhe8Pqw-47" value="" style="shape=image;verticalLabelPosition=bottom;labelBackgroundColor=default;verticalAlign=top;aspect=fixed;imageAspect=0;image=data:image/png,iVBORw0KGgoAAAANSUhEUgAAAgAAAAIACAMAAADDpiTIAAADAFBMVEUAAAAA/wCAgIBVqlVAv0BmmTNVqlVJtklAn0BVqjlNs01GokZVqkBOsTtJpElVqkRQr0BLpTxVqkdRrkNNpkBVqj1RrkZOpkNKqkBSrT1Op0VMqkJSrUBPpz5NqkRSrUJQp0BNqj5TrURQqEJOqkBMrD5RqENOqkFNrEBRqD5PqkNNrEFRqEBPqj5OrENRqEFQqkBOrD5NqEJQqkFOrEBNqENQqkJPrEFNqEBRqkNPq0JOqUFRqkBPq0NOqUJRqkFQq0BOqUNNqkJQq0FPqUBOqkNQq0JPqUFOqkBQq0JPqUFOqkFRq0BPqUJOqkFNq0FQqUBPqkJOq0FQqUFPqkBOq0JQqUFPqkBOq0BQqUJPqkFOq0BOqUBQqkJPq0FOqUBQqkBPq0JOqUFQqkBPq0BOqUJQqkFPq0BOqUJQqkJPq0FPqUBOqkJQq0JPqUFOqkBQq0JPqUFOqkFQq0BPqUJOqkFQq0FPqUBPqkJOq0FPqUFPqkBOq0JQqUFPqkFOq0BQqUJPqkFOq0FQqUBPqkJPq0FQqUFPqkBPq0JOqUFPqkFPq0BOqUJQqkFPq0FOqUBQqkJPq0FPqUFQqkBPq0FPqUFOqkFPq0BPqUFOqkFPq0FPqUJOqkFQq0FPqUFPqkJQq0FPqUFPqkFOq0JPqUFPqkFOq0FPqUJPqkFOq0FQqkFPqkJPqkFQqkFPqkBPqkJQqkFPqkFPqkBOqkJPqkFPqkFOqkBPqkFPqkFPqkFQqkBPqkFPqkFQqkFPqkBPqkFOqkFPqkFPqkBOqkFPqkFPqkFPqkBPqkFPqkFPqkFQqkBPqkFPqkFQqkFPqkJPqkFOqkFPqkFPqkJPqkFPqkFPqkFPqkJPqkFPqkFPqkFQqkJPqkFPqkFOqkFPqkFPqkFPqkFPqkFPqkFPqkFPqkFPqkFPqkFPqkFPqkFPqkFOqkFPqkFPqkFPqkFPqkFPqkFPqkFPqkFPqkFPqkFPqkFPqkFPqkFPqkFPqkFPqkFPqkFPqkFPqkFPqkFPqkFPqkHLwE+LAAAA/3RSTlMAAQIDBAUGBwgJCgsMDQ4PEBESExQVFhcYGRobHB0eHyAhIiMkJSYnKCkqKywtLi8wMTIzNDU2Nzg5Ojs8PT4/QEFCQ0RFRkdISUpLTE1OT1BRUlNUVVZXWFlaW1xdXl9gYWJjZGVmZ2hpamtsbW5vcHFyc3R1dnd4eXp7fH1+f4CBgoOEhYaHiImKi4yNjo+QkZKTlJWWl5iZmpucnZ6foKGio6SlpqeoqaqrrK2ur7CxsrO0tba3uLm6u7y9vr/AwcLDxMXGx8jJysvMzc7P0NHS09TV1tfY2drb3N3e3+Dh4uPk5ebn6Onq6+zt7u/w8fLz9PX29/j5+vv8/f7rCNk1AAAACXBIWXMAAAsTAAALEwEAmpwYAAAgAElEQVR4nO2deYBO1fvA35kxw9j3EvoNkhJlX8pWTSmEfBNfirIrWyQqhdahaF+0iGihCEVliW8qKWUJJaZBRci+jRnznt8s773nufeec+99Z+be533vfT5/Mefce895nue99yzP85xAgCAIgiAIgiAIgiAIgiAIgiAIwrMkYTeAwOWLYtgtIDCJOdcbuwkEJpXYGuwmEJjUZ8F62G0gELmDsY+w20AgMoOxYEPsRhB47GCMfYbdCAKN5iyHltjNILB4K9cAVmI3g0DiotO5BsCuxW4IgcObefpn32I3hEChQWbIAFgH7KYQCBTdrOif/RSD3RjCfV5gnG7YjSFcpy/QP9sai90cwmXanIMGwGhT0Gc0PKLRP9tZBLtFhJvo9c/YAOwmES5y9VG9/tme4tiNIlzjhlMG/TM2GbtVhFt0OSvQPztbA7tdhDsMPC/SP2Nf0GqQLxgZFOufsWHYTSOcJ2aqTP2Mnbkcu3WE08S+Ltc/Y9tLYbePcJbYt830z9giGgZ4mrg55vpnbBJ2EwkHsdY/C/bDbiThGPELLPXPWMZN2M0kHCL+Exv6Z+x0O+yGEo6QYE//jJ1qhd1UwgFs65+xY42xG0sUOgmLbOufsUNXYDeXKGSKfhqG/hnbVxu7wUShkrA4LP0z9mct7CYThUjY+mdsb03sRhOFRsKSsPXP2J4k7GYThUT85/nQP2O7qmI3nCgcnsuX/hn7tRJ2y4nCoLPU/8OKTWWx204UnEuO5Vf/jK2mHIJRT7Gf8q9/xpZQtEi0M6Mg+mdsFjmIRDc9C6Z/xp7A7gFREOqcKKgBsHuw+0DknxLbCqx/dr4zdi+IfDO74Ppn7HQz7G4Q+WRwYeifsX0XY3eEyBdXnikcA2AbS2B3hcgHpX4rJP0ztoAmg9FHzMeFpn+KFohGRhei/lmwJ3Z3iDBpmVGYBsBOX4XdISIsyqcVqv4Z210Bu0tEGMQuK2T9M/YpJRKMIiYUuv4Zm4DdKcI27SQ5YApEFgUNRgtV9jugf8YOVcPuGGGL2BWO6J+xr+Owu0bY4SmH9E/rQdFBhyzHDCDrOuzOEZZUP+SY/hn7qyJ29wgL4tY5qH/GFmP3j7Dgbkf1z1h/7A4SphTb47ABnLoEu4uEGeMc1j9j39BcMIIpd9hxA2D3Y3eSkPOs8/pn6ZQ/JmJJSnfBANh6+ghEKnPd0D9j92H3kxBzlXNrgBpOUwKhyGS5O/pn7CvyEo5EbnBL/7QcFJHEFigTQHgcpuwxkccd7umfsbewe0voSUh10wCCV2P3l9BRqIEg1myh5DGRRdl/3TUANhK7x4SGFJf1z45Vxu4yAah62m0DYK9j95kAvOO6/tn5K7E7TajUdyISxIpV2L0mVJYi6J8xSh8VKbRD0T/bEY/dcSKXGGc9geUMwe45kUsPJP2zfcWxu05kE78TywDYeOy+E9mMQNM/O1oeu/NEoNQ/eAbAUrB7TwSeQNQ/O30Bdvd9T5VTmAbAnsHuv+95GFX/7BTtCSHzK64BsCnYAvA5LZD1T68AZF7DNgD2FLYIfE2C245ARo6XwRaCn+mOrf5sxmILwc98hq39bP5KwJaCf6lcuDnB80k/bDH4l/uwdZ/Lb5RHGouN2LrPoxO2HPxKPWzNh/gSWxB+ZTq25hXqYUvCnxRxJit4PngFWxT+pBO23lVO0mIQBvOx9c4ZhS0LP1LuLLbaOTsoaYz7DMHWOqQttjR8CFY0gJC52NLwH7WD2EqHpNNJAm6D6gxqhBJGuEys04nhw2QrtkD8xnXYGtfTDFsiPmM2tsL1vIQtEX9R4iS2wvX8S34hbtIXW99GKF+Em6zCVreRj7Bl4icudikzfDikl8OWio94GlvbIsg30DXiXDgcKny+wBaLf2iFrWshmZRE3i2exNa1mIHYcvENP2OrWswKbLn4hSoRtRHIoW+ASzh9QnS+GYwtGZ8wD1vRMlZiS8YfxBzAVrSM85Qtwg2uwNaznEHYsvEF92CrWQ7NA9wgYocA2fOACtjC8QN/Y6vZhDuxheMD6mAr2Yz52NLxAYOwlWzGiaLY4vE+s7CVbEp7bPF4n+3YOjblZWzxeJ4yEegMBEjDlo/nScZWsQWXYAvI6yCnB7fkHmwBeZ1F2Bq24BNsAXmdfdgatuA4HSzvKBdiK9iSq7FF5G3aY+vXkgexReRtxmLr15Jl2CLyNnOw9WvJCRoEOMlmbP1a0xhbRl4m/hy2eq0ZjS0kL3MltnZtQGHCDoJ2UngY7MYWkpd5FFu7dqDzZJ3jPWzl2qEjtpQ8zAZs5dphEraUvEvMCWzl2uEzbDF5l6rYurXFHmwxeZeISw8pJFgWW06eJaI9gjnXYMvJs0RoahA9FCbuFFExC6S0sc7xLbZq7bEKW06eJZLDAgG7seXkVYpGdkyAShYFiDnDpdiatcul2JLyKJEeFKJyM7akPEofbMXaZRi2pDzKQ9iKtUsKtqQ8ykvYirXLbGxJeZQF2Iq1y3JsSXmUiDos1IxfsCXlUSLsrEA5/2JLypvERIFPeB5BOkLMCcpi69U+5BfqBJdgq9U+dbBl5UlaYqvVPs2xZeVJbsFWq30oW5wT9MNWq316YMvKkzyArVb7kFOYE6Rgq9U+D2DLypO8gq1W+0zClpUnmYmtVvvQdqATfIitVvu8gC0rT7IYW632mYEtK0+yAlut9iGHACf4Clut9qGTQ5xgObZa7fMptqw8yTJstdqHskU6wRJstdqHDMAJosYlkAzAGaJoHeBzbFl5krew1WofegM4wXRstdqHDMAJJmGr1T5kAE4wBlut9qF1ACcYiK1W+9BKoBNEQ6boEO9iy8qT3IytVvvQbqATtMJWq33IH8AJouG0iBBTsGXlSZKw1WqfSdiy8iTlsNVqn7HYsvIkMRnYerVNP2xZeZMoyROZTVdsUXmTTdh6tU0bbFF5k+jxCauHLSpvMhdbr7a5CFtU3uQ5bL3aphi2qLzJg9h6tctJbEl5lLuwFWuX37Al5VFaYyvWLiuwJeVRqmAr1i7vYEvKq0TFuZHZPIEtKK+yEVuzNhmKLSiv8hG2Zm1yC7agvMrT2Jq1SQNsQXmV/tiatUewBLagvEpzbNXaYy+2nDxLYia2bm2xEltO3uUXbN3a4lVsMXmX2di6tcUobDF5l1HYurVFB2wxeZc22Lq1RU1sMXmX0tFwevCxGGwxeZjfsLVrgzXYQvIy0ZAlZDq2kLxMNBwffCe2kLxMdWzt2qA+tpA8zW5s9VqSHo8tI08zC1u/lnyDLSJvE/knR9E6oKPUwtavJbWxReRx0rAVbMFubAF5nVexNWzBm9gC8jqRfn5oT2wBeZ3EM9gqNiVIB4c7zRfYOjZlI7Z4vM8IbB2b8gy2eLzPJdg6NuUmbPH4gEh2DDxHHuHO8yi2lk1YjS0cP1AXW8smPIwtHF+wDVvNchphy8YXRO7RIQdjsWXjC+ph61kKnRnsDtuxFS2jF7ZkfMJ4bEVLOF8RWzI+oep5bFWLoahQt/gSW9VihmDLxTf0wla1kPO0E+gWiUexlS3iK2yx+Ig3sZUt4h5sqfiIZtjKFpBOcwAX+QFb3Ubex5aJr4jAxNHXY8vEVxQ9iK1vPWm0D+AqU7EVrucRbIn4jJoRliwkszq2RPzGEmyVa1mALQ/fEWHHR7TDlof/+BZb55BtlBnKdbpiKx0yGFsaPiQmgnwDj5I7OAIDsNXOmYotC19SNGJOk06no0JRGI6teIU3sCXhU4ruxdZ8HlmXYkvCrwzFVn0eH2HLwbfE/4Gt+1xaYMvBvwzE1n0O5AyMR/wubO1ncyO2FPxMD2ztM7aJVoERifkGW//sdmwZ+JsWQWT9p8Zhi8DnfIxsAP2wBeB3aqaj6v+3ItgC8D3PoxpAN+zuE6X3Ier/B5oC4IN5kBAFA0QAMavR9P8ldt+JHK7IQNJ/sDl214lcpiMZwDzsjhN5lP4TRf/pdDxMpNABxQAmY3ebUHkPQf+7i2P3mlCp8I/7BtARu9MEwP194Y+xu0xoWOiy/k8nYfeY0FDlkLsGMBa7w4SOLq7qfyudER1xvO2i/jNpDTDyKPG7ewYwCbuzhICmru0JbKAPQEQy2SX9n66D3VNCSOxKdwyAksJGKhe44h20nNyAIpZrXThL4kg17F4Scpw/Uiz4H+w+EibELnfaAOh86MimssNZI9ZQIECE0+C0k/rfXwW7f4QVvR3Uf0Yr7N4R1kxzzgBoBSAaiFvmlP7nYneNsEX5nc7ofyN5AUYJtRw5UORvOhMgamjtQND4iQbYvSLs06PQM4dktMfuExEOEwvbAIZi94gIi5hZhav/J7A7RIRJXKE6is+mLeCoI/HrwtP/J7QDEIWU2VhY+l9ZFLsvRH64qJCSSX9fErsnRP6oXSgxo1vKYfeDyC/1CyFg7NcLsXtB5J+rDhdU/zvoQKCopuGRgun/d9J/lNPyRIH0XxW7/URBaXuKfv/+ptVx+v37myb5HAnuJP17hIb5mg2mJWG3mygs6uYjaHB3EnaricKjbtgHDe8iBzBPkbQjPP1voxBQj1H+u3D0v74idnuJwqZkGHGjn5IDuAdJmG1T/cEpdBacNxmZZUf/Z/tgt5Nwit424gX+aIjdSsI52vxrpf/PyP3D09Tcbv75T4nFbiHhLKWWmuj/Xwr/8T7xM6T6X0+rf77gPkkyubRE7JYR7tD+mNAAbsduF+EW9XcL9P8dhX/5h6qZxgkAnQHgJ9YaDIASAPmK8Xr9n7kYu0mEm1ypN4APsFtEuIt+GNgLu0GEu7yu1X8mbQH4jM5aA1iD3R7CZUqc1RjAG9jtIdxmtcYAKAmU73hBYwDDsJtDuM0AjQHcht0cwm1aaAygNXZzCLcpqckmWxu7OYTraHKIlcZuDeE6i4H+z2A3hnCfJ4EBpGE3hnCfnsAA1mE3hnCfesAAFmE3hnCf+HPcAGZgN4ZAYAs3gMnYbSEQeI8bwL3YbSEQmMINgI4E9yNjuQFcg90WAoG7uAFcgt0WAoFO3AAoJbwfaU4G4G9qcQOogt0WAoHS3AAoK7gv4RmDKC20L/mbDMDfbFINgBLD+pKVqgFQbhhf8oFqABQa7EteUg3g/7CbQmDwHBmAv3lRNYBa2E0hMHhFNYDG2E0hMHhNNYBk7KYQGPA3AKUI9CXPqwYwGLspBAZTVQMYj90UAoPHVAOYgt0UAoMr1HOl38RuCoHCTXtDBvAxdksIHGJbvXAgxwBWYTeEQCO+8+JMthG7FQQmVR5c6dStSw8eN+6+QYP6dO/eMTm5ZWOVJsnZ3NC9++2DQvS/tW19224pDfsP6tu9W3JyU37Dxq2SVTp079690/WNLyvqVK8I28xl4XDi+zdHNbM+tqquMdm9kPO7lj5q43aEc9S3dVSllkPv3VnB/K4LwrndwbcbuNNXQsAn4es/h7OzmprctEa4VrWqg2sdJjQ0CVprR8IPPaXv7gnh3+1Lin1DIWn0OxvO5NcEfpJtUdZ4aPb6o2He7DhlwsQirs5tk1fqD6rLeGtQ57YNa2ZTq3mHPg++v+WcSGtzKspvW7nNiKUZ2uoLs6cbdwwYNm7aol+MZyQHKRkuJpWmaD8GPfUV4ts+vdH4vThgfpLp5btgZZjmJrH9tF26ewXpUHRURkFlpMeJqtSYYjjaOmui6Vl2jaDNdNWWxd7yg/ZeZ64svN4QYRO7A+hir6RSsbvT9CYwJ97srj+Bmm31hXEjtV+Cb+lgREzgkcU7pLUSHzmts4BlZut5b4KKrYzF7bRjxVsL3gsi34wEmthuUq/6FzoL+KSIvPJjoF5LQXkbzeDyfwXtA1EA7gaa+MWsYuxk3UKPibPCI6BaM1GFYfBGQYqBRaQH0MQm86odjmgt4B5pTbgmJHRtj4OjBDawQD0gCsQtQBE/WdStf0BjABnCH3cO0ADES/5d4Y3eKkgHiIJxHVDED1aVL/9HYwHbi0nqQQMQz/KK7AvnuYRzwCNqvrOs3Uw7GZA5rUIDuEJcZQ6o8lf+m08UlCZAEWutq3fXGMA5yZE20AAuE1eBw0A6FwORhkARa2zU155tK8lnDw1AYiNwEHAqv40nCg48r9yOD2rxnRoLaCisBA2gpvg+bUGVA/lvPlFQ4PkUK+xc0EFjAO8L60ADkOQ4aAeqWI89CMe4PFwDCCyFBpCZJKoCDUCS6OpmUIXOxUAkfANopnkFCM+0gAYgyXZ6K6hCWfERqRu2AYAsZkyygQQNoLL4JkN5jWMl89t4ouCEPQYIBG7TvAJES73QACSuxOCQ7OlhNbhSf+3/i7e5Y/TIPs0lW1Mxl/UYmzJ5+A1lw3pGDiUa9Rj7eErK+IHXS0xYSOX+j8L/Vr/rpe9SU39fNOH6cNzgy13Tpf/QQXfckBS273x8o1tHPJmS8tDdN9nOMlw/fANIOGT1DYAGIBH9NrXC0TAEXHXQsowsoOvKo78JOaCdnCuwxJYzlKXLc4u6J9h/TOy1z/4Aghz2z+lhy4DqPfBtFjuhujck9l7O989Sx9g7BbbS3fNS1YvO/m/iNXojiJFlDSnSZsqPYJf1nwW9y9h54FXhG4Bmu5+tFlSAu4HifoPlB5tZMGLrD5mTlnuBOqpo/YnG/XBeJc0FCQM2wlKW2tlm92pN+5vpyVwk8GuAVLx1RiikN5Tjv+gI7bo523uD5ZPje6zWu2myPY9rVlIqfPiP8NK60w4aGp3+iXS3hgMXguwagGYn54zAMwQaQAnhLT5Sy8UTSS3F2z68lDuRhCTccoW+wwda8Evi+qYZBPK6qRtTiKYLJfEN38vcoRObD5vzO69XPvePvfYYbhCcZu77VPyBv8RP/uH+pqFdl8smHmYs0XhpW723hsKn4oUaQCNQ264BlNTEgDU3VoAGINwwaq8WrxJ0R0Nil2nrtH7GuXe88H1Bd09er1x1zWaROL6U7V6p1J4vj5kIzjR+CMoMmLVFFxGXY2XVPhPe4RUTC4gZaHzvcDJ3//zVhk0neP8hDVabXDjJxHEnB7gXYNcAAj/DR/Q1lkMDEP3qLlFHEZ+LXxCczsf1XTqb/deYQeIIhJP1ci8q95ZEjQvNf4MJE9WP6JmtK77frg+e+Fv/Sq29j+nJaV6vY+LHm6R8uViZW22f1i25zX+fEhpwLpm6PpR8XX1lnVy/Ys1OvSv/t+bpRpuCqrYN4FX4gCeN5dAABCPZJorYMiYJ/ZAhHzE9B7JHSp/KpLOzXPY1yX9KpWeadam2IvWj05vnSjnuyvFbNZef1DnEP2Z8woFAwovGv4bIMrjIhmgbcrZJUyOvrloquYfuQOlmytr8/ifq5TY64erH0jQX7JVsx+QBTiiybwDD4f0/MpZDAzC8gao+p7wz111l/aim3xiEmNRJMaD0Iwf1H+yFMYkvmES+pdeRP+om5a0yE8xLYm7S/BYztF7urY2RM3uqfSd/PEsVv/FuCzlKf1ce/PH2U8Jb9NNc2SN05fkUsJoS2zsVXrHvchMBtwQVbRtAJ3h7gU8nNIBJzerXrJjbuLLV6re5fdJqRf0H7rbnD97wbWEY26mP+tbNNq6Eqyakaf7+9e7QPzbNvL97976PrdXqaKH0Od1CI43zOle3IhPhyDz0kVFIekH/iToZGo0Hdyx9Y8aM5Yd0xaNFj1acZNPKaf7cQu+KncMKzSt1eOgHcKKT9o4lXoPX/GUy074a3lteTQtcPmSbjeXQAEKc0IeF/Wr/RKwK43brb/fHCD69TBiboS9mux9Qv3yVn4ePDkocVAIdlZsMMhR1hha4U6ukQKl7txt7y1bfrZz4dvUszSAxVfBJrK5E3ujnGT2MN16kmVbfGXrZnb/JcNMh0GxXyJeUWsFq0lo6EuFLdo+xXGAARo690cp2SEhcL82k+vAw7apO25PaW+/pqxlbXJ4Gyl4UP+Fy5Zc8S1DYDX5o3tCXxly/SPfRWaaZfDX5BZZ10l8eCCwOFRnfpYv5dfcNTJn5wZTW2n4rRvuwoNH9YKMminudTWtQy7YBBOCiw3FjsS0DyGbXIxfYfWIToIP5hjdaF6ih88/op5ZVwFBun9Dqiiork8eES9dj4O0FU+ub4TvosH5zqwyMhnvHcHFHpei/hiIwSR9ifGp5ZbC7U7jK+Th4anoNUY0c2oJa9g0ADoyCRonaNYDsSdOrdg/H5EOrVwSl7/BbZglCV+uBr0Aj0d2fVEofET+dn+KSPcoQlL/Li4/XN5SWB1N8owPkqlBJpmDRlE+4XzYWqufM3y1sc9xq0OgPxP0KBK4FlewbAFx4yjQW2zeA7EHTGMupYC5qbzPKCUqr8qHebtHVD/EH3i8orqn8grMkQSqV4GCuhbEcvCJEb9v/gKv1LlLqhvx6wYV8nmlccm+uvONPSbZTa5/lTw3Kjh6AbuH2DeAdcNUJYzE0gC8eS5k6Y8b785esWLVh+wmRCay1NRxUHykOYeUJiraJisvwcZxo7XmmUigNU7sHNHiWsXgELzW+AAJw70sfLh24XymYKbiOz9LTDGWrlaIFskY/yZ8qDeRKzpcBvAyuEmxOTATF2jlouZufMA6a/xLKTMcsuSRy4AEufwjL1ReIKAKyijpQf9RYmEdCGm/vmfKGYhBmL1xufpCX6z8y6tt0kuC6WPUnc1BfxL05R8gaXQ6slx6TrLnfkC8DeA9cJVDIZFBsTAPUaKZ+2nawnvEeeiwMoJQ6DBTvlvVSH3baWDhOLZQf0XEfaO+dhtLRatl54dVguUU/i1DnNyNFF26RNpsvx8rzrcEfqnGImUt7UMW+AXwOrtpiLH7C1AACgYtn6eZNaSZZZ0KoBrBbXP6rUi6YlWTTmD/M+PtV52lB+aZ9ObAYMNdQOlYtyxJeXYFfvFRbUkwVhfDts0Qp1RtWrDoTOymf5MOdnlniKtA5074BrAdXLTYWPwWKxQvRbfYyDZ9aPnK2hQEsVMoFg9JsSnGTM5hkVbXob5MGqA9g7IBh4jOeF4qv5su6Oh/ommqBYYEhB/X4mP26Au6aaZZQGMx/JcH/0MvbvgHA4IBnjcVTLA0gUFG3Yt7d6pGqAQgWnnJ4W72VeNefa8DwvemjFolmeMZajNXVF4JZhnhSw1dOdDHYtc3Fry7p6iN3H1avm2/SaDAczxI7CMFlfdsGEAvXRo1Lp4FnrA0gUFJrATutJoOqAUgS2UxTbyV+jfNER4YJET+pc45JA2qA1upH8lDQYvvji9k6N9paaoEwRFJN6qt/0fIXUopJo+Ekr42wBgwPt20ASVB17Yzl00DxpbKbXKDdtO1h8UwrA+AqEC8t8acZDOB/apFojUkh5jBv7Fh94UReJs6dw+c+u7QFQJaiRUh1DKDfyP6DyUogpcCOgHgU2CU/BnAjuChYyVj+PCiXGoDG9hj7xOKZ6lrbn+JyPhMXr3ryr5ZhKXC/WmT2Y4Lu8K/qy4BjgHi6xTNi6KapZfmVvQTXqWuuOrMtysc0pqkWwZrtfcIKMEAjX/4Ags3AAPSIkBtAYDk0gNMWvmGqAUiCyfknWrzfp86nDPGM8Xwj4XGzFoCRjcFawbxHvOO/Vi3Xj2F43pX3jJeVVn7B/+iG+uCD1M94GQd4zondkbrlxwBeAReJvPrh9NPEAOAaBGMWqaOtDIB7qgoX+wN8Q0Y/ba7C2zDNrAUglmWdvuxpXlZKeDF/fejfYLzkiPE3oK7T6ReYr+EPvNes0WA4ZtyGygFGeeTLJ1CkN+iNYOKCE6vxqBtj/kw1o4RkqsZHs+JV72/Vcr0fEp+IsdfMWgByI2zVl4G3g3iwzXdP9O1/lF86wHCZ8mY5rV8oAT+eB80aDZYoxSGYt+fDAMqAkcU50UYETD5oYgCBt6ABvGT+UCsD4AsaYgPg72C9AYDwSNOBCBhRr9GXPcvLRHtVgQD3YtSvVILQnL3FdWUJyk/kKf39wPTddOACrFYwXw9onU7sGgB8aywVVYCKNTtiYBA0AMGCEkQ1gH3icr6kKTYAPtTXZy0C4/CfzVoAUikY/CCn8zJxLBw/osGwqP89v1b/I+gb+vtGw4Y/MIAPzRrdkdcTO4X8Nx8GADa/mTDf+0xQwcwAoDeKlQGoE2L9klgIvqslNoCv1HL91lNF3oajZj5KYNxlmAWAUEfBrCgAvZv/1RfBOBut20e10OLFaeO4FmwumGb3A4YizsbXCzzd5il1iWCP6ZDQF2UWuKlZdFJtUE/uspCHlQHwF7TYAPhYS78SGAv2pmqZtKAkXwiYpC/ja0lM7OTEPUqOGsq4bbLgRLAgVmFd3h/PXG+4JFCHX3PGbA2tMv9c3yiscAdQgc2crfCSx4Q1YAowMwMoDQ3gbfOnqgYg3u0DKUfEBsDnnIafE19TEU7FFeK400lvfRmIlBDH5fJjuoybVTVglMv6a5U/twyl1j8jCiosDpzgZL4eOYApjng0Ble4vzW5EYCPp9lJ8QcP7hYLIsdUEqEBPGT+VCsD4MNisTx4JKFhIf9L3gizpcCLeTXDdgLInSVOicJ/E4KUWB00rus7Hu96Wc2mw5RX1g7xtBY4SpstBfLp4knxi6IvePL3JjfitAVXSEKdPrRpAOVgvy2Cd1WjkqSUspoGrlLLDWESKbwRu01awN8xxwzRLiBg+mLhxepKtjApXjejY7vCbIm/F4g+NPt036nWEoVxB7TJojeY3IgDvlj7JRHo820aQDXYU0k6MQXVAAyj6Dy4253YAFbLDQB67JkcX9FfrbTEUMb3IlmS8OJ31PJ0UXELYzBxLt9Ko9LBBnSGiW819815WlyhH3iaRbLoPOAc0OgZk8fHoI7Ag1LlelAv1eK56jBaYgB8NCs2gDVquSF1ZQXwPZWIKQc+1RtqKAPDXrEhcwsR+yuUe974Egiu6SJvDQzpEoYb5cF9Ja8RVxgA7mOaLj5ECWCqX8gmTfBcQtF5AQqjQb0XLB6srqQcEpfzV5nYAMweS2IAAAlNSURBVL5Wy42DIeC3v1+eQ0AdRWQYZ3pg2Cs+Co8vjYhdhgKBWs9rYooz1j5iNiUJFAGZu00Up+6B7ZP4DcG1mF/NHhgCbAMckL55QECL6MQQFfimaGLxYFX8EgMYYmEAPMjUuDsxDrSjm7QFqvOeYL0QDHvFmx9v8ArStYYyeUZ6eN3C5wa3ssycBdfbpclHSqovt+clNQaD2/xu9UzN3tF5+dlhMHq7nfxmpYFfyTdWT1aXcg0LKXlwz3yxAXD/E6OLSg3gorhZ5mF3oVpF4FkBhr3i5MhgmiCdttfO8Vn4sYXNgDm4iibN8qyGfp6XDbHAFpdskRVQB5wZYfwQqiwDNzX5jMEBqPlJdNlsUGoeFpdPsjAAvuAqeEdDJ9c7JA1QR0ui2TIY9oo9nMFCgeQjEzM0x2vtF/s582B4lmCpKBd1m3qe7C4w4CHL6mD3amDyabYFAQOH5O4KccBjUZJ1GqBWPiIu59sxYgPg33nBpxW6xv4hkYLyDQqK5jXg4GzxtAfskIvz1FyaN+83bghKgcO3reJGxyh5AtKlu/IgpEWwRKLlIhDf8oxZxTXgnlOltfhXmx2SJJQFqCdOit2+wQ6k2AB+VMsFL8MYuMEt/lrWVNZUhdvqYNh7nfBysFas3/LLodjkUPSifAhiIAG65grytATA+rh4xTYHELIicHXTUA9MAJ4wrfkbuKco4i2XS3lMtyieU4+aQUuSXJ4Pw8QGwH2yRF/D1mAUEBQ6zykq3i1c+wCjnluEjwdOUoKX/I2qLsVeG2KgO1+maKU/TkmUt0XubgVWMBjba5ayqSefpZwz9UIKBGDWjCzxyljgQp5ZLShwLNYTqwY6ZopHaar3pGTewR8nHKXxtfrs9+XNxnJlWzVdfPd1/Gqx7yW4v8FptQhYRQjebyeXXQiYKO90a2O5cibgEZMJpfYs31nSEeiFIC5in0XSxLKae4piHrNHvGokD8sabn67XC7lN0wSVtiklgs3dLgBiX+iZUCmP5ZhiLduEorRC4qHiDHcr1SyKgNSHRkGCT018vrrvQe71hX7lempDtNmHDf4qt8SWls6Z5KisgnTMs8YN5VD5WdAwqLF4h1vjjaZsCB9SSB2AN8AOyvLfaoBTKMmicrr8EQsa0SvCNCmtcJRWH1NSqa52j62DUWHB8WetZoerxRVqAoSFHyqfx9DnwxVndtWvjt11H/b1BGNGFRaaXaRZmhf4P8J2fxZE2/LsoYcXMefN+zfxnecA7IVHbIcp1b4VXvL9FE6p4GivUAS19/Fm11aakAfo4wRRieENvAM5OWGBLuJw2Eoy9a7RUmT2mhi1489wuuUmRZaTskSp7VtOFWTAGmmYb+5VEdNlpi/Ulpp3vMV5FtB2RzevOTZQW0lr4S+mtSyBybw329lxW3nmPz3X+FRYbrFv2cPvzGUqLpivU4Tl8HzIjOmW6RNLt7yob2GOx7+YEy7i/LWPy5oOvR9MEQIvmH5skvq9eIGXSzpkfkPdlTnDcVbjf5Av5Xyz8Ix16g/naT+H+jzEmRteDLZ8NNqcVhTJ33pmKaVi8Zf2nW2Yv6HBGPVJo8sMSaLPLr29XuVz2TSvW//YkgAzE59/SL4Er1lKDeQ8b+xwtFnF20msVOLRjS4oFjilT0XKO+G9ZLkMKVuS/lBkhQ3l7NHjvy5R5/ZK7jYzMUzJnn0u1uNfVU4vy81Ne2s9m9bZIkTOXPFd1Pnl/1k5cp4+nFJ+TnD5/z/zDL8MfalYDhbXdrfs6Hh1E+yCiCi5kJ9MjkhRx4SjQ+bmmWYZVlTJWPKGsbc0pacfk1yBFyIe8O94a89bSTEN3ykFCbklQ+Wlb8busEvsgrGNcr4x/Umz9lj8ALK4TppfSVE7LC0Alj7aCPKCGhkjejTVeZF+Y/uc2nqgFel18jYMk48PlRJDNOmNvexlRzoa9n1If9JqdkpqWA2ySqI8pLUXCBOM7pjiPi4gZbC2jlkhd4A8h8ofKU3NGRCFJIqzKPQaJW49jfXimrnEmvrnaMS/HG8SYBPiNus78M59IJlHvMQ82W3UP2RS5SrVrNe49bJnbv3GTRq3NPPzpi7ePWG1P3KSRbSvMLiVfe6rxgSGR1851rZ9Phy0Y1zUZwr1ssq7Nfcs+IM+e8YsEb8Rm/4xhF9zT+fNksQ28DOw/I49920rray+T1lfa88zqyenGz/+I64Wo3r1szmgnLZWKQ+F1L8qgY519esnHMDO1stiTe//LMyachMXfTA1SZvqpgxMyBTU0JMGK6kG7v2NbX05RTOpDH6dfd660ylFkKU4yyHojdOXasOrvfOG9XC/Otafd6KHL7ekMtvqbkcgfy5Y8NXi54b3qmu1QaRSvtpM2bMmT//yxVfbdiwNTX1kHqrvTk337xhw8oVn78/fWS3JmGc3YJGbM2myV2Sm9UOY1muwPzHJMm1yiGTk2diLmyUfHNyg+qmSwdEpDI0d+J2ZunTIwbd0f2uUROfm/nZDmMycrNdeCKKKZYbTXVkpPYbVaTu4DkHtAbwGVIDCUe5ONff5XtRysz4zkvgt+FM2GfJEZHPdbmzMun5Oa3g+Q/hHGNIRAdDcjcDFslHnBWAw4pJ5AIRlRTJcxbZbDZFrc7n+TbO2SGiiVJ5K1VBswAK6LluN78+ER1UDnm7WrjFVlAWCjPdXJogHCde2YHsaVFRcWq1F8BJRAvDlDe71XHfSoYJWYQPEZ0orojnrbZGlUgweUJ7IgqppLwAglZ7LiEPr332DtghogR+bKPp+a4BdVtZHuFBRCM8wtM0428gUDrPV+mEOCcPEa3wHIU/mgcFD8yrNcGldhEuUYS7H5mGRxTNGyxuiwZfCiIceFjxIenhngEl1c8Zu350RNTAs3ixbZJDK7PpmuvBH5TlZCKil6IgrGSfLK3ubXnhFONcbRnhDvzAOcZOjxGtBpR+NdchJGiRSZOITuI1gSt/9NF7dJa5Py/yOKMvSvMIx2mki+77sE9D5T0Qe8ld80IO6nuuRm0k4SBdDSEh5/ds+WbFVxt2ctN4jxaAPEx74aHqgF02UugQUUzDLWbqPzxBnFeM8A4J46XBmgcftJcuhohuSg7/UaD9zGW9Kc7LN9TqN1sTJJ46ewDFAPiNSs16jM8JHh7bu7UoSoggCIIgCIIgCIIgCIIgCIIgCMIL/D8J+xSXM7wjvwAAAABJRU5ErkJggg==;" vertex="1" parent="1">
          <mxGeometry x="530" y="355.25" width="49.5" height="49.5" as="geometry" />
        </mxCell>
        <mxCell id="XKejNxqJNqAKCkhe8Pqw-48" value="" style="shape=image;verticalLabelPosition=bottom;labelBackgroundColor=default;verticalAlign=top;aspect=fixed;imageAspect=0;image=data:image/png,iVBORw0KGgoAAAANSUhEUgAAAgAAAAIACAMAAADDpiTIAAADAFBMVEUAAAAA/wCAgIBVqlVAv0BmmTNVqlVJtklAn0BVqjlNs01GokZVqkBOsTtJpElVqkRQr0BLpTxVqkdRrkNNpkBVqj1RrkZOpkNKqkBSrT1Op0VMqkJSrUBPpz5NqkRSrUJQp0BNqj5TrURQqEJOqkBMrD5RqENOqkFNrEBRqD5PqkNNrEFRqEBPqj5OrENRqEFQqkBOrD5NqEJQqkFOrEBNqENQqkJPrEFNqEBRqkNPq0JOqUFRqkBPq0NOqUJRqkFQq0BOqUNNqkJQq0FPqUBOqkNQq0JPqUFOqkBQq0JPqUFOqkFRq0BPqUJOqkFNq0FQqUBPqkJOq0FQqUFPqkBOq0JQqUFPqkBOq0BQqUJPqkFOq0BOqUBQqkJPq0FOqUBQqkBPq0JOqUFQqkBPq0BOqUJQqkFPq0BOqUJQqkJPq0FPqUBOqkJQq0JPqUFOqkBQq0JPqUFOqkFQq0BPqUJOqkFQq0FPqUBPqkJOq0FPqUFPqkBOq0JQqUFPqkFOq0BQqUJPqkFOq0FQqUBPqkJPq0FQqUFPqkBPq0JOqUFPqkFPq0BOqUJQqkFPq0FOqUBQqkJPq0FPqUFQqkBPq0FPqUFOqkFPq0BPqUFOqkFPq0FPqUJOqkFQq0FPqUFPqkJQq0FPqUFPqkFOq0JPqUFPqkFOq0FPqUJPqkFOq0FQqkFPqkJPqkFQqkFPqkBPqkJQqkFPqkFPqkBOqkJPqkFPqkFOqkBPqkFPqkFPqkFQqkBPqkFPqkFQqkFPqkBPqkFOqkFPqkFPqkBOqkFPqkFPqkFPqkBPqkFPqkFPqkFQqkBPqkFPqkFQqkFPqkJPqkFOqkFPqkFPqkJPqkFPqkFPqkFPqkJPqkFPqkFPqkFQqkJPqkFPqkFOqkFPqkFPqkFPqkFPqkFPqkFPqkFPqkFPqkFPqkFPqkFPqkFPqkFOqkFPqkFPqkFPqkFPqkFPqkFPqkFPqkFPqkFPqkFPqkFPqkFPqkFPqkFPqkFPqkFPqkFPqkFPqkFPqkFPqkFPqkHLwE+LAAAA/3RSTlMAAQIDBAUGBwgJCgsMDQ4PEBESExQVFhcYGRobHB0eHyAhIiMkJSYnKCkqKywtLi8wMTIzNDU2Nzg5Ojs8PT4/QEFCQ0RFRkdISUpLTE1OT1BRUlNUVVZXWFlaW1xdXl9gYWJjZGVmZ2hpamtsbW5vcHFyc3R1dnd4eXp7fH1+f4CBgoOEhYaHiImKi4yNjo+QkZKTlJWWl5iZmpucnZ6foKGio6SlpqeoqaqrrK2ur7CxsrO0tba3uLm6u7y9vr/AwcLDxMXGx8jJysvMzc7P0NHS09TV1tfY2drb3N3e3+Dh4uPk5ebn6Onq6+zt7u/w8fLz9PX29/j5+vv8/f7rCNk1AAAACXBIWXMAAAsTAAALEwEAmpwYAAAgAElEQVR4nO2deYBO1fvA35kxw9j3EvoNkhJlX8pWTSmEfBNfirIrWyQqhdahaF+0iGihCEVliW8qKWUJJaZBRci+jRnznt8s773nufeec+99Z+be533vfT5/Mefce895nue99yzP85xAgCAIgiAIgiAIgiAIgiAIgiAIwrMkYTeAwOWLYtgtIDCJOdcbuwkEJpXYGuwmEJjUZ8F62G0gELmDsY+w20AgMoOxYEPsRhB47GCMfYbdCAKN5iyHltjNILB4K9cAVmI3g0DiotO5BsCuxW4IgcObefpn32I3hEChQWbIAFgH7KYQCBTdrOif/RSD3RjCfV5gnG7YjSFcpy/QP9sai90cwmXanIMGwGhT0Gc0PKLRP9tZBLtFhJvo9c/YAOwmES5y9VG9/tme4tiNIlzjhlMG/TM2GbtVhFt0OSvQPztbA7tdhDsMPC/SP2Nf0GqQLxgZFOufsWHYTSOcJ2aqTP2Mnbkcu3WE08S+Ltc/Y9tLYbePcJbYt830z9giGgZ4mrg55vpnbBJ2EwkHsdY/C/bDbiThGPELLPXPWMZN2M0kHCL+Exv6Z+x0O+yGEo6QYE//jJ1qhd1UwgFs65+xY42xG0sUOgmLbOufsUNXYDeXKGSKfhqG/hnbVxu7wUShkrA4LP0z9mct7CYThUjY+mdsb03sRhOFRsKSsPXP2J4k7GYThUT85/nQP2O7qmI3nCgcnsuX/hn7tRJ2y4nCoLPU/8OKTWWx204UnEuO5Vf/jK2mHIJRT7Gf8q9/xpZQtEi0M6Mg+mdsFjmIRDc9C6Z/xp7A7gFREOqcKKgBsHuw+0DknxLbCqx/dr4zdi+IfDO74Ppn7HQz7G4Q+WRwYeifsX0XY3eEyBdXnikcA2AbS2B3hcgHpX4rJP0ztoAmg9FHzMeFpn+KFohGRhei/lmwJ3Z3iDBpmVGYBsBOX4XdISIsyqcVqv4Z210Bu0tEGMQuK2T9M/YpJRKMIiYUuv4Zm4DdKcI27SQ5YApEFgUNRgtV9jugf8YOVcPuGGGL2BWO6J+xr+Owu0bY4SmH9E/rQdFBhyzHDCDrOuzOEZZUP+SY/hn7qyJ29wgL4tY5qH/GFmP3j7Dgbkf1z1h/7A4SphTb47ABnLoEu4uEGeMc1j9j39BcMIIpd9hxA2D3Y3eSkPOs8/pn6ZQ/JmJJSnfBANh6+ghEKnPd0D9j92H3kxBzlXNrgBpOUwKhyGS5O/pn7CvyEo5EbnBL/7QcFJHEFigTQHgcpuwxkccd7umfsbewe0voSUh10wCCV2P3l9BRqIEg1myh5DGRRdl/3TUANhK7x4SGFJf1z45Vxu4yAah62m0DYK9j95kAvOO6/tn5K7E7TajUdyISxIpV2L0mVJYi6J8xSh8VKbRD0T/bEY/dcSKXGGc9geUMwe45kUsPJP2zfcWxu05kE78TywDYeOy+E9mMQNM/O1oeu/NEoNQ/eAbAUrB7TwSeQNQ/O30Bdvd9T5VTmAbAnsHuv+95GFX/7BTtCSHzK64BsCnYAvA5LZD1T68AZF7DNgD2FLYIfE2C245ARo6XwRaCn+mOrf5sxmILwc98hq39bP5KwJaCf6lcuDnB80k/bDH4l/uwdZ/Lb5RHGouN2LrPoxO2HPxKPWzNh/gSWxB+ZTq25hXqYUvCnxRxJit4PngFWxT+pBO23lVO0mIQBvOx9c4ZhS0LP1LuLLbaOTsoaYz7DMHWOqQttjR8CFY0gJC52NLwH7WD2EqHpNNJAm6D6gxqhBJGuEys04nhw2QrtkD8xnXYGtfTDFsiPmM2tsL1vIQtEX9R4iS2wvX8S34hbtIXW99GKF+Em6zCVreRj7Bl4icudikzfDikl8OWio94GlvbIsg30DXiXDgcKny+wBaLf2iFrWshmZRE3i2exNa1mIHYcvENP2OrWswKbLn4hSoRtRHIoW+ASzh9QnS+GYwtGZ8wD1vRMlZiS8YfxBzAVrSM85Qtwg2uwNaznEHYsvEF92CrWQ7NA9wgYocA2fOACtjC8QN/Y6vZhDuxheMD6mAr2Yz52NLxAYOwlWzGiaLY4vE+s7CVbEp7bPF4n+3YOjblZWzxeJ4yEegMBEjDlo/nScZWsQWXYAvI6yCnB7fkHmwBeZ1F2Bq24BNsAXmdfdgatuA4HSzvKBdiK9iSq7FF5G3aY+vXkgexReRtxmLr15Jl2CLyNnOw9WvJCRoEOMlmbP1a0xhbRl4m/hy2eq0ZjS0kL3MltnZtQGHCDoJ2UngY7MYWkpd5FFu7dqDzZJ3jPWzl2qEjtpQ8zAZs5dphEraUvEvMCWzl2uEzbDF5l6rYurXFHmwxeZeISw8pJFgWW06eJaI9gjnXYMvJs0RoahA9FCbuFFExC6S0sc7xLbZq7bEKW06eJZLDAgG7seXkVYpGdkyAShYFiDnDpdiatcul2JLyKJEeFKJyM7akPEofbMXaZRi2pDzKQ9iKtUsKtqQ8ykvYirXLbGxJeZQF2Iq1y3JsSXmUiDos1IxfsCXlUSLsrEA5/2JLypvERIFPeB5BOkLMCcpi69U+5BfqBJdgq9U+dbBl5UlaYqvVPs2xZeVJbsFWq30oW5wT9MNWq316YMvKkzyArVb7kFOYE6Rgq9U+D2DLypO8gq1W+0zClpUnmYmtVvvQdqATfIitVvu8gC0rT7IYW632mYEtK0+yAlut9iGHACf4Clut9qGTQ5xgObZa7fMptqw8yTJstdqHskU6wRJstdqHDMAJosYlkAzAGaJoHeBzbFl5krew1WofegM4wXRstdqHDMAJJmGr1T5kAE4wBlut9qF1ACcYiK1W+9BKoBNEQ6boEO9iy8qT3IytVvvQbqATtMJWq33IH8AJouG0iBBTsGXlSZKw1WqfSdiy8iTlsNVqn7HYsvIkMRnYerVNP2xZeZMoyROZTVdsUXmTTdh6tU0bbFF5k+jxCauHLSpvMhdbr7a5CFtU3uQ5bL3aphi2qLzJg9h6tctJbEl5lLuwFWuX37Al5VFaYyvWLiuwJeVRqmAr1i7vYEvKq0TFuZHZPIEtKK+yEVuzNhmKLSiv8hG2Zm1yC7agvMrT2Jq1SQNsQXmV/tiatUewBLagvEpzbNXaYy+2nDxLYia2bm2xEltO3uUXbN3a4lVsMXmX2di6tcUobDF5l1HYurVFB2wxeZc22Lq1RU1sMXmX0tFwevCxGGwxeZjfsLVrgzXYQvIy0ZAlZDq2kLxMNBwffCe2kLxMdWzt2qA+tpA8zW5s9VqSHo8tI08zC1u/lnyDLSJvE/knR9E6oKPUwtavJbWxReRx0rAVbMFubAF5nVexNWzBm9gC8jqRfn5oT2wBeZ3EM9gqNiVIB4c7zRfYOjZlI7Z4vM8IbB2b8gy2eLzPJdg6NuUmbPH4gEh2DDxHHuHO8yi2lk1YjS0cP1AXW8smPIwtHF+wDVvNchphy8YXRO7RIQdjsWXjC+ph61kKnRnsDtuxFS2jF7ZkfMJ4bEVLOF8RWzI+oep5bFWLoahQt/gSW9VihmDLxTf0wla1kPO0E+gWiUexlS3iK2yx+Ig3sZUt4h5sqfiIZtjKFpBOcwAX+QFb3Ubex5aJr4jAxNHXY8vEVxQ9iK1vPWm0D+AqU7EVrucRbIn4jJoRliwkszq2RPzGEmyVa1mALQ/fEWHHR7TDlof/+BZb55BtlBnKdbpiKx0yGFsaPiQmgnwDj5I7OAIDsNXOmYotC19SNGJOk06no0JRGI6teIU3sCXhU4ruxdZ8HlmXYkvCrwzFVn0eH2HLwbfE/4Gt+1xaYMvBvwzE1n0O5AyMR/wubO1ncyO2FPxMD2ztM7aJVoERifkGW//sdmwZ+JsWQWT9p8Zhi8DnfIxsAP2wBeB3aqaj6v+3ItgC8D3PoxpAN+zuE6X3Ier/B5oC4IN5kBAFA0QAMavR9P8ldt+JHK7IQNJ/sDl214lcpiMZwDzsjhN5lP4TRf/pdDxMpNABxQAmY3ebUHkPQf+7i2P3mlCp8I/7BtARu9MEwP194Y+xu0xoWOiy/k8nYfeY0FDlkLsGMBa7w4SOLq7qfyudER1xvO2i/jNpDTDyKPG7ewYwCbuzhICmru0JbKAPQEQy2SX9n66D3VNCSOxKdwyAksJGKhe44h20nNyAIpZrXThL4kg17F4Scpw/Uiz4H+w+EibELnfaAOh86MimssNZI9ZQIECE0+C0k/rfXwW7f4QVvR3Uf0Yr7N4R1kxzzgBoBSAaiFvmlP7nYneNsEX5nc7ofyN5AUYJtRw5UORvOhMgamjtQND4iQbYvSLs06PQM4dktMfuExEOEwvbAIZi94gIi5hZhav/J7A7RIRJXKE6is+mLeCoI/HrwtP/J7QDEIWU2VhY+l9ZFLsvRH64qJCSSX9fErsnRP6oXSgxo1vKYfeDyC/1CyFg7NcLsXtB5J+rDhdU/zvoQKCopuGRgun/d9J/lNPyRIH0XxW7/URBaXuKfv/+ptVx+v37myb5HAnuJP17hIb5mg2mJWG3mygs6uYjaHB3EnaricKjbtgHDe8iBzBPkbQjPP1voxBQj1H+u3D0v74idnuJwqZkGHGjn5IDuAdJmG1T/cEpdBacNxmZZUf/Z/tgt5Nwit424gX+aIjdSsI52vxrpf/PyP3D09Tcbv75T4nFbiHhLKWWmuj/Xwr/8T7xM6T6X0+rf77gPkkyubRE7JYR7tD+mNAAbsduF+EW9XcL9P8dhX/5h6qZxgkAnQHgJ9YaDIASAPmK8Xr9n7kYu0mEm1ypN4APsFtEuIt+GNgLu0GEu7yu1X8mbQH4jM5aA1iD3R7CZUqc1RjAG9jtIdxmtcYAKAmU73hBYwDDsJtDuM0AjQHcht0cwm1aaAygNXZzCLcpqckmWxu7OYTraHKIlcZuDeE6i4H+z2A3hnCfJ4EBpGE3hnCfnsAA1mE3hnCfesAAFmE3hnCf+HPcAGZgN4ZAYAs3gMnYbSEQeI8bwL3YbSEQmMINgI4E9yNjuQFcg90WAoG7uAFcgt0WAoFO3AAoJbwfaU4G4G9qcQOogt0WAoHS3AAoK7gv4RmDKC20L/mbDMDfbFINgBLD+pKVqgFQbhhf8oFqABQa7EteUg3g/7CbQmDwHBmAv3lRNYBa2E0hMHhFNYDG2E0hMHhNNYBk7KYQGPA3AKUI9CXPqwYwGLspBAZTVQMYj90UAoPHVAOYgt0UAoMr1HOl38RuCoHCTXtDBvAxdksIHGJbvXAgxwBWYTeEQCO+8+JMthG7FQQmVR5c6dStSw8eN+6+QYP6dO/eMTm5ZWOVJsnZ3NC9++2DQvS/tW19224pDfsP6tu9W3JyU37Dxq2SVTp079690/WNLyvqVK8I28xl4XDi+zdHNbM+tqquMdm9kPO7lj5q43aEc9S3dVSllkPv3VnB/K4LwrndwbcbuNNXQsAn4es/h7OzmprctEa4VrWqg2sdJjQ0CVprR8IPPaXv7gnh3+1Lin1DIWn0OxvO5NcEfpJtUdZ4aPb6o2He7DhlwsQirs5tk1fqD6rLeGtQ57YNa2ZTq3mHPg++v+WcSGtzKspvW7nNiKUZ2uoLs6cbdwwYNm7aol+MZyQHKRkuJpWmaD8GPfUV4ts+vdH4vThgfpLp5btgZZjmJrH9tF26ewXpUHRURkFlpMeJqtSYYjjaOmui6Vl2jaDNdNWWxd7yg/ZeZ64svN4QYRO7A+hir6RSsbvT9CYwJ97srj+Bmm31hXEjtV+Cb+lgREzgkcU7pLUSHzmts4BlZut5b4KKrYzF7bRjxVsL3gsi34wEmthuUq/6FzoL+KSIvPJjoF5LQXkbzeDyfwXtA1EA7gaa+MWsYuxk3UKPibPCI6BaM1GFYfBGQYqBRaQH0MQm86odjmgt4B5pTbgmJHRtj4OjBDawQD0gCsQtQBE/WdStf0BjABnCH3cO0ADES/5d4Y3eKkgHiIJxHVDED1aVL/9HYwHbi0nqQQMQz/KK7AvnuYRzwCNqvrOs3Uw7GZA5rUIDuEJcZQ6o8lf+m08UlCZAEWutq3fXGMA5yZE20AAuE1eBw0A6FwORhkARa2zU155tK8lnDw1AYiNwEHAqv40nCg48r9yOD2rxnRoLaCisBA2gpvg+bUGVA/lvPlFQ4PkUK+xc0EFjAO8L60ADkOQ4aAeqWI89CMe4PFwDCCyFBpCZJKoCDUCS6OpmUIXOxUAkfANopnkFCM+0gAYgyXZ6K6hCWfERqRu2AYAsZkyygQQNoLL4JkN5jWMl89t4ouCEPQYIBG7TvAJES73QACSuxOCQ7OlhNbhSf+3/i7e5Y/TIPs0lW1Mxl/UYmzJ5+A1lw3pGDiUa9Rj7eErK+IHXS0xYSOX+j8L/Vr/rpe9SU39fNOH6cNzgy13Tpf/QQXfckBS273x8o1tHPJmS8tDdN9nOMlw/fANIOGT1DYAGIBH9NrXC0TAEXHXQsowsoOvKo78JOaCdnCuwxJYzlKXLc4u6J9h/TOy1z/4Aghz2z+lhy4DqPfBtFjuhujck9l7O989Sx9g7BbbS3fNS1YvO/m/iNXojiJFlDSnSZsqPYJf1nwW9y9h54FXhG4Bmu5+tFlSAu4HifoPlB5tZMGLrD5mTlnuBOqpo/YnG/XBeJc0FCQM2wlKW2tlm92pN+5vpyVwk8GuAVLx1RiikN5Tjv+gI7bo523uD5ZPje6zWu2myPY9rVlIqfPiP8NK60w4aGp3+iXS3hgMXguwagGYn54zAMwQaQAnhLT5Sy8UTSS3F2z68lDuRhCTccoW+wwda8Evi+qYZBPK6qRtTiKYLJfEN38vcoRObD5vzO69XPvePvfYYbhCcZu77VPyBv8RP/uH+pqFdl8smHmYs0XhpW723hsKn4oUaQCNQ264BlNTEgDU3VoAGINwwaq8WrxJ0R0Nil2nrtH7GuXe88H1Bd09er1x1zWaROL6U7V6p1J4vj5kIzjR+CMoMmLVFFxGXY2XVPhPe4RUTC4gZaHzvcDJ3//zVhk0neP8hDVabXDjJxHEnB7gXYNcAAj/DR/Q1lkMDEP3qLlFHEZ+LXxCczsf1XTqb/deYQeIIhJP1ci8q95ZEjQvNf4MJE9WP6JmtK77frg+e+Fv/Sq29j+nJaV6vY+LHm6R8uViZW22f1i25zX+fEhpwLpm6PpR8XX1lnVy/Ys1OvSv/t+bpRpuCqrYN4FX4gCeN5dAABCPZJorYMiYJ/ZAhHzE9B7JHSp/KpLOzXPY1yX9KpWeadam2IvWj05vnSjnuyvFbNZef1DnEP2Z8woFAwovGv4bIMrjIhmgbcrZJUyOvrloquYfuQOlmytr8/ifq5TY64erH0jQX7JVsx+QBTiiybwDD4f0/MpZDAzC8gao+p7wz111l/aim3xiEmNRJMaD0Iwf1H+yFMYkvmES+pdeRP+om5a0yE8xLYm7S/BYztF7urY2RM3uqfSd/PEsVv/FuCzlKf1ce/PH2U8Jb9NNc2SN05fkUsJoS2zsVXrHvchMBtwQVbRtAJ3h7gU8nNIBJzerXrJjbuLLV6re5fdJqRf0H7rbnD97wbWEY26mP+tbNNq6Eqyakaf7+9e7QPzbNvL97976PrdXqaKH0Od1CI43zOle3IhPhyDz0kVFIekH/iToZGo0Hdyx9Y8aM5Yd0xaNFj1acZNPKaf7cQu+KncMKzSt1eOgHcKKT9o4lXoPX/GUy074a3lteTQtcPmSbjeXQAEKc0IeF/Wr/RKwK43brb/fHCD69TBiboS9mux9Qv3yVn4ePDkocVAIdlZsMMhR1hha4U6ukQKl7txt7y1bfrZz4dvUszSAxVfBJrK5E3ujnGT2MN16kmVbfGXrZnb/JcNMh0GxXyJeUWsFq0lo6EuFLdo+xXGAARo690cp2SEhcL82k+vAw7apO25PaW+/pqxlbXJ4Gyl4UP+Fy5Zc8S1DYDX5o3tCXxly/SPfRWaaZfDX5BZZ10l8eCCwOFRnfpYv5dfcNTJn5wZTW2n4rRvuwoNH9YKMminudTWtQy7YBBOCiw3FjsS0DyGbXIxfYfWIToIP5hjdaF6ih88/op5ZVwFBun9Dqiiork8eES9dj4O0FU+ub4TvosH5zqwyMhnvHcHFHpei/hiIwSR9ifGp5ZbC7U7jK+Th4anoNUY0c2oJa9g0ADoyCRonaNYDsSdOrdg/H5EOrVwSl7/BbZglCV+uBr0Aj0d2fVEofET+dn+KSPcoQlL/Li4/XN5SWB1N8owPkqlBJpmDRlE+4XzYWqufM3y1sc9xq0OgPxP0KBK4FlewbAFx4yjQW2zeA7EHTGMupYC5qbzPKCUqr8qHebtHVD/EH3i8orqn8grMkQSqV4GCuhbEcvCJEb9v/gKv1LlLqhvx6wYV8nmlccm+uvONPSbZTa5/lTw3Kjh6AbuH2DeAdcNUJYzE0gC8eS5k6Y8b785esWLVh+wmRCay1NRxUHykOYeUJiraJisvwcZxo7XmmUigNU7sHNHiWsXgELzW+AAJw70sfLh24XymYKbiOz9LTDGWrlaIFskY/yZ8qDeRKzpcBvAyuEmxOTATF2jlouZufMA6a/xLKTMcsuSRy4AEufwjL1ReIKAKyijpQf9RYmEdCGm/vmfKGYhBmL1xufpCX6z8y6tt0kuC6WPUnc1BfxL05R8gaXQ6slx6TrLnfkC8DeA9cJVDIZFBsTAPUaKZ+2nawnvEeeiwMoJQ6DBTvlvVSH3baWDhOLZQf0XEfaO+dhtLRatl54dVguUU/i1DnNyNFF26RNpsvx8rzrcEfqnGImUt7UMW+AXwOrtpiLH7C1AACgYtn6eZNaSZZZ0KoBrBbXP6rUi6YlWTTmD/M+PtV52lB+aZ9ObAYMNdQOlYtyxJeXYFfvFRbUkwVhfDts0Qp1RtWrDoTOymf5MOdnlniKtA5074BrAdXLTYWPwWKxQvRbfYyDZ9aPnK2hQEsVMoFg9JsSnGTM5hkVbXob5MGqA9g7IBh4jOeF4qv5su6Oh/ommqBYYEhB/X4mP26Au6aaZZQGMx/JcH/0MvbvgHA4IBnjcVTLA0gUFG3Yt7d6pGqAQgWnnJ4W72VeNefa8DwvemjFolmeMZajNXVF4JZhnhSw1dOdDHYtc3Fry7p6iN3H1avm2/SaDAczxI7CMFlfdsGEAvXRo1Lp4FnrA0gUFJrATutJoOqAUgS2UxTbyV+jfNER4YJET+pc45JA2qA1upH8lDQYvvji9k6N9paaoEwRFJN6qt/0fIXUopJo+Ekr42wBgwPt20ASVB17Yzl00DxpbKbXKDdtO1h8UwrA+AqEC8t8acZDOB/apFojUkh5jBv7Fh94UReJs6dw+c+u7QFQJaiRUh1DKDfyP6DyUogpcCOgHgU2CU/BnAjuChYyVj+PCiXGoDG9hj7xOKZ6lrbn+JyPhMXr3ryr5ZhKXC/WmT2Y4Lu8K/qy4BjgHi6xTNi6KapZfmVvQTXqWuuOrMtysc0pqkWwZrtfcIKMEAjX/4Ags3AAPSIkBtAYDk0gNMWvmGqAUiCyfknWrzfp86nDPGM8Xwj4XGzFoCRjcFawbxHvOO/Vi3Xj2F43pX3jJeVVn7B/+iG+uCD1M94GQd4zondkbrlxwBeAReJvPrh9NPEAOAaBGMWqaOtDIB7qgoX+wN8Q0Y/ba7C2zDNrAUglmWdvuxpXlZKeDF/fejfYLzkiPE3oK7T6ReYr+EPvNes0WA4ZtyGygFGeeTLJ1CkN+iNYOKCE6vxqBtj/kw1o4RkqsZHs+JV72/Vcr0fEp+IsdfMWgByI2zVl4G3g3iwzXdP9O1/lF86wHCZ8mY5rV8oAT+eB80aDZYoxSGYt+fDAMqAkcU50UYETD5oYgCBt6ABvGT+UCsD4AsaYgPg72C9AYDwSNOBCBhRr9GXPcvLRHtVgQD3YtSvVILQnL3FdWUJyk/kKf39wPTddOACrFYwXw9onU7sGgB8aywVVYCKNTtiYBA0AMGCEkQ1gH3icr6kKTYAPtTXZy0C4/CfzVoAUikY/CCn8zJxLBw/osGwqP89v1b/I+gb+vtGw4Y/MIAPzRrdkdcTO4X8Nx8GADa/mTDf+0xQwcwAoDeKlQGoE2L9klgIvqslNoCv1HL91lNF3oajZj5KYNxlmAWAUEfBrCgAvZv/1RfBOBut20e10OLFaeO4FmwumGb3A4YizsbXCzzd5il1iWCP6ZDQF2UWuKlZdFJtUE/uspCHlQHwF7TYAPhYS78SGAv2pmqZtKAkXwiYpC/ja0lM7OTEPUqOGsq4bbLgRLAgVmFd3h/PXG+4JFCHX3PGbA2tMv9c3yiscAdQgc2crfCSx4Q1YAowMwMoDQ3gbfOnqgYg3u0DKUfEBsDnnIafE19TEU7FFeK400lvfRmIlBDH5fJjuoybVTVglMv6a5U/twyl1j8jCiosDpzgZL4eOYApjng0Ble4vzW5EYCPp9lJ8QcP7hYLIsdUEqEBPGT+VCsD4MNisTx4JKFhIf9L3gizpcCLeTXDdgLInSVOicJ/E4KUWB00rus7Hu96Wc2mw5RX1g7xtBY4SpstBfLp4knxi6IvePL3JjfitAVXSEKdPrRpAOVgvy2Cd1WjkqSUspoGrlLLDWESKbwRu01awN8xxwzRLiBg+mLhxepKtjApXjejY7vCbIm/F4g+NPt036nWEoVxB7TJojeY3IgDvlj7JRHo820aQDXYU0k6MQXVAAyj6Dy4253YAFbLDQB67JkcX9FfrbTEUMb3IlmS8OJ31PJ0UXELYzBxLt9Ko9LBBnSGiW819815WlyhH3iaRbLoPOAc0OgZk8fHoI7Ag1LlelAv1eK56jBaYgB8NCs2gDVquSF1ZQXwPZWIKQc+1RtqKAPDXrEhcwsR+yuUe974Egiu6SJvDQzpEoYb5cF9Ja8RVxgA7mOaLj5ECWCqX8gmTfBcQtF5AQqjQb0XLB6srqQcEpfzV5nYAMweS2IAAAlNSURBVL5Wy42DIeC3v1+eQ0AdRWQYZ3pg2Cs+Co8vjYhdhgKBWs9rYooz1j5iNiUJFAGZu00Up+6B7ZP4DcG1mF/NHhgCbAMckL55QECL6MQQFfimaGLxYFX8EgMYYmEAPMjUuDsxDrSjm7QFqvOeYL0QDHvFmx9v8ArStYYyeUZ6eN3C5wa3ssycBdfbpclHSqovt+clNQaD2/xu9UzN3tF5+dlhMHq7nfxmpYFfyTdWT1aXcg0LKXlwz3yxAXD/E6OLSg3gorhZ5mF3oVpF4FkBhr3i5MhgmiCdttfO8Vn4sYXNgDm4iibN8qyGfp6XDbHAFpdskRVQB5wZYfwQqiwDNzX5jMEBqPlJdNlsUGoeFpdPsjAAvuAqeEdDJ9c7JA1QR0ui2TIY9oo9nMFCgeQjEzM0x2vtF/s582B4lmCpKBd1m3qe7C4w4CHL6mD3amDyabYFAQOH5O4KccBjUZJ1GqBWPiIu59sxYgPg33nBpxW6xv4hkYLyDQqK5jXg4GzxtAfskIvz1FyaN+83bghKgcO3reJGxyh5AtKlu/IgpEWwRKLlIhDf8oxZxTXgnlOltfhXmx2SJJQFqCdOit2+wQ6k2AB+VMsFL8MYuMEt/lrWVNZUhdvqYNh7nfBysFas3/LLodjkUPSifAhiIAG65grytATA+rh4xTYHELIicHXTUA9MAJ4wrfkbuKco4i2XS3lMtyieU4+aQUuSXJ4Pw8QGwH2yRF/D1mAUEBQ6zykq3i1c+wCjnluEjwdOUoKX/I2qLsVeG2KgO1+maKU/TkmUt0XubgVWMBjba5ayqSefpZwz9UIKBGDWjCzxyljgQp5ZLShwLNYTqwY6ZopHaar3pGTewR8nHKXxtfrs9+XNxnJlWzVdfPd1/Gqx7yW4v8FptQhYRQjebyeXXQiYKO90a2O5cibgEZMJpfYs31nSEeiFIC5in0XSxLKae4piHrNHvGokD8sabn67XC7lN0wSVtiklgs3dLgBiX+iZUCmP5ZhiLduEorRC4qHiDHcr1SyKgNSHRkGCT018vrrvQe71hX7lempDtNmHDf4qt8SWls6Z5KisgnTMs8YN5VD5WdAwqLF4h1vjjaZsCB9SSB2AN8AOyvLfaoBTKMmicrr8EQsa0SvCNCmtcJRWH1NSqa52j62DUWHB8WetZoerxRVqAoSFHyqfx9DnwxVndtWvjt11H/b1BGNGFRaaXaRZmhf4P8J2fxZE2/LsoYcXMefN+zfxnecA7IVHbIcp1b4VXvL9FE6p4GivUAS19/Fm11aakAfo4wRRieENvAM5OWGBLuJw2Eoy9a7RUmT2mhi1489wuuUmRZaTskSp7VtOFWTAGmmYb+5VEdNlpi/Ulpp3vMV5FtB2RzevOTZQW0lr4S+mtSyBybw329lxW3nmPz3X+FRYbrFv2cPvzGUqLpivU4Tl8HzIjOmW6RNLt7yob2GOx7+YEy7i/LWPy5oOvR9MEQIvmH5skvq9eIGXSzpkfkPdlTnDcVbjf5Av5Xyz8Ix16g/naT+H+jzEmRteDLZ8NNqcVhTJ33pmKaVi8Zf2nW2Yv6HBGPVJo8sMSaLPLr29XuVz2TSvW//YkgAzE59/SL4Er1lKDeQ8b+xwtFnF20msVOLRjS4oFjilT0XKO+G9ZLkMKVuS/lBkhQ3l7NHjvy5R5/ZK7jYzMUzJnn0u1uNfVU4vy81Ne2s9m9bZIkTOXPFd1Pnl/1k5cp4+nFJ+TnD5/z/zDL8MfalYDhbXdrfs6Hh1E+yCiCi5kJ9MjkhRx4SjQ+bmmWYZVlTJWPKGsbc0pacfk1yBFyIe8O94a89bSTEN3ykFCbklQ+Wlb8busEvsgrGNcr4x/Umz9lj8ALK4TppfSVE7LC0Alj7aCPKCGhkjejTVeZF+Y/uc2nqgFel18jYMk48PlRJDNOmNvexlRzoa9n1If9JqdkpqWA2ySqI8pLUXCBOM7pjiPi4gZbC2jlkhd4A8h8ofKU3NGRCFJIqzKPQaJW49jfXimrnEmvrnaMS/HG8SYBPiNus78M59IJlHvMQ82W3UP2RS5SrVrNe49bJnbv3GTRq3NPPzpi7ePWG1P3KSRbSvMLiVfe6rxgSGR1851rZ9Phy0Y1zUZwr1ssq7Nfcs+IM+e8YsEb8Rm/4xhF9zT+fNksQ28DOw/I49920rray+T1lfa88zqyenGz/+I64Wo3r1szmgnLZWKQ+F1L8qgY519esnHMDO1stiTe//LMyachMXfTA1SZvqpgxMyBTU0JMGK6kG7v2NbX05RTOpDH6dfd660ylFkKU4yyHojdOXasOrvfOG9XC/Otafd6KHL7ekMtvqbkcgfy5Y8NXi54b3qmu1QaRSvtpM2bMmT//yxVfbdiwNTX1kHqrvTk337xhw8oVn78/fWS3JmGc3YJGbM2myV2Sm9UOY1muwPzHJMm1yiGTk2diLmyUfHNyg+qmSwdEpDI0d+J2ZunTIwbd0f2uUROfm/nZDmMycrNdeCKKKZYbTXVkpPYbVaTu4DkHtAbwGVIDCUe5ONff5XtRysz4zkvgt+FM2GfJEZHPdbmzMun5Oa3g+Q/hHGNIRAdDcjcDFslHnBWAw4pJ5AIRlRTJcxbZbDZFrc7n+TbO2SGiiVJ5K1VBswAK6LluN78+ER1UDnm7WrjFVlAWCjPdXJogHCde2YHsaVFRcWq1F8BJRAvDlDe71XHfSoYJWYQPEZ0orojnrbZGlUgweUJ7IgqppLwAglZ7LiEPr332DtghogR+bKPp+a4BdVtZHuFBRCM8wtM0428gUDrPV+mEOCcPEa3wHIU/mgcFD8yrNcGldhEuUYS7H5mGRxTNGyxuiwZfCiIceFjxIenhngEl1c8Zu350RNTAs3ixbZJDK7PpmuvBH5TlZCKil6IgrGSfLK3ubXnhFONcbRnhDvzAOcZOjxGtBpR+NdchJGiRSZOITuI1gSt/9NF7dJa5Py/yOKMvSvMIx2mki+77sE9D5T0Qe8ld80IO6nuuRm0k4SBdDSEh5/ds+WbFVxt2ctN4jxaAPEx74aHqgF02UugQUUzDLWbqPzxBnFeM8A4J46XBmgcftJcuhohuSg7/UaD9zGW9Kc7LN9TqN1sTJJ46ewDFAPiNSs16jM8JHh7bu7UoSoggCIIgCIIgCIIgCIIgCIIgCMIL/D8J+xSXM7wjvwAAAABJRU5ErkJggg==;" vertex="1" parent="1">
          <mxGeometry x="650" y="355.25" width="49.5" height="49.5" as="geometry" />
        </mxCell>
        <mxCell id="XKejNxqJNqAKCkhe8Pqw-51" value="Ceph OSD PVC" style="swimlane;whiteSpace=wrap;html=1;" vertex="1" parent="1">
          <mxGeometry x="410" y="460" width="100" height="55" as="geometry" />
        </mxCell>
        <mxCell id="XKejNxqJNqAKCkhe8Pqw-52" value="Ceph OSD PVC" style="swimlane;whiteSpace=wrap;html=1;" vertex="1" parent="1">
          <mxGeometry x="530" y="460" width="100" height="55" as="geometry" />
        </mxCell>
        <mxCell id="XKejNxqJNqAKCkhe8Pqw-61" value="OSD 2" style="text;html=1;align=center;verticalAlign=middle;resizable=0;points=[];autosize=1;strokeColor=none;fillColor=none;" vertex="1" parent="XKejNxqJNqAKCkhe8Pqw-52">
          <mxGeometry x="20" y="25" width="60" height="30" as="geometry" />
        </mxCell>
        <mxCell id="XKejNxqJNqAKCkhe8Pqw-53" value="Ceph OSD PVC" style="swimlane;whiteSpace=wrap;html=1;" vertex="1" parent="1">
          <mxGeometry x="650" y="460" width="100" height="55" as="geometry" />
        </mxCell>
        <mxCell id="XKejNxqJNqAKCkhe8Pqw-54" value="BlockStorage" style="text;html=1;align=center;verticalAlign=middle;resizable=0;points=[];autosize=1;strokeColor=none;fillColor=none;" vertex="1" parent="1">
          <mxGeometry x="415" y="520" width="90" height="30" as="geometry" />
        </mxCell>
        <mxCell id="XKejNxqJNqAKCkhe8Pqw-55" value="BlockStorage" style="text;html=1;align=center;verticalAlign=middle;resizable=0;points=[];autosize=1;strokeColor=none;fillColor=none;" vertex="1" parent="1">
          <mxGeometry x="535" y="520" width="90" height="30" as="geometry" />
        </mxCell>
        <mxCell id="XKejNxqJNqAKCkhe8Pqw-56" value="BlockStorage" style="text;html=1;align=center;verticalAlign=middle;resizable=0;points=[];autosize=1;strokeColor=none;fillColor=none;" vertex="1" parent="1">
          <mxGeometry x="655" y="520" width="90" height="30" as="geometry" />
        </mxCell>
        <mxCell id="XKejNxqJNqAKCkhe8Pqw-57" value="" style="endArrow=classic;html=1;rounded=0;entryX=0.5;entryY=0;entryDx=0;entryDy=0;" edge="1" parent="1" target="XKejNxqJNqAKCkhe8Pqw-51">
          <mxGeometry width="50" height="50" relative="1" as="geometry">
            <mxPoint x="460" y="420" as="sourcePoint" />
            <mxPoint x="550" y="310" as="targetPoint" />
          </mxGeometry>
        </mxCell>
        <mxCell id="XKejNxqJNqAKCkhe8Pqw-60" value="OSD 1" style="text;html=1;align=center;verticalAlign=middle;resizable=0;points=[];autosize=1;strokeColor=none;fillColor=none;" vertex="1" parent="1">
          <mxGeometry x="430" y="485" width="60" height="30" as="geometry" />
        </mxCell>
        <mxCell id="XKejNxqJNqAKCkhe8Pqw-62" value="&lt;div style=&quot;text-align: start;&quot;&gt;&lt;span style=&quot;background-color: initial; font-size: 0px;&quot;&gt;&lt;font face=&quot;monospace&quot; color=&quot;rgba(0, 0, 0, 0)&quot;&gt;OSD&lt;/font&gt;&lt;/span&gt;&lt;/div&gt;" style="text;html=1;align=center;verticalAlign=middle;resizable=0;points=[];autosize=1;strokeColor=none;fillColor=none;" vertex="1" parent="1">
          <mxGeometry x="690" y="485" width="20" height="30" as="geometry" />
        </mxCell>
        <mxCell id="XKejNxqJNqAKCkhe8Pqw-63" value="OSD 3" style="text;html=1;align=center;verticalAlign=middle;resizable=0;points=[];autosize=1;strokeColor=none;fillColor=none;" vertex="1" parent="1">
          <mxGeometry x="670" y="485" width="60" height="30" as="geometry" />
        </mxCell>
        <mxCell id="XKejNxqJNqAKCkhe8Pqw-67" value="" style="image;sketch=0;aspect=fixed;html=1;points=[];align=center;fontSize=12;image=img/lib/mscae/Cache_Redis_Product.svg;" vertex="1" parent="1">
          <mxGeometry x="584.81" y="218.99999999999997" width="50" height="42" as="geometry" />
        </mxCell>
        <mxCell id="XKejNxqJNqAKCkhe8Pqw-68" value="" style="shape=image;verticalLabelPosition=bottom;labelBackgroundColor=default;verticalAlign=top;aspect=fixed;imageAspect=0;image=data:image/png,iVBORw0KGgoAAAANSUhEUgAAAZAAAAGQCAMAAAC3Ycb+AAACvlBMVEX////9/vzY68263KeXyXeGwWJzt0hts0Bssz5utEJ3uU+JwmedzIDA367f7tXY68yl0Yt7u1OEwF+w1pnh79j5/PfB4K+HwWORxnDN5sDC4LB8u1SKw2jT6cbX68vl8d36/fms1ZRutEG63Kbk8dyEwGD0+fC93qrV6si12aDc7dFxtkbs9efz+fBxtUWVyHax15vQ6MPr9Ob+//56u1KUyHO32qLX68ry+O9ttEB/vVmezYK+3qv1+vOHwWSl0YrK5Lvm8t52uE2LxGqw15rS6MXu9umXyXi22qLb7dDx+O6Dv174+/ap04/J5Lvp8+J1uEyTx3Kv1pjU6cjv9ura7M/1+vJvtUOAvluiz4bC4LHk8duAvlqPxW2VyHWo0o7O58G22qH9/v3c7tKr1JLq9ON5ulG12Z/s9eWPxW602Z/W6sq93arw9+t8vFWczH6Zy3yFwGH0+fFwtUTO5sChz4bG4rV2uEz7/fp0t0qYynh4uU+u1paNxGvM5b6326N5ulCay33Z7M7y+O6by36ay3ut1ZR9vFek0Im/3qy426Sm0Yz2+vOIwmXV6smDv19ytkbL5b2t1ZXG4rbo8+BytkeOxWygzoTT6MX2+vT+/v6dzYHt9eh7u1TH47fx9+2UyHTd7tK526SfzoPN5r/i8Nn3+/X5/PjK5bzP58Pj8Nqu1Zf8/ft3uU602J6x15qp05DP58Lv9+uq05F1uEuczH+j0IiCv12Mw2miz4eSx3HE4bOz2J3r9OSn0o3J5Ll+vVj6/PiZynq83and7dN/vVrD4bLn8t+QxW7B36/n8uDp9OLg7tbo8+Ht9unZ7M2+3qy73Ke526V6ulHw9+y73aiWyXbe7dSBvlzS6MSq1JGYynmQxm+Tx3N+vFeezYHF4rTU6cey2J2Cvl3I47jg79es1JOhzoWy2Jy/363mr9GjAAASp0lEQVR4nO3d+aNW0xoH8BN12qdJpTTcVKKUJgkNpEQTRcaoTGkihYqGi0o0pzKLuEKRSpK4l0zdUpQ04Jpn7v0v7jmdc3LO2c/a71rPWms/a5++n1+9e+29nqXzvnvvZz1PXh4AAAAAAAAAAAAAAAAAAAAAAAAAAAAAAAAAAAAAAAAAAAAAAAAAAAAAAAAAAAAAAAAAAAAAAAAAAAAAAAAAeFDlmGOrVsuvHqWooEbNWrXrSE88TMfVrZfmUpRV//gG0rMPTcMTGkmtRrHGTaRDEJSmf5NdjiLNTpSOQjCaN5NejGJVW0hHIggtT5JeiCNanSwdjACc0lp6Gcqq2kY6HtKatJJeg/LqHeW/gU+VXoCY6m2lYyKpnXT4KUfxitSWjj3tNOm4SGkuHXmF9h2kIyOjYyfpyKvUlw6NjM7ScVc7XTo2ErpIRz3JGdLRSV/XM6WDnuQs6fCk72zpmCfrJh2ftHXvIR3yZD2lA5S2c6Qjnsu50hFKVwPpeOfUqZd0jFJ1nnS8c+stHaM09ZGOto7zpaOUnip9pYOt4wLpMKXnQulY6+knHae09JeOtKYzu0pHKiUDpCOta6B0pNIxSDrO2lpdJB2rVFwsHWd9taRjlYam0lE2cRSkmA7Olw6yiUbS4fJviHSMzVwiHS/fLpWOsKGhLaUj5tll0hE2dbl0xPy6Qjq+5q6UjplXAWw7MFVVOmY+hZc5quEq6aj5c/Uw6eByXCMdNn+ulY4tz3DpuPkyQjqyTPkNpSPnib+dayOvu76ZxzyvG6Qj58eNnsI18qYGowqHH3zz6PaezhCNkY6dD6PG+gnWuCpHTjG+lp9TRLcIxs2bW72EqvqEcie5zctJKuUmnol+SmYMqnAaT3c6kyrf29zbvQSqduw8d3g5T1TpNkzX8RKmO+MnmuxnG9CUq9OPmVd3egnTVOJMN3g5U3RX6iHz6m4vQZo2nTiVn3+LUTQi9aB51HKGlxjNpM41/e9ezhU1SztoPt3jJ0b3kCe718/JovtSDppHHTyFaBZ5Nk+/s6LZo1IOmz++9tvSmYVzPJ0tGpdy2Ly531eEbiJP5+tfSNRjbsqB86WnrwilvCDRAykHzhObVMVJD86bN2e+6r+aLcj8BWcvXLR4pMXVRJWidtMS/kPxOc0Pf4+O6qZ4imuyIEtvLPlOfsjiV9iy1KLm0WLu7JeXyRpcQa6qwYI8XOYD47hXFEWP+I1VGh7lzn3ppWWHafEY8RH9BVlU7hNth3IvqhIkMj7OnPoTFX71U7tKtBdkToWP9Ge/TT7JT5TS8yRz4u1iI/WOf0h3Qdo/VfEzK59mXlf0jPsYpanrKt60n40P9Vy8XKbugswjPvUw78KyXpZmEWvS1Z+kxvpH7HO6C0L+WuVWvznOYXhS14aVqljwPDnY6tgHNRek72Dyc8yKj5lOZHyBM+Me9HrkvRj7pOaCEO8VDxvOubpMl6V5iTPfAlVR0HgJOssFYa5I+zUuYiOC1YJCmWwefwSjuSCz16qGjP8V1JHZsjQvc2b7inK4+Mty3S/1dcoxX+VcYlbL0qzfwJhrwh/o+GYf3QXZqB70AcY1ZjWR8TXGVDeph7sk/mndBamR8K6PVbnrdcvQiNjMmOi96uFWEreY2o9O3lCP22YL4zrPtIyNiJnm8xy6RD3cm8Tn9R8u9lEPfJr5dUbRarvYSODMU3EDUmQr9XmDx+8L1UMfy7jSVtlr/PKW+SzPVg7W4W3yAJMXVP9crxz9X+aXGj1tHaCUvWM+R/UXyBWK+ihGr3AbKcuHs95pvmQfozQNNv+qLFDu0F+oOsTsnfoWZV8QThn6jJWlecN8hsq9ru8qDzHNOlH+WuWkcr3sIEyp2WY+v7dVY72nPsY4Deh9xTl6MfYwbKAyvUPF+Jp8VDFU0t5287ysFYqzcB4zZqgszQTz2alu0UcnHcRIlOuiOA9n/8pmJ8FKwwfGc5vxIT3SxsSjOJmLinsdzq6SjxyFy7vt5nOL7xU8LMc+H86CtB9Pn4pTu7bijtNALZliPLOx9Ej/znEYK7d3B32HyPgdEl3sKmR+kU85ktGVDSfnqpfJS7Z+kL7sJ8wvO9rpKmY+fWw+r1X0SLtyHcfMft9NHjbe/LqjfMVXX1AYSYH0/2i583S42xE+IY/j5M4lvL8Jxevms+pbhRpIIymYuyD0335W9ahP3UXOj5WMEjPxtNEi9XMfyN6wQ7/O4OxTaOwscp5wUv27UwOdq3EgfwcV+SDzFca1h16W5iJGv/rbqYEm6+Q88heELjXKqYE2yV3wfOAkcTSnBiJy3eMs9hiSj+LVz5UTbHcYPuf2MCZE/ubdq3WoxYKQrzP0zlrBsJDL0nByasiHpnrFnGx24R5DHUq/Kc5hq8MAOvYsZz5UUZcxeofaLMhS6lDlu8lEp7iMoUstOd3wRlIjaW4UtdqnTj0Z/IwxgYR3a9JYibLUpr0lmttKrBaELCXE60DaxGUU3bmSNZl9xEifax5rV8mBer/Eq9Q5NsyyNFU5c9nSkhhpmebBdgtCPSBgpTEGWpaGV2KGukPTbiVttyBUy3TW12ChEPvrXcOayX5ipJN0D7YsPkPlujEykosE2F9vN28m1G8d7fowlgtyOnHwAd40oj1Og+nA4OWseeQT+/XO1z7ackHqEwc3Z00jilq7Dae9hHS2JI8TQ+kXp7atl0W8zOjO7TlDlDqQxHoKFNGNID7SPtp2QajaPhqvYUhbwkpk3MWcBvF6e/1B7aNtF+Ra4uhzONMo8qrbiNo5kTsLok6FwZtU2wWh/vDzi2l1cBtTK8oifLlsi4/1vv7RtgtScCh+NOsB6WHXOw6qhS+4c+hLJK1dqH+4dRFM4hm8Rbf3mx2Hla0hVe1NC1X0wiCe1gtCfIVZFH0O5qkvs6xOoS+J0QzqcVgvyMPxo5/ibJMu8ZXbuLK1Zs+A+Jmz1iCPyHpBiPyKlf8xn0apQN4dMnJHS42Oj3aoh/7h1gtC7TPlFoksNDSMzFLu45+ILN7ewuBw6wV5izg8XrhOXxhJWhYz+Dw+mskbCesFqUHcXts0yzrecWhZ1nCK/pQ4NT7c1waHWy/IUKKSlk3D3iASS21aDBH7QkySta0XZBiRUsrZJ1KKuq9KHVE2SRuRHWCyiZ9u6GLwN6c68aTAZkGCSIafZXH9lgtCv8o+S38A5wsSQg3Zbyyu/+74cFMNDqeLHxqUvWlPvAu3WhBVZYI02UyASFR+yODwatT1HDJ4xTSNuHGw+VIPYtMhK/unBPEry+g3AtVW+xGD4w8SX8JWDXpC6ND6rcX1E9Upje77qS1+Sw2Opx5ucqpnHXGh6+gyfGlx/cSjk7kmL7VbxbMPV5ic/ztiPuxOFkUWEQOmjd34odAL8eGqGNXliLXfvMioGBlx/lE7zKZQ3gk+Imxok8X1f0+MZ7b1skKpvavNnjwTf2GW5KpWkCiElki8/ORiVGaU4a+2zmV/uX71g9nB78RPr7k1RSGEp4smv2oqyicaSZi2HKlx6uSSI8cY74cgXrruMx2jnBD27jATxot9HB+vn/EgG37c3e/+FV90LjA9sNPk+Ol/Mj59GUGU2mCVhi71c3y8zdzcQXPUtjaDHIu4MN6q32IxA+KFCDt30Nx7xNmt7gsTSpqn6BeLGSwgxmN3ojRGVWC0eKUeRS/6jrWWryxmELuPKNTEJiQmehB5clcavNKPGdbLe7C1TOJPYTlRQ30yozwHC/V/Q1ubAUMpwjjQYg7diPGsniYZoGrNt7MZkPiJIqK78e/Nv1DvmGz6fZvYS5z7e4vxPvAcZ33z+JO4jBiOU1KIgfrRO9jmwUkfz2HWZzENsgcdqzGUMar0YluL8cjXZUKYLRqLUF1Wj7MIi7ZOsY7FefwOuUWC2vfJaN9SgtrUlmf1CFwTdQuU9yt/vB/9RtjQVex51KOGs/gXp43K2NHfABzTY67nEBviVOouRhVjr1KDHxlN5H4ni5QmupKnHF7lmSKLqeH4W050kS2L+H95D670G19zl3OnQqZfjvL9T+QOag6sZsrFwms1uX6a07n8xo+NFiJlkeq2qyuhI6YYdo4vnTJejR0cHVTZtLwP+bdTxIs2ebxqbIXIjh6/s4OjgS67wGj1V4L8CS1Ou8xVRUPI4fh/P3LrR57xYu5wnRJaxkqi2tXqmELdM+dVIboRO0Lfw/HTG6j3niHozn25Q+/zsNkJlGgDsW8qj1+vJfrBZ1Ct5O74QctvSQ7HLzuSjK64kKu/khpZKz0IXesxp0T/E8m7nh2jJIrW29dxx6PSL0PBavhQ6DEiYa5QS4uXw0pv0pfOzwwIYRubEqcnShHyviAvbxujJWoO1Iv0Iuz7HiKDPyDsx6X96fGs0iIpk8hfdIa7GMrKp38hBGMBc15UGZoijJZWSQ4qeoTzHy+HsIktyRruH5kJigHv40aK0vdSxVm0SwVXFH5vyduYM1PWTzfZlptDvTMU5zApsFIe2aknLD2ZU/tGNeA+V9nX1SaqTsFOJ1Z0DQ0KtxRxdJVqxBGG23AUBii/fvl3oEQyangMKimUM1tZKKSjTfpaqT+UF8x+Khq95iWArrGrFpL984pZ7dooMky9+2869/lCtIFsURqeN7gTbKoeswunx+Bf7qXb3x5Wiz0qtZ0hRA3Zb95+Vw/a5gV23MjKdUfotBSlkX3FgnQ3d4obknoC/szdSzOzRcKoFps817mOmz/sdJqaSaNOP5aznbF+YoWe/rw2G0XOcRszr/iPTp9OHPe5Tab3JCOTH20M5v+iLiD2GoVLv+VERURt47LGv6vfPCGKln2eo+beBezrjA64i1YKJlZnT/TWHEOvGa77jP/BnNlr/ARYuoVvwFiNl4vlThnYc3nuBJHG26liWuXx/x2rElfCtd4iF5TaSVNRnVmd1S0AVj2wM+G+4whmR7bDbrENUOrYb3wi3T6Ncwed3Pu82eUzXTqtajy69rqGWsdblQjQWfDA1LSYbo5v9jKmjxl0308nb393yE37t7//dZ3N2kno0y+zWQ9ym1Hg1tlM+E/fV/ecQVeMuE50Ukbg/rSZ8q6ke3Z7e0x+PMct9HpxvrSx2L4eRZMSnmtZ62O1HNEOj5fm02q7aRNVlh1hNX4vg2o5ngmW6dKL/ZS2H8NNHiulypAJH7u9YYll1IZQW4+wW5iVUuSQZQE7X7aU872th/ivo0rNc31NKfrUevaN3PYbGM5sYF/GtLCa3hpyUB3uBkWyIUMDbv5FWYG1hTa0hv/+54jH9rv5cu/f2/5a6HLxWeKk9tXI3fbpHR3HWZWsPqKOg6CIGukkDL/+ZFcpof8v7G305SWkKmWERbPfcnbs52cJrhsyxdFVtCJa8mRNZ0exiPLrsjKbW061ee9RQa7XmVkw3l04opoHHjU8+/PzXO6unq1K0c+U4x1GJIp2LSLr+FDW7pt3p9NzR1N9xik104e6jUrUenGfnO/Lq/y+83bnW0bDKO1uz0Nln+o9/xx44jaqgGZeXvcWl5w+0y4VWOH8lAPnja/KPmMvmLNp9c4buw0asW7dupeO6fbi7o11v13q5n6DQHR/zyhvRTJSNUyxgTeL7B+xBoDogplZc6WD6cB86SA65auOTIpU+7Yzaqx0PG0F0bveIW5ZmmDkzhTOGIvE/xBQXXez7RTpkFqZkclUxWRbpYNqI/QSMxy93Ne+Sk34JWY4+PuPxWWgxAyHj4J9qRggHTlPHpIOLJe7RKTApNUPzzGi63olYZ/IKGGon5zvIIyWDi5HH+moebTWOvM8fSF1w3Nvp3R4zWWoxAwHv8uTkOTiK9nnvDKyZwWBdcNz71vpEJtZJB0v7zZLh9hIva7S8fLvv9JBNkF16q1sRm2QjrK+ELvhuWe5az9NScUaK5Gl0nHWVVc6UinhV5JO1/JAu+G594R0qPX8TzpOqeloVZYmLT2lw5SiRdLB1hFuNzwP2PXv03OWdIxS1UU63LmRLZMrr8el452LopFfpbVXOuA5zMh0iRmOutIhT5btEjMcg4NOZGwtHR4BC6WDniTzJWY4lklHXS1LrUHc+UQ67ErT9GqVVzq7pQOv4qP2Ziaw27n55a9gcPCcFN1zbbV0VCQtkI5+3BfSMZF1q3T8K+ojHRFpKxzULXXnV58tADJizHfSq/CXrcqG0keV2t4KKpl5K2uNvryZ+Ecr6cWIohoDj7oHvAn2bhL+VzL/gN+WPtnTvfYusdXoNGBFJd62xteiaa30HzgWNLvr5WekZx6uzyb8Nmtju9RsXL1iX0fpOQMAAAAAAAAAAAAAAAAAAAAAAAAAAAAAAAAAAAAAAAAAAAAAAAAAAAAAAAAAAAAAAAAAAAAAAAAAAAAAAABUWv8HF/WkH1Nv95EAAAAASUVORK5CYII=;" vertex="1" parent="1">
          <mxGeometry x="525.19" y="212" width="56" height="56" as="geometry" />
        </mxCell>
        <mxCell id="XKejNxqJNqAKCkhe8Pqw-69" value="" style="image;sketch=0;aspect=fixed;html=1;points=[];align=center;fontSize=12;image=img/lib/mscae/Cache_Redis_Product.svg;" vertex="1" parent="1">
          <mxGeometry x="584.81" y="218.99999999999997" width="50" height="42" as="geometry" />
        </mxCell>
        <mxCell id="XKejNxqJNqAKCkhe8Pqw-70" value="" style="shape=image;verticalLabelPosition=bottom;labelBackgroundColor=default;verticalAlign=top;aspect=fixed;imageAspect=0;image=data:image/png,iVBORw0KGgoAAAANSUhEUgAAAZAAAAGQCAMAAAC3Ycb+AAACvlBMVEX////9/vzY68263KeXyXeGwWJzt0hts0Bssz5utEJ3uU+JwmedzIDA367f7tXY68yl0Yt7u1OEwF+w1pnh79j5/PfB4K+HwWORxnDN5sDC4LB8u1SKw2jT6cbX68vl8d36/fms1ZRutEG63Kbk8dyEwGD0+fC93qrV6si12aDc7dFxtkbs9efz+fBxtUWVyHax15vQ6MPr9Ob+//56u1KUyHO32qLX68ry+O9ttEB/vVmezYK+3qv1+vOHwWSl0YrK5Lvm8t52uE2LxGqw15rS6MXu9umXyXi22qLb7dDx+O6Dv174+/ap04/J5Lvp8+J1uEyTx3Kv1pjU6cjv9ura7M/1+vJvtUOAvluiz4bC4LHk8duAvlqPxW2VyHWo0o7O58G22qH9/v3c7tKr1JLq9ON5ulG12Z/s9eWPxW602Z/W6sq93arw9+t8vFWczH6Zy3yFwGH0+fFwtUTO5sChz4bG4rV2uEz7/fp0t0qYynh4uU+u1paNxGvM5b6326N5ulCay33Z7M7y+O6by36ay3ut1ZR9vFek0Im/3qy426Sm0Yz2+vOIwmXV6smDv19ytkbL5b2t1ZXG4rbo8+BytkeOxWygzoTT6MX2+vT+/v6dzYHt9eh7u1TH47fx9+2UyHTd7tK526SfzoPN5r/i8Nn3+/X5/PjK5bzP58Pj8Nqu1Zf8/ft3uU602J6x15qp05DP58Lv9+uq05F1uEuczH+j0IiCv12Mw2miz4eSx3HE4bOz2J3r9OSn0o3J5Ll+vVj6/PiZynq83and7dN/vVrD4bLn8t+QxW7B36/n8uDp9OLg7tbo8+Ht9unZ7M2+3qy73Ke526V6ulHw9+y73aiWyXbe7dSBvlzS6MSq1JGYynmQxm+Tx3N+vFeezYHF4rTU6cey2J2Cvl3I47jg79es1JOhzoWy2Jy/363mr9GjAAASp0lEQVR4nO3d+aNW0xoH8BN12qdJpTTcVKKUJgkNpEQTRcaoTGkihYqGi0o0pzKLuEKRSpK4l0zdUpQ04Jpn7v0v7jmdc3LO2c/a71rPWms/a5++n1+9e+29nqXzvnvvZz1PXh4AAAAAAAAAAAAAAAAAAAAAAAAAAAAAAAAAAAAAAAAAAAAAAAAAAAAAAAAAAAAAAAAAAAAAAAAAAAAAAAAAeFDlmGOrVsuvHqWooEbNWrXrSE88TMfVrZfmUpRV//gG0rMPTcMTGkmtRrHGTaRDEJSmf5NdjiLNTpSOQjCaN5NejGJVW0hHIggtT5JeiCNanSwdjACc0lp6Gcqq2kY6HtKatJJeg/LqHeW/gU+VXoCY6m2lYyKpnXT4KUfxitSWjj3tNOm4SGkuHXmF9h2kIyOjYyfpyKvUlw6NjM7ScVc7XTo2ErpIRz3JGdLRSV/XM6WDnuQs6fCk72zpmCfrJh2ftHXvIR3yZD2lA5S2c6Qjnsu50hFKVwPpeOfUqZd0jFJ1nnS8c+stHaM09ZGOto7zpaOUnip9pYOt4wLpMKXnQulY6+knHae09JeOtKYzu0pHKiUDpCOta6B0pNIxSDrO2lpdJB2rVFwsHWd9taRjlYam0lE2cRSkmA7Olw6yiUbS4fJviHSMzVwiHS/fLpWOsKGhLaUj5tll0hE2dbl0xPy6Qjq+5q6UjplXAWw7MFVVOmY+hZc5quEq6aj5c/Uw6eByXCMdNn+ulY4tz3DpuPkyQjqyTPkNpSPnib+dayOvu76ZxzyvG6Qj58eNnsI18qYGowqHH3zz6PaezhCNkY6dD6PG+gnWuCpHTjG+lp9TRLcIxs2bW72EqvqEcie5zctJKuUmnol+SmYMqnAaT3c6kyrf29zbvQSqduw8d3g5T1TpNkzX8RKmO+MnmuxnG9CUq9OPmVd3egnTVOJMN3g5U3RX6iHz6m4vQZo2nTiVn3+LUTQi9aB51HKGlxjNpM41/e9ezhU1SztoPt3jJ0b3kCe718/JovtSDppHHTyFaBZ5Nk+/s6LZo1IOmz++9tvSmYVzPJ0tGpdy2Ly531eEbiJP5+tfSNRjbsqB86WnrwilvCDRAykHzhObVMVJD86bN2e+6r+aLcj8BWcvXLR4pMXVRJWidtMS/kPxOc0Pf4+O6qZ4imuyIEtvLPlOfsjiV9iy1KLm0WLu7JeXyRpcQa6qwYI8XOYD47hXFEWP+I1VGh7lzn3ppWWHafEY8RH9BVlU7hNth3IvqhIkMj7OnPoTFX71U7tKtBdkToWP9Ge/TT7JT5TS8yRz4u1iI/WOf0h3Qdo/VfEzK59mXlf0jPsYpanrKt60n40P9Vy8XKbugswjPvUw78KyXpZmEWvS1Z+kxvpH7HO6C0L+WuVWvznOYXhS14aVqljwPDnY6tgHNRek72Dyc8yKj5lOZHyBM+Me9HrkvRj7pOaCEO8VDxvOubpMl6V5iTPfAlVR0HgJOssFYa5I+zUuYiOC1YJCmWwefwSjuSCz16qGjP8V1JHZsjQvc2b7inK4+Mty3S/1dcoxX+VcYlbL0qzfwJhrwh/o+GYf3QXZqB70AcY1ZjWR8TXGVDeph7sk/mndBamR8K6PVbnrdcvQiNjMmOi96uFWEreY2o9O3lCP22YL4zrPtIyNiJnm8xy6RD3cm8Tn9R8u9lEPfJr5dUbRarvYSODMU3EDUmQr9XmDx+8L1UMfy7jSVtlr/PKW+SzPVg7W4W3yAJMXVP9crxz9X+aXGj1tHaCUvWM+R/UXyBWK+ihGr3AbKcuHs95pvmQfozQNNv+qLFDu0F+oOsTsnfoWZV8QThn6jJWlecN8hsq9ru8qDzHNOlH+WuWkcr3sIEyp2WY+v7dVY72nPsY4Deh9xTl6MfYwbKAyvUPF+Jp8VDFU0t5287ysFYqzcB4zZqgszQTz2alu0UcnHcRIlOuiOA9n/8pmJ8FKwwfGc5vxIT3SxsSjOJmLinsdzq6SjxyFy7vt5nOL7xU8LMc+H86CtB9Pn4pTu7bijtNALZliPLOx9Ej/znEYK7d3B32HyPgdEl3sKmR+kU85ktGVDSfnqpfJS7Z+kL7sJ8wvO9rpKmY+fWw+r1X0SLtyHcfMft9NHjbe/LqjfMVXX1AYSYH0/2i583S42xE+IY/j5M4lvL8Jxevms+pbhRpIIymYuyD0335W9ahP3UXOj5WMEjPxtNEi9XMfyN6wQ7/O4OxTaOwscp5wUv27UwOdq3EgfwcV+SDzFca1h16W5iJGv/rbqYEm6+Q88heELjXKqYE2yV3wfOAkcTSnBiJy3eMs9hiSj+LVz5UTbHcYPuf2MCZE/ubdq3WoxYKQrzP0zlrBsJDL0nByasiHpnrFnGx24R5DHUq/Kc5hq8MAOvYsZz5UUZcxeofaLMhS6lDlu8lEp7iMoUstOd3wRlIjaW4UtdqnTj0Z/IwxgYR3a9JYibLUpr0lmttKrBaELCXE60DaxGUU3bmSNZl9xEifax5rV8mBer/Eq9Q5NsyyNFU5c9nSkhhpmebBdgtCPSBgpTEGWpaGV2KGukPTbiVttyBUy3TW12ChEPvrXcOayX5ipJN0D7YsPkPlujEykosE2F9vN28m1G8d7fowlgtyOnHwAd40oj1Og+nA4OWseeQT+/XO1z7ackHqEwc3Z00jilq7Dae9hHS2JI8TQ+kXp7atl0W8zOjO7TlDlDqQxHoKFNGNID7SPtp2QajaPhqvYUhbwkpk3MWcBvF6e/1B7aNtF+Ra4uhzONMo8qrbiNo5kTsLok6FwZtU2wWh/vDzi2l1cBtTK8oifLlsi4/1vv7RtgtScCh+NOsB6WHXOw6qhS+4c+hLJK1dqH+4dRFM4hm8Rbf3mx2Hla0hVe1NC1X0wiCe1gtCfIVZFH0O5qkvs6xOoS+J0QzqcVgvyMPxo5/ibJMu8ZXbuLK1Zs+A+Jmz1iCPyHpBiPyKlf8xn0apQN4dMnJHS42Oj3aoh/7h1gtC7TPlFoksNDSMzFLu45+ILN7ewuBw6wV5izg8XrhOXxhJWhYz+Dw+mskbCesFqUHcXts0yzrecWhZ1nCK/pQ4NT7c1waHWy/IUKKSlk3D3iASS21aDBH7QkySta0XZBiRUsrZJ1KKuq9KHVE2SRuRHWCyiZ9u6GLwN6c68aTAZkGCSIafZXH9lgtCv8o+S38A5wsSQg3Zbyyu/+74cFMNDqeLHxqUvWlPvAu3WhBVZYI02UyASFR+yODwatT1HDJ4xTSNuHGw+VIPYtMhK/unBPEry+g3AtVW+xGD4w8SX8JWDXpC6ND6rcX1E9Upje77qS1+Sw2Opx5ucqpnHXGh6+gyfGlx/cSjk7kmL7VbxbMPV5ic/ztiPuxOFkUWEQOmjd34odAL8eGqGNXliLXfvMioGBlx/lE7zKZQ3gk+Imxok8X1f0+MZ7b1skKpvavNnjwTf2GW5KpWkCiElki8/ORiVGaU4a+2zmV/uX71g9nB78RPr7k1RSGEp4smv2oqyicaSZi2HKlx6uSSI8cY74cgXrruMx2jnBD27jATxot9HB+vn/EgG37c3e/+FV90LjA9sNPk+Ol/Mj59GUGU2mCVhi71c3y8zdzcQXPUtjaDHIu4MN6q32IxA+KFCDt30Nx7xNmt7gsTSpqn6BeLGSwgxmN3ojRGVWC0eKUeRS/6jrWWryxmELuPKNTEJiQmehB5clcavNKPGdbLe7C1TOJPYTlRQ30yozwHC/V/Q1ubAUMpwjjQYg7diPGsniYZoGrNt7MZkPiJIqK78e/Nv1DvmGz6fZvYS5z7e4vxPvAcZ33z+JO4jBiOU1KIgfrRO9jmwUkfz2HWZzENsgcdqzGUMar0YluL8cjXZUKYLRqLUF1Wj7MIi7ZOsY7FefwOuUWC2vfJaN9SgtrUlmf1CFwTdQuU9yt/vB/9RtjQVex51KOGs/gXp43K2NHfABzTY67nEBviVOouRhVjr1KDHxlN5H4ni5QmupKnHF7lmSKLqeH4W050kS2L+H95D670G19zl3OnQqZfjvL9T+QOag6sZsrFwms1uX6a07n8xo+NFiJlkeq2qyuhI6YYdo4vnTJejR0cHVTZtLwP+bdTxIs2ebxqbIXIjh6/s4OjgS67wGj1V4L8CS1Ou8xVRUPI4fh/P3LrR57xYu5wnRJaxkqi2tXqmELdM+dVIboRO0Lfw/HTG6j3niHozn25Q+/zsNkJlGgDsW8qj1+vJfrBZ1Ct5O74QctvSQ7HLzuSjK64kKu/khpZKz0IXesxp0T/E8m7nh2jJIrW29dxx6PSL0PBavhQ6DEiYa5QS4uXw0pv0pfOzwwIYRubEqcnShHyviAvbxujJWoO1Iv0Iuz7HiKDPyDsx6X96fGs0iIpk8hfdIa7GMrKp38hBGMBc15UGZoijJZWSQ4qeoTzHy+HsIktyRruH5kJigHv40aK0vdSxVm0SwVXFH5vyduYM1PWTzfZlptDvTMU5zApsFIe2aknLD2ZU/tGNeA+V9nX1SaqTsFOJ1Z0DQ0KtxRxdJVqxBGG23AUBii/fvl3oEQyangMKimUM1tZKKSjTfpaqT+UF8x+Khq95iWArrGrFpL984pZ7dooMky9+2869/lCtIFsURqeN7gTbKoeswunx+Bf7qXb3x5Wiz0qtZ0hRA3Zb95+Vw/a5gV23MjKdUfotBSlkX3FgnQ3d4obknoC/szdSzOzRcKoFps817mOmz/sdJqaSaNOP5aznbF+YoWe/rw2G0XOcRszr/iPTp9OHPe5Tab3JCOTH20M5v+iLiD2GoVLv+VERURt47LGv6vfPCGKln2eo+beBezrjA64i1YKJlZnT/TWHEOvGa77jP/BnNlr/ARYuoVvwFiNl4vlThnYc3nuBJHG26liWuXx/x2rElfCtd4iF5TaSVNRnVmd1S0AVj2wM+G+4whmR7bDbrENUOrYb3wi3T6Ncwed3Pu82eUzXTqtajy69rqGWsdblQjQWfDA1LSYbo5v9jKmjxl0308nb393yE37t7//dZ3N2kno0y+zWQ9ym1Hg1tlM+E/fV/ecQVeMuE50Ukbg/rSZ8q6ke3Z7e0x+PMct9HpxvrSx2L4eRZMSnmtZ62O1HNEOj5fm02q7aRNVlh1hNX4vg2o5ngmW6dKL/ZS2H8NNHiulypAJH7u9YYll1IZQW4+wW5iVUuSQZQE7X7aU872th/ivo0rNc31NKfrUevaN3PYbGM5sYF/GtLCa3hpyUB3uBkWyIUMDbv5FWYG1hTa0hv/+54jH9rv5cu/f2/5a6HLxWeKk9tXI3fbpHR3HWZWsPqKOg6CIGukkDL/+ZFcpof8v7G305SWkKmWERbPfcnbs52cJrhsyxdFVtCJa8mRNZ0exiPLrsjKbW061ee9RQa7XmVkw3l04opoHHjU8+/PzXO6unq1K0c+U4x1GJIp2LSLr+FDW7pt3p9NzR1N9xik104e6jUrUenGfnO/Lq/y+83bnW0bDKO1uz0Nln+o9/xx44jaqgGZeXvcWl5w+0y4VWOH8lAPnja/KPmMvmLNp9c4buw0asW7dupeO6fbi7o11v13q5n6DQHR/zyhvRTJSNUyxgTeL7B+xBoDogplZc6WD6cB86SA65auOTIpU+7Yzaqx0PG0F0bveIW5ZmmDkzhTOGIvE/xBQXXez7RTpkFqZkclUxWRbpYNqI/QSMxy93Ne+Sk34JWY4+PuPxWWgxAyHj4J9qRggHTlPHpIOLJe7RKTApNUPzzGi63olYZ/IKGGon5zvIIyWDi5HH+moebTWOvM8fSF1w3Nvp3R4zWWoxAwHv8uTkOTiK9nnvDKyZwWBdcNz71vpEJtZJB0v7zZLh9hIva7S8fLvv9JBNkF16q1sRm2QjrK+ELvhuWe5az9NScUaK5Gl0nHWVVc6UinhV5JO1/JAu+G594R0qPX8TzpOqeloVZYmLT2lw5SiRdLB1hFuNzwP2PXv03OWdIxS1UU63LmRLZMrr8el452LopFfpbVXOuA5zMh0iRmOutIhT5btEjMcg4NOZGwtHR4BC6WDniTzJWY4lklHXS1LrUHc+UQ67ErT9GqVVzq7pQOv4qP2Ziaw27n55a9gcPCcFN1zbbV0VCQtkI5+3BfSMZF1q3T8K+ojHRFpKxzULXXnV58tADJizHfSq/CXrcqG0keV2t4KKpl5K2uNvryZ+Ecr6cWIohoDj7oHvAn2bhL+VzL/gN+WPtnTvfYusdXoNGBFJd62xteiaa30HzgWNLvr5WekZx6uzyb8Nmtju9RsXL1iX0fpOQMAAAAAAAAAAAAAAAAAAAAAAAAAAAAAAAAAAAAAAAAAAAAAAAAAAAAAAAAAAAAAAAAAAAAAAAAAAAAAAABUWv8HF/WkH1Nv95EAAAAASUVORK5CYII=;" vertex="1" parent="1">
          <mxGeometry x="525.19" y="212" width="56" height="56" as="geometry" />
        </mxCell>
        <mxCell id="XKejNxqJNqAKCkhe8Pqw-74" value="" style="edgeStyle=elbowEdgeStyle;elbow=vertical;endArrow=classic;html=1;curved=0;rounded=0;endSize=8;startSize=8;exitX=0.995;exitY=0.63;exitDx=0;exitDy=0;exitPerimeter=0;entryX=0.5;entryY=1;entryDx=0;entryDy=0;" edge="1" parent="1" source="XKejNxqJNqAKCkhe8Pqw-25" target="XKejNxqJNqAKCkhe8Pqw-66">
          <mxGeometry width="50" height="50" relative="1" as="geometry">
            <mxPoint x="620" y="380" as="sourcePoint" />
            <mxPoint x="670" y="330" as="targetPoint" />
            <Array as="points">
              <mxPoint x="500" y="320" />
            </Array>
          </mxGeometry>
        </mxCell>
        <mxCell id="XKejNxqJNqAKCkhe8Pqw-75" value="" style="endArrow=classic;html=1;rounded=0;entryX=0.5;entryY=0;entryDx=0;entryDy=0;" edge="1" parent="1" target="XKejNxqJNqAKCkhe8Pqw-43">
          <mxGeometry width="50" height="50" relative="1" as="geometry">
            <mxPoint x="580" y="320" as="sourcePoint" />
            <mxPoint x="670" y="330" as="targetPoint" />
          </mxGeometry>
        </mxCell>
        <mxCell id="XKejNxqJNqAKCkhe8Pqw-76" value="Back-end Replication" style="text;html=1;align=center;verticalAlign=middle;resizable=0;points=[];autosize=1;strokeColor=none;fillColor=none;" vertex="1" parent="1">
          <mxGeometry x="770" y="225" width="140" height="30" as="geometry" />
        </mxCell>
        <mxCell id="XKejNxqJNqAKCkhe8Pqw-77" value="" style="endArrow=none;dashed=1;html=1;dashPattern=1 3;strokeWidth=2;rounded=0;" edge="1" parent="1">
          <mxGeometry width="50" height="50" relative="1" as="geometry">
            <mxPoint x="40" y="600" as="sourcePoint" />
            <mxPoint x="960" y="600" as="targetPoint" />
          </mxGeometry>
        </mxCell>
        <mxCell id="XKejNxqJNqAKCkhe8Pqw-78" value="CI/CD" style="text;html=1;align=center;verticalAlign=middle;resizable=0;points=[];autosize=1;strokeColor=none;fillColor=none;fontStyle=1;fontSize=15;" vertex="1" parent="1">
          <mxGeometry x="39" y="600" width="60" height="30" as="geometry" />
        </mxCell>
        <mxCell id="XKejNxqJNqAKCkhe8Pqw-79" value="" style="shape=image;verticalLabelPosition=bottom;labelBackgroundColor=default;verticalAlign=top;aspect=fixed;imageAspect=0;image=data:image/png,iVBORw0KGgoAAAANSUhEUgAABGUAAAGhCAYAAADIqwlbAAAACXBIWXMAAAsTAAALEwEAmpwYAAAgAElEQVR4nOzdT4gc193/+2/VOd01RT/y6VaDGGU1hmtiX36g8SokF6yJVze+OJjnt9GfjQgkz83OjuExz0IiWIuQB2zrbq55YgjaSJpVronBgQs/e+RFcrO4WMOF2MGLzCoaBK2eo2Hoqe46VXcx3cpY0Z/5012nqvr9AoMlzfT5StNT0/Xpc75fEQAAAAAAAAAAAAAAAAAAAAAAAAAAAAAAAAAAAAAAAAAAAAAAAAAAAAAAAAAAAAAAAAAAAAAAAAAAAAAAAAAAAAAAAAAAAAAAAAAAAAAAAAAAAAAAAAAAAAAAAAAAAAAAAAAAAAAAAAAAAAAAAAAAAAAAAAAAAAAAAAAAAAAAAAAAAAAAAAAAAAAAAAAAAAAAAAAAAAAAAAAAAAAAAAAAAAAAAAAAAAAAAAAAAAAAAAAAAAAAAAAAAAAAAAAAAAAAAAAAAAAAAAAAAAAAAAAAAAAAAAAAAAAAAAAAAAAAAAAAAAAAAAAAAAAAAAAAAAAAAAAAAAAAAAAAAAAAAAAAAAAAAAAAAAAAAAAAAAAAAAAAAAAAAAAAAAAAAAAAAAAAAAAAAAAAAAAAAAAAAAAAAAAAAAAAAAAAAAAAAAAAAAAAAAAAAAAAAAAAAAAAAAAAAAAAAAAAAAAAAAAAAAAAAAAAAAAAAAAAAAAAAAAAAAAAAAAAAAAAAAAAAAAAAAAAAAAAAAAAAAAAAAAAAAAAAAAAAAAAAAAAAAAAAAAAAAAAAAAAAAAAAAAAAAAAAAAAAAAAAAAAAAAAAAAAAAAAAAAAAAAAAAAAAAAAAAAAAAAAAAAAAAAAAAAAAAAAAAAAAAAAAAAAAAAAAAAAAAAAAAAAAAAAAAAAAAAAAAAAAAAAAAAAAAAAAAAAAAAAAAAAAAAAAAAAAAAAAAAAAAAAAAAAAAAAAAAAAAAAAAAAAAAAAAAAAAAAAABATQS+CwBQHGNMW9J0ef/vKa2XXSYnn/nJWfrZt36t9Ya1dmOqBQIAAADAHCGUAWpiErjoZvM7aZq9qFXwQuqy0ypU7WbUODPLtTPnNpPh6K9ahXdTl3+jQrnv0vQOwQ0AAAAAPBmhDFBBptVaUVovB0HwvdRlp+N44azvmp5mMNi9PQlsJEs/E63vWGu3fNcFAAAAAD4RygAlZ4xZViIrQRB8L8+Dl2a966UomXObzrm1PM//7NL0jt3ZWfNdEwAAAAAUiVAGKJn9IYxSaiVUatF3TUUZDHZviwRfSCi/s9be8V0PAAAAAMwSoQxQAt1O54Lk+evzFsI8zWQnjQTBJ2mWfcpxJwAAAAB1QygDeGCMaeswfE3y/PVGs3nOdz1VMBjs3lZh8LET+ZjmwQAAAADqgFAGKNBkRwxBzPEMk9F6EMp/soMGAAAAQJURygAzZlqtFd1o/BtHk2ZjNByuShB80uv3b/quBQAAAAAOg1AGmAFjTFuJXNJav0MQU4zMuc1kmH4kofyW400AAAAAqoBQBpgiY8ySDoJfsSvGr9FwuJqORv/FmG0AAAAAZUYoA0yBabVWJFS/jOOFs75rwT9kzm26LHubo00AAAAAyohQBjiGbqdzQYXhe+yKKbfMuc00TX/tRK7TGBgAAABAWRDKAEdAGFNN+/rOvE84AwAAAMA3QhngEAhj6mGyc+a+tdd81wIAAABgfhHKAAdAz5h6oucMAAAAAJ8IZYCnMMYsSZZfJ4ypt2EyWnfp8E2mNQEAAAAoEqEM8BjGmLZk8os4ji77rgXFGQ2Hq2me/4e1dsN3LQAAAADqT/kuACibbqdzoaHU75vNxv/muxYUSyn131QQnNO6aZJh8rnvegAAAADUGztlgDGOKmG/zLnNZHf3PEeaAAAAAMwKO2UAETEnzLtRQ/+fzWbzv/muBeUQhOG/NJrNSyrUaiFe+DJJkl3fNQEAAACoF3bKYK4ZY5aVhNebUeOM71pQXuyaAQAAADAL7JTB3DppzJsLUfR/Ka0WfdeCcmPXDAAAAIBZYKcM5s7eZKX8Y3rH4CiGyWjdSXbJWnvHdy0AAAAAqo2dMpgr/5isRO8YHI3SarGh9f/e1NoOkuT/8V0PAAAAgOoilMHcMCfMu1HU/D+CMPwX37Wg+pTW/2vUaLzYjKL/wXEmAAAAAEfB8SXUnjGmrSRco5kvZiFzbjNJ0x9xnAkAAADAYbFTBrVmjFmOtP6Tbuj/yXctqKcgDP9FBcEbCwsLdwe7u/+f73oAAAAAVAehDGqr2+lciJrN/5vjSpi1IAz/RSn131WoVTJMPvddDwAAAIBq4PgSaqnbbt9qNJvnfNeB+TMY7N6WMHjDWrvluxYAAAAA5UYog1oxxrR1EHxIIAOfxmOz37DWbviuBQAAAEB5EcqgNmjoizKhATAAAACAZ6GnDGqBhr4om0kDYB2G/28yGm34rgcAAABA+bBTBpU3DmT+ECq16LsW4HFGo9HFXr9/03cdAAAAAMqFnTKoNAIZVIFS6r9HzeY3jMwGAAAAsB+hDCqLQAZVQjADAAAA4FGEMqgkAhlUEcEMAAAAgP0IZVA5BDKoMoIZAAAAABOEMqgUAhnUAcEMAAAAABFCGVQIgQzqhGAGAAAAAKEMKoFABnVEMAMAAADMN0IZlJ4xph1p/ScCGdRRIPK/6GbzfyRJsum7FgAAAADFCn0XADyNMaatJFwjkEFdhUotRlr/wRiz7LsWAAAAAMUilEG5ZfnHzahxxncZwCztC2bavmsBAAAAUJzAdwHAk3Tb7VuNZvOc7zqAogyT0bqTbMVau+W7FhTLGNOWND38bimtN6y1G9OvCAAAAEUglEEpnTTmzWYUfeC7DqBoo+Fwtbe1dd53HZieSeCim83vpGn2olbBC6nLTkfNxneT4WiqRzPjeEEGg93bIiJahXdTl38jIiJZ+pmIiN3ZWZvmegAAADgeQhmUjmm1VuJW63PfdQC+DJPkrfvWXvNdB47GtForEupXtQpeUEqtTDt4Oa5JcKNVeDfP8z+7NL1DWAMAAOAHoQxKxRizxKQlQGSws/NDbpSrwRizrERWXJa/ISJnfddzVCpU60GQfyVB8EmaZX/kWBQAAMDsEcqgNCaTlmjsC4hkzm0mafp9bozLyRizLJn8a9TUPy3bTphpiZqNzWSYfiSh/M5ae8d3PQAAAHVEKIPSoLEv8G3DZLR+3/YZlV0Sxpi2DsPX8kz+3WVursJjAhoAAIDZIJRBKXQ7nQuNRuOG7zqAshkMkqt2217xXcc8M8YsSSY/iePo8mCw67ucMrittfpNr9+/6bsQVF+307mQpu5nxa4afCGhvF+FSXfGmGUdBO+kLjtd1JpahXfTPP95Ff59cDjmhHlXJH+l2FWDL3gdAzwdoQy8M8YsR1r/oUx9ZDLnNpPh6K8iIlGz8d0y1Ybp2//1VqFql+0I3Wg0usgNcPGMMW0dBB+mLmMH32OoUK27dPgmvY9wVHvHAPMv/aweVCLwXjx1KvcUBt+22w9WfCyM2ThpzJsuy71MNtVa8ToGeArtuwBASXi9TKHHIEk6j3t3yBizpMPwB2mavSiSvxLHC5Vt6DnPhslo3WXZ77UOv06z7C9POopxqtu9W5bnpQrD94wxn/KuZTGMMW3J5BdxxM6Yp3GZOyOh+twY8zy9j3Akmfyrv8WL3i1weKbVWvF4DeI1Ts2Mm9F7sffaGcCTEMrAK3PCvFumXQmj4XD1STe+45uOjYe/3n4g3U7nguT560qplbLcwOOfjYbD1fFEmQMHG8kw/SiO1eVZ13YQoVKLMhx9LCIrvmupu26nc0GF4XvJcLRIIHMwOgh+JSLnfa1vjGlLmi5LqF8VEdEqeGHvqEfwhYjIOIBlmhQAACglQhl4Y1qtlTiOSnHT+1AQfHKYDx9vxbwpIg8DGpoVl8NgsHtba/WbwwQx3xLKb0WkNM/POF44q8LgzfvWXvNdSx09PKqUunOpON/l4AAm19zUZeckVCKSi4hI6vLxR+RnRUTSdO/redJ01kWy607kOrvOAABAWYS+C8B8Msa0o4WFW77reNRxzrv2+v2bva2t84MkeX4wSK5mzm1OszY8W+bc5mg4XB0kyfN2+8FKr9+/edSbL2vtxjAZrU+7xuPQWr9jjFnyXUfdmFZrJY6iPr1jjuiQYfZxdTudC6e63btp6m4c5mvmMnfGZfkHcRT195pdAgAA+EcoAz8y+UXZjvuMhsPVaTyOtXbDbtsr93q906PR6CLhzOxlzm0OBsnVJE1f6m1tnZ/WMQWXZb+fxuNMS6jUomT5dd911Ik5Yd6VUH3OUaWjS7Psj0WsY4xZMieeW0tTdyMZjo7882Pva51fPmk6d4wxjJwHAABeEcqgcKU8tiQyk3d7e/3+TcKZ2dkfxthte2XqRxJC+d1UH28K4njh7Elj3vRdR9UZY9rddvuWSF6+a1GFRM3GZhG9Wowxy3EU/U2m2HzUZe6MZPmX3U7nwrQeEwAA4LAIZVA4pZul7Ikxy3d7CWema+ZhzJi19k4Zv17jY0xt33VUlTGmrSRc47jS8Tnn1ma9xjiQ+XJWu5nS1N0gmAEAAL4QyqBQZZu2NJE5V8i7vb1+/2aSpi/Rc+boRsPhapKm359lGLNfETedhxUqtaiD4EPfdVTRJJBxmSvddaiK8jz/8ywff9aBzATBDAAA8IXpSyiMMWYp0vqnvut4nCJvvMdBwhVjzG+1c7/yMa0pc24zGY7++vg/3RsjK5K/8rg/jZqN7/roBzQY7N6WMHjTWnunyHVTl3/TKHLBA2o0m+dMq/VfdmdnzXctVUEgM31OZG1Wjz3+el0vqt9Po9G4YYxhdDYAACgUoQwKo4PgV2Vr7jsx63d7H2f8wv+8abX+K1pYuDWtf5thMlp3mdt6GK5k6WciIqL1xrRvNowxbUnTZRERpfWyy+SkVsELqctOx/HCVHo/ZM5tuix7224/OPJkrOMVkH4mUsIeSCISLSzckp2d077rqAICmemL4wXZvHdvdiFpJr9wUtzXaxz+XBeRlaLWBAAAIJRBIUyrteJjR8hBuTQtdPfFfnZnZ012dk6bE+bdwzRAHiaj9SDIv0pd/o1k6WezCF2eZbzrZ238y7Vv/dn2g4ehjdJ6OQiC7x02rBkNh6tpnv+8iGNKT6S1t+fGs4RKLZoT5l27ba/4rqXMCGRmY1oT6x7HGLMkmZcmzGdNq7XCDjQAAFAUQhkUoqzNfR8qwY233bZXJDS/lSy//mhwkTm36ZxbmwQwVblh2BfarD38vb2wZlmJrARB8D2l1Mqju4Qy5zaT3d3zZfh7Wmu3om53s6y7vKKm/qkx5n2vwVXJ6SD4MHUEMtOWuvybWT22DoJfpZLP6uGfLlS/FHbLAACAghDKYOa6nc6FRqN8zX33K8sN7Xiny4oKgzeDIPhenud/diJrRfdRmbXx3+fh38kYs6TD8AeS56+nLv9GQnnf7uyU4msiIpIMR3+N43KGMqFSi9q5D0XkvO9aysicMO8yZWlGJkcjp8wY0/b8NTtrjFmu23UXAACUE6EMZsoY01Zh+J7vOp5mMNi97buGR923ttw7i6ZsHEZtiIifvjHPoFV413cNT9NoNs8ZY/6DBqXfZlqtFREvR2Dmwqx2sukwfC3N3Cwe+uAy+VfZFxwDAADMCiOxMVuZ/KKsxz6Ag5rlMY1p0UHwK981lIkxph23Wp/7rqPGZhdm5/nrM3vsA1Jh+GPfNQAAgPnAThnMjDGmXdYR2PuVfRcEcBCMyH5Eln9c1Cjl+TSe7jYDSqmV1GWzevgDKaoptDFmWdK0XcRaIjKTKXwAAOB4CGUwOxXZJVOFXRDwS4Vy33cNB0KDUhEROWnMmy7LpzKSHY+ndfj1rB47GY5K8XNj1lOYzInn1iTLz0qoZrXEP8tyMSfMVSa2AQBQHhxfwkwYY9pRs/y7ZICD8Dky/TDieOHsXh+V+WWMaTej6APfddRdmmWf+q6hBjwFh/krftYFAACPQyiD2ajILhmgbnSj8W++a/BJB8GHHFuaLRWq9VlNrJv3UBEAAMwfQhlMHbtkAH/Gk5iWfNfhg2m1Vhh/PXsuy34/swfXemNmjw0AAFBChDKYOiVyiV0yqBPdbH7Hdw2HMbeTmPZ66mDGZtlPhia0AABg3hDKYOq01u/4ruEwtApe8F0Dyi1Nsxd913AY87hbZnzshea+BUiz7I++aygEu3YAAEABmL6Eqep2Oheqtksmddlp3zUAU5fJT0RkbiasRAsLt5LhyHcZU6FCte4yt/WtsdNZ+tmBPlfrZZfJyX/8zl5T16jZ+O40phpFzcbmvV5v47iP8wy3xXPAFscLsnnv3obPGgAAwHwglMFUpan7WaPR8F0GMFVV3E0VNfVPjTHvz6oha5mYVmulLGOUDytqNjadc2sSBJ+kWfYXa+1xJ32tPe0PjTHLkqZtCfWrWgUv5HnwksvcmYM+uHPuqY8/HcEXIn5Hmo+Gw1Wf6wMAgPlBKIOpMcYsx1FUueMDcbxw1m4/8F0GSix12emqRY2hUos6y14TkZu+a5m5ivWSiZqNzWSYfiSh/O5er1fouPV9oc/a5PeMMW0dhq+lafaiCsMfPy2kyfP8z7OuUUL5nWRyeebrPE0QfOJ1fQAAMDcIZTA1Oggq1UtmP2NMex52FOBoombju75rOIo8k3+XmocyFeslc1sy98t7vQdrvgvZb3ztmzxPrhhjlnQY/kDy/PX906zieEEGSXK9gHrunOp2N33tfhr/PT/1sTYAAJg/NPrFVBhj2kqpFd91HFmaLvsuAeVkjGlXrU/SRDNqnDHG1Pq5rRuNf/NdwwHclsz90G4/WLE7O2u+i3kWa+1Gr9+/2dvaOi9h0NFaXRQJrg6S5PmiwmuXZW8Xsc7jDAbJVUJ6AABQFEIZTIUOw9eqeuMqIiKhftV3CSipigd2Vd7B9izGmPb+nRxlE8cLorW6WJUw5nGstVu9fv+m3bZXihxX3ev3b0bNxmZR603E8YJIKO8XvS4AAJhfhDKYivExicqqYiNXFKTigZ1SasUY0/ZdxywokUu+a3iK24Mk6fT6/VofH5ulZHf3fNFrDpPkLXbJAACAIhHK4NiMMUvNqHHg6R1lVOmjV5gpFYY/9l3DcYRKLeowfM13HbMRXvJdweNoFa7a7Qcr3Nwfz97uouBqUetpFa7et/ZaUesBAACIEMpgGjL5ie8SjitUarHb6VzwXQfKxRjTrnrgKCIief667xKmzRizfJhRzkXRWl3sbW0VvsOjruy2vaJVOPPx1CpU62me/3zW6wAAADyKUAbHFjX1T33XMBU1vHHF8dRlh0mj2TxXuyNMmfyr7xIepbW6yHGl6ettbZ2fZTCjQrXuJGNnEwAA8IJQBsdijFmudIPffTjChEelqfuZ7xqmpeT9Vw6tfGFwcJVAZnb2dh9N/yiTVuEqgQwAAPCJUAbHU8J3q4/K5whWlFQYvOm7hOkpZ/+VozDGLCXDUWnC4L0eMvaK7zrqzm7bK5K5H05jKtNkMlZva+s8gQwAAPCJUAbHUr53q49mNByu8i43HmWtvTMajS76rmMamlHjTF2OMCmRN3zXMBHHC0IvkuLYnZ21e73eaa3VxaOEM3G8ICLBVSZjAQCAsiCUwZHV5ejSYLB7m8aceJJev39zMEgKmwAzS3XpkeOyvDShzGBn54fstCher9+/ea/XOy1h8PL4WNPtJ32sCtW6VuGq1uri5r17gd22V/iaAQCAstC+C0CF1eDoUubcpoRBaW7wUE57R1OeeyWOF876ruVY9ppZ12F3QCm+DlqFq73tB2u+65hn1to7InJn/++ZVmtFZDJSGwAAoNzYKYMjU2H4Y981HFeyu0s/ARxMGFzKnDt2LwufGs3mOd81HFdZRtePjy39h+868M/szs4agQwAAKgKQhkciTFmqRk1zviu4zgGg+QqL9xxUNbajTo0gy5LqHFUaZq96LsGkfH1w9oN33UAAACg2ghlcCQ6DH/gu4bjyJzbZFoKDqvX798cDYervus4jrKEGkeXv+K7gjheEAnlfd91AAAAoProKYOj2etNUVnJ7i6NfXEkaZ7/XDm3UtUm1+Njh1UOJL33kxkNh6scewQAwB9jzJKk6dITP0DrrXHfMaD0CGVwJEqpFd81HNVoOFzl2BKOylq7ZU6Yj+JYXfZdy1GMR2MvVfHozaSBq2/0kgEAYPaMMW1J02UJ9ataBS+kLjstkzdnslwkVE/+5CwXc+I5EdmbwhcE+Vepy7/ROvw6zbJPeXMFZUIog0MzxixVdZeACDdUOD67ba9Eze5Pq/p9MD5+uOG7jsNSWi+7LPddxu0qBloAAJSdMaatw/A1yfPXlVIryXC0uBe85JK6o//8d5k7IyJnRETS1ImIyEnTWXdZ9nsJ5XfsqIFvhDI4tCr3kxkMkqt2mxsqHJ/LsrdDpW74ruMoqtpXJgiC74n4DWW0Vr/xWsAceebW9FnQ+k7d3z1VoWpPfdcZxwSwT+Hfux6/bx/u5ChKDa9R+4OY1GXn0mwvNEldNtN1HwY1mVw+aTrrQSj/yQ4a+EIog8Orcj8ZmnNiSnr9/s1T3e57VdwtU9W+MnkevOS7hjTLPvVdwzwwxizHUfTloOCdUUrCdWPMyixflBtjlnQY/mDybm3RXObOSKg+n+qDZrl0O52LvX7/5lQfF5XTbbdvpS4799RjJdPm6fnX7XQuNBqNG0Vep+IoEl2T7zXTaq3oRuPf9gcxvrjMnZFMbsTxgsgJc1VCeZ9wBkVi+hIOrar9ZGjOiWmr6ojscV+Ztu86Dmv8rpY3WoVcQwqig+CdwWC38HVd5s7oMHxtmo9pjFnqdjoXuu32rVPd7l3J8r+lqavkLrunSVP3M981wC9jzHLqsnM+1m40GoV/TzUajRtFX6cGg11RYfheoYtOWbfTuXDSdO5IqD739Xx5kr2vZ345jqJ+t9O54LsezA92yuBQjDHtKu4MEKGXDKavyrtlxtut13yXcVDGmGXx3E8mz/M/ey1gjoybOfpZ+5jH+4wxy0pkJQiC7zWazXODwa4UtR0f8CpN24XukNnHR4jrY00RkWQ4qt5rDtnbGRMtLNyqQv3jr+0Nc+K5n0kYvMEbMpg1QhkcTpouSxT5ruLQBoPd23b7wYbvOlA/yTCt5iSmUL8qFQplfL7Yn3AiH3stAKX0uBBmL4LJJfV00wYAZRLH0eXBIL+cDEe+Szmss3EU9aXV+iGTWzFLHF/C4ezdyFUOzTkxM6H81ncJR6FV8ILvGg7F87UnajY2mbqE/bqdzoXFU6dyyfIvXZZ/kLrsnK93zgGgzKp8bRwMdkVC9TnHmTBLhDI4lMrdyIlI5txmHRqioZystRvDZLTuu47DqmpvKF+cc2u+a0C5+OgnAQDwI03dDYIZzAqhDA6lDNNPDoubKcxedt13BYdVvT44+SteV6efDB5BIAMA84VgBrNCTxkcSjNqeJ1+ciRB8InvElBv414jH/iu47BMq7VSlTPSUbPxXZ9n0V2a3vG2OICpU6Fqm1ZrxXcdT6O0XnaeG5wD+LZxMCPswsc0EcrgwMr+4uVJ0iz71HcNqDdr7UbU7W5WbfeJbja/Izs7vss4EO/TGrQmlAFqxGXujITqc991PA2BDFBOaepuGGP+Yq3ltQGmguNLODDdbH7Hdw2HNUxG64yxQxGqeEzuuKN/i2KMaftcf9zkl+sIAAAQEZFI6z/4fn2C+iCUwYFV5QZuP5dlv/ddA+ZEJY/J+e3TcmBpuuxz+WQ4+qvP9QEAQLkkw9GiDoIPfdeBeiCUwYFVcfKS1uHXvmvAfEiz7I++azgsFSre4TmQ4AvfFQAAgHJJXXauqu0dUC6EMjiw1GWnfddwWFW8UUY1WWs3fNdwWFVp3F3Fo5MAAKD+ooWFW75rQPXR6BcHFjUb3/Vdw2FV8UYZ1TUY7N6O44WzvuuoG99HJ4vccWeMaeswfM333/k4VCj3ncjHXH8BAHWXDEeLJ415876113zXguoilMGBVW2yzGCwe9t3DZgvWoV3fddwWFUai+1LOhz+vai1lIRraeoqsYPpSVwmEscLH4gxzxPMAADqrhlFHxhjrjMUAEfF8SUcSBW7i1fxBhnVlrr8G981YAa0LuRFlmm1VlxW7UBmYjDYFSXyhu86AACYtfHPvEu+60B1EcrgYDxPPzkKbpBRtCo2llZaV+B72++UKGvtHZ/rV5XL5KTvGgAAKILW+h3fNaC6CGUAYEqKPOYyLdw4AwAAHE8yHC12O50LvutANRHK4ECqOP1EhXLfdw0AAAAA5kCev+67BFQToQwOpIqTQFyacuQAeAatghd811BmcbzguwQAAFABqcvOVbEPJ/wjlAGAadG6ckFg6rLTvmsoM6a4AQCAg9Jh+JrvGlA9hDIAMCWMQgQAAJhjHGHCEWjfBaAaOOIAwJc4Xjg7GOz6LgMAAMyQCtV6EORfpS7/RoVy/9FWBErr5b0BBfkrInLWU5lPNT7C9HPeqMNhEMrgQFKXnW74LgLAXCKQAQCgfqJmYzMZph9pHX6dZtmn923/WUHG2uR/jDFtJXJJa/1OMhwtzrbSwxkfYbrpuw5UB6EMAEyJMWbJdw2HFccLZ+32A99lAFV0W0r6Tq0fwRe+KwBQDVqFq+lo9F/3eg/WjvoY450o10Tkmjlh3hXJL0+twGOq4oAU+EUoAwDTkqZLEkW+qwBQhDB4QzL5xXgb/VF4CXTieGHqDaxVGHx839pr03xMAPWyd+1Jrkoo7/e2tqZ6tMdu2yvdTufrRqNxowy7a1UY/lhErviuA9VBKIPa0s3md2Rnx3cZAIAaGr9Le+QX3ebEc/kUyzmwwWD3tt1+sOJjbQDzKrg6SJL37fbs+qz0+v2bptX6u4Tq81mtcVAuc2d814BqYfoSaoutgwAAAIBfdtteKaLxrd3ZWVNh8Nas1zkI02qt+K4B1UEoAwAAACne488AACAASURBVACovPFRyqke0TwKpfWy7xpQHYQyADAlutn8ju8aAAAA5lrmfum7hL3R3cDBEMqgtrQKXvBdA+YLR+ZmI2o2Nj0uz3QdAAAqxO7srIn33TJHbgKPOUQog9pKXXbadw0Aji8Zjv7quwYAAFAdWqvf+Fw/aja+63N9VAuhDABMCbuzAAAA/Ov1+zfjeMHb+slwtOhtcVQOoQxqK44XOHaAQlVxd9ZgsOu9GR4AAMC0jYbDVZ/rG2No9osDIZTBAQVf+K4AKDu2qtYTL6oAAKigIPjE6/pp2va6PiqDUAa1ZlqtFd81YH6ESrFVtY54UQUAQOWkWfZHn+szlRMHpX0XAMySbja/Izs7vsvAHGA3xSwFX4jk3o4jch0Baum23X6w4ruIpzGt1oqE6nPfdQBVZa3dWDx1SgaDXS/rM5UTB8VOGdQaF0MURYfh/+y7hqPQKrzru4ay4zoCAEA10TsPVUAogwPROvzadw1HwTQcFKWqN+6py7/xXQMAAMBs0BcT5UcogwNJh8O/+67hKJRSK75rwHwgAJwd/6Fw/kohy2i9Vcg6AABg5nhtiIMilEGthUotGmNo0omZq2oA6D/weDbfoXBRU7WstXe0Cr2O7wQAoE58vs5JXXba19qoFhr94kDszs5a3Gr5LuNo0nRZRNZ8l4H6MsYsVXXyku/AowqS4aiwr21va+u8MebX05r4pHTzmsvcmWk8FgAAVZMOh3+XUPkuA3gqQhnUX6hfFUIZzJAOwx/4rqHO7M7OmjnxnNcaTKu1Ynd21opYy1p7Z1qPZU4ojkQBAACUGMeXcGDDZLTuu4ajKagfBOZWVZv8iuwFHr5rqAKlNSPPAQAAMHWEMjgwl7lKvuMaxwtn6SuDWYqa+qe+a6g7FSqvoXAQBN/zuT4AADgCrae2+xSYFUIZHEJ1R8rpMHzNdw2opyr3kxkMdm/7ruGgfIfCeR685HN9AABweNbaSr6pjPlCKIP5kOev+y4B9aRE3vBdw1FpFd71XcPB+Q2FXebOsOMOAAAA00Yog4PL0s98l3BUVR1XjCoIL/mu4KhSl3/ju4aDUqHc910DO+4AAAAwbYQyODitK7v9L1RqsdvpXPBdB+rFGLPUjBqVHTesdfi17xoOyqWp/zPh7LgDAADAlBHK4MCmOabVC26oMGVVProkIpJm2V9813BgJWjU12g2z/muAQAAAPVCKINDqe5Y7L0bKnpCYJq01u/4ruE4qhS0Wmu3omZj02cNg8GusOMOAAAA00Qog0MJgvwr3zUchxK55LsG1INptVaqOnVJpJoBq3NuzXcN7LgDAKA6TKu14rsG4FkIZXAoeZ7/2XcNx1H1nQ0oD91o/JvvGo6jigFrGRoTs+MOAAAcjN/JkagOQhkcSimabR4DDX8xDcaYpar3F6lkwFqCCXCDwS5TmAAAADA1hDI4FLuzs+a7huNSYfie7xpQbToIfuW7huOqYsBalusP1xAAAABMC6EMDq2KvSj2Y7cMjqMOu2REyhNwHJYKlffrTzIccQ0BAADAVBDK4NBclv3edw3HxTvdOLIsv+67hOMaDHZv+67hqMpy/eEaAgBA+Smtl72tHcp9X2ujWghlcGhah1/7ruG4QqUWzQnzru86UC2m1VqJ44Wzvus4vgo3nitBXxkRdssAAFAFLpOT3tau4FFx+EEog0NLs+yPvmuYhqipf2qMWfJdB6ojWli45buGaahysGp3dtbieMF3GSIi0mg0bjCJCQAAAMdBKINDs9ZuZM5t+q7juEKlFutwFAXFMCfMu6FSi77rmIY0yz71XcNxjIbDVd81iIwnMQXBh77rAAAAT5K/4m1prbe8rY1KIZTBkSTD9CPfNUxDHC+cPWnMm77rQLkZY5bjOLrsu45pGCajdWtttV8kBMEnvkuYSF12jmNMAADgUdZaji/hQAhlcCRVPv7wKK31O8YYb03AUG7GmHak9R981zEtZWmUexxl2+kzPsbENQQAgPKpQS9A1B2hDI6kbDdFxxEqtagkvE5vCDyODoIP63JsSUREQvmd7xKOy1q7pVVYiiNMInvHmOIo+pJrCAAA5eGzd6QK1bqvtVE9hDI4EmvtVpXH6j6qGTXO0BsCjzInzLuNZvOc7zqmJXNuszZbaUt0hElkL5hREq4RzACAH1x/8Sgdhj/wtbbLXLWPiqNQhDI4MhUGH/uuYZoazea5brtdi+k6OL5up3OhLn1kJpxza75rmJZev3+zLFOYJlzmzkRaf8VRJgDwIE259uJb0jR70d/qwRf+1kbVEMrgyJxIrUIZkXEwQ9POudftdC40Go0bvuuYupLtLjmuskxh2i8ZjhbjKPqS6wgAAH6pMPyx7xqAgyCUwZFZazeGyah25yUbjcYNbqjmV20DGalXLygRkTTPf+27hscZDHYlTd0Nc8K8y3Z6lE3UbHzXdw3ALCit2SmDh4wxSy5zZ7wVkKWfeVsblUMog2PKrvuuYBYajcYNRmXPnzoHMqPhcLXyo7AfMe6PU+LeVvnlOIr6hLwok2Q4WiQsRB0FQfA93zWgRDL5idf1td7wuj4qhVAGx1LHI0wTzSj6gB4z86POgYyI1O7o0oTW6je+a3iaya6ZU93u3W6nc4GbYZSBDsPXfNcATJtSasV3DSgHY0zbZ1/AOF4Qa+2Gr/VRPYQyOJa6HmGaaDSb58yJ55ioUnPddvtWnQOZzLnNuh1dmuj1+zejZmPTdx3PkgxHi2nqbsRR1O+227eKCGiMMcsqVFy7Ssrn81aF4Xu+1gZmJRmOFk2rteK7DpRAJr8YDHa9LV+nCbUohvZdAOoguy4iH/iuYlbieOFs5txXxpgf1WacMERk77yxkvDjRrPh78xxAZxza3U7urSfy7K3RaQSodr4ReK58X9y0nTWgyD/KnX5Nw/Pn2t951lfL2NMe/+kEaX1ssvkpFbBC6nLTovIWclyceJm9nfB8STD0V9FZNHT2osnjXnzvrXXfKyPmtJ6S7Lcbw2h+qWIrMxyCWNMWzL5hYjnv2uFGGOWi3oNbYxZjqPoss9QhslLOCxCGRzb+AhTbUMZEZFQqcVYqS+VMW/xIrYeup3OBRWG74VKebkpKlRNjy5N9Pr9mydN59+9NvQ7onHNe3WHam+rdZaLOfHc0z8xy0VCte9x9m4OUsdNAg7GZfkHptW6Y3d21nzXgnqw1t555rVr9s52O50LvX7/5iwefHLU2e8NfwVl+Zfddns1zfP/mOWxHmNMW0l43ffXR+vwa68FoHI4voRjs9ZulHE07Sw0o+iD8XGmJd+14GiMMUuT40rzEMhkzm3O6sVpmbh0SGNuVIpW4V3fNUioPqepPeomTd1Up2gaY9rmhHn3VLd7N00dgcwRpS47J1n+t8kR3mk/vjFmOdL6qzK8QVPXI+OYHUIZTEfN34nfL44XzsZR9DfG3VaPOWHejbT+U6PZPOe7lqIkw/Qj3zUUYfxuP2e4URmpy7/xXYPI3o6ZSSNq37Wg+lSoStFnME3djW67feuob6IZY9rdTudCt92+JVneF8kvJ8NR7d/IKULqsnNp6m4snjqVTyOgmbzZJln+ZRm+RipU63U+Mo7Z4PgSpqLX79881e3Ox1GQsTiOLmfO/bTb6bw9DzsRqmyujio9KpTf+i6hMGFwSbL8b77LAA5ChXLfZb6r2DO+kbmxeOrUjdFwuJq6/Butw6/T4fDvT/ykUL/67V/L+9yIwGWuNM+B1GXnRORct91ezfP8zy5N74jWG48enzHGLEmaLk16c6kw/LHL3Jk0oyfXLO3vsWZOPHdDhWrdZdnvRUT29Vj71tfLGLMsadrWzeZ30jR78eHXqkT9fR7+HYBDIJTB1CTD9KM4Vt7Gz/kQKrUYKnXjVLf7nssywpmSmeswRkRGw+HqPI1ktNZumBPmqkg+V9chVJNL0zv7+wKVwb6bJElTJ0+v79s3QUrUj0Vk+fEfi/kRfCGSn/VdxX6TcEZC9fieXeMeXZPeXI4wxosD9Vgbf63S1E0+p+gyn4l+MjgKji9hegp8Rz5zbnMw2L09+a+odZ8kVGqx0WjcONXt3j1pzJsca/JnsuX4VLd7d176xjzRHB0rnLDb9kpZts8DT6V1rab5ucydYRwxVCj3fdcA+BLHC8IbtDgKQhlMzawb/mbObQ6T5K1BknTu9Xqn7faDlcl/m/fuBYMkeX40Gl302XQ4VGqxGUUfRFp/NT7LzLuGBTHGLHfb7VuR1l/NfRgj89Pg93GcZJd81wA8i7V2K2o2Nn3XAUyTE1nzXQPgy7wMPsH0EcpgqtLR6L9m9dguy96+b+21J51Zt9Zu9Pr9m72trfODJOkMk+StzDkvL3hDpRYbzea5OIq+PNXt3h03BSagmTJjzPJkIkIcRV82ms1z8x7GTKRp+mvfNfhirb2jwuAt33UAz+KcW/NdAzBN1tpa7QADDmUOdyhjOghlMFV2Z2etDMeJrLVb9629dq/XOz0YJFd9hTMiewFNHEeXvxXQsMX7yLqdzoX9QUwcR5cJYr4tc27TiVz3XYdP9629plXIO1YoN17Ao568vw4EisbRJRwHjX4xdVqr34jI1Ju8qTB8zxjz6UGmO5w05k2XyUmtw697/f4VY8xvZTi6HscLXpvP7QU06rJIdDlutWQvwAq+kCz9bDzSF/sYY9qSpst7Uz7yVyZfv0bDd2XllgzTj+w2U1DSPP+5CtVL4+aBQOmkWfap7xqAaVNh8LHLytXsF5i1wSC56rsGVBehDKZuVuOxQ6UWVZqtGWNWnhXMuCx/I44XzmbObY6DnA0RWREJ3o3jqDSTWcYhw9lJSDNMRutBkH81Gd04T0HNZCSlhPpVrYIXlFIroVKLEkW+S6ueeRqD/RTW2i1jzBtxvPC38VQZoFSstVvddnt1PB0GqAUn8rGIfOC7DqBQvPbCMRDKYCZclr0dKnVj2o/bjBpnhslozRhz6annlsPgzcFg95pI8IWE0haRLZG9ySxad74u65jkZtSYjAM8J1EkcaslmXObyXD0170xkyKSpZ+J7B0V81fp0UyCF6X1ssvkpFbBC6nLTj/cwUQAc2zzNgb7Way1G2LMy3G88CXBDEpp7wgToQxqw1q7cdJ01tmliHmhVbja29ra8F0HqotQBjMxq90yInvBRebcH7qdzttPOrs5DmxWnlSbMeYvkcgfyhjMPGp85GlRHh4J29vpo5vNixU8u9qOFhZu7f935yTSdKV5/h++aygba+0dghmUVZpln8bxgvDcRJ0EofynZDL1N+eAMuK1F46LRr+YGZdlb8/qsUOlFhuNxg1z4rk1Y8zSQT7HGLM8+Vhr7Z0kTX/kswHwcYxGoyoGMpX/dy87dsk8mbX2ziBJXo7jBd+lAN9ird2iFwHqZhI2AnWnVchrLxwboQxmptfv35z1zXccL5yNtP5Tt9O58MwPzvJrcRT97VS3e1dk7yZtlsHRrAyT5K0qBjITVf13rwLeqXk6ghmUVijv87xEnRA2Yh7E8QKvvTAVhDKYqSJuvv+xa8a8+/SP3OvJEiq1OBlJ3ev3b1bpRcNoOFy9b+0133UcV9X+3atgMEiu8k7Ns02CGRWqdd+1ABPcwKKWCBtRc7z2wrQQymCmev3+zWEyKuTmJ46jy912+9YTPyBLPxsNh6uP7t6x2/bK3mjqcsuc20zz/Oe+65gWu22vcIxpOjLnNiWU933XURXW2jtOshURKf33PeaH3bZXomaDayJqw1q7NRqNLvquA5gFFap1u22v+K4D9UAog5lz6fDNotZqNJvnnrRjxu7srPW2ts7f6/VO/9PkojC4VPaAIE3TXz9rFHjVJLu7533XUAfJMP2obs+NWbPWbtntBysiAbsTZiWU3/kuoWqSNP2R7xqAaRoftyYAR63E8YI4yS75rgP1QSiDmbM7O2tF7kSJ4+jygXrM7GOt3UjT9Nezqum4Muc263Bs6VFFPzfqKHNuk3dqjs5u2yuSuR+yQ2G6xo0P7/iuo2qstXdUGLzluw5gqsLgDY4xoU5Go9FFfsZhmghlUIwwuFTkco1G48akb8zTGGOWJx9339prRR21OqxaN8bN3C99l1BltX5uFMTu7KwlafoSu2aOL2o2NrVWF3tbW+yCO6L71l7TKlz1XQcwLdbarUGSvOy7DszWvFy3VBhUeuAGyolQBoWw1m4U3cQwWli4ZYxpP+nPjTHLcRR9Gbdan580nTvGmHYZtyJmzm3W+eJvd3bWyhqGld1gsHu7zs+NIu0dZ9rbNUMT4MPbexc8uHqv1zvNc/L4eltb5+flBgfzwVp7R2s1T/1lbs/brrfe1tZ5ydwP67wrSquwFgM3UD6EMihOKO8X2bclVGpRB8GHT/yANH0Y2DSjxhkdBB9aa++UbQJGMkw/8l3DrAWh/KfvGiqp4B1o88Du7Kzdt/1lrdVFjjQ92ySMGSRJh2N000Uwg7rp9fs36x7MTHYL2u0HK07kY9/1FGXyZobd2VkbJEmnnteu4Cq7QDErhDIojLV2q+ijFo1m89wT+8tovbH/l6nLTouUcBrTHDTLTLPsU981VA1jGGer1+/fvNfrnSacebzJjcckjKHR9Gz0trbOz9u77ai3Xr9/U8Lg5brtpojjBVFh8Nb+3YLW2o26/T2fJAjyryb/b63dmuyaqcPPzzhekL2gjTceMDuEMihUr9+/WXTgocLwvccdY7LWbuwf1ahVePfhH4bBG2U4UpM5tzkPjcSstVulCsJKjhHYxdkfznCsaW/rttbq4uTGgzBm9u5be03C4GWef6gLa+2dQZJ0pAZTmfYH1I871jIvr21Sl3/z6O/ZnZ21e73eaRUGb1U1nFKhWh8kycscy8WsEcqgeAWPnw6VWpRMfvG4P+v1+zcHSfL8YGfnh2me/3zy+9baLSfZiu8x2c65NZ/rF0mFwdxs8z2uZHf3PDfDxer1+zfv2/6yhMHLWoWrVX2BeRRRs7GpwuAtCYPne1tb54t5cRp8Mfs1niBLP/O29hNYa+/ct/1lkeBqqZ97Wh/quqRCuT+rUlBue328HqxUeDfi7YMF1B6vZY/41puP035sHX79pD+7b+21QZJ0VBi8VZWv9eRo7n3bX56HN0fhH6EMCudj/HQcR5eNMUtPqsfu7Kw9+gPVWruVpOmPvO6YCYJPvK1dMJem/NA7gMEguWp3dtZ81zGvrLV3eltb5zfv3Qu0VhfrGtDs7coIrkoYvHyv1zt939prhR6XC+W3Pv5dVajWy/z9Zbftlb0dBuULZ44yBt2JfOzv71Gem+UnsTs7a77+fYrqCdLr929Opt+V7Tn9qMmNuoTBy3b7wcpBAuqnhRVHdeSvzYxeU0bNxmaaZX982sdYa7fuW3ttsvNUSrxLSqtwdZAkz3NcCUUKfBeA+WVOPLcWxwtni1pvNByuHrRBlzFmWdK0bXd21owxbSXhWjNqnJl1jY8aJMnL85TQL546lfuuocwy5zaTNH2JXTLlY1qtFQn1qyoMf+wyV/i14rjieEFGw+GqBMEnaZb9sQz9ivauvXLJZXKyiPVUKPedyPWqfH8ZY9o6DF/LM/n3EjznbksYvHGUfztjzLIOgncmfd1mTavwrgTBJ1U5jmCMWZJMfiKSv1LUmioMPvb1vdDtdC6kqfuZiBT2+vBp9l8bj/qcMcYs6SD41XSe48EXEsr7R/3adDudC5Lnr0/v+y344qjhhTFmSYm8IRJe8n0Ni+MFGQySqxLKb8vw8w/zh1AG3hhjliKt/xQqtVjUmoMkef5ZF9uTxrzZjKIPRB7eBP/IWnvHnDDvxnF0uZBCxzbv3Zur79GTpnPHR/hVFYOdnR+W+V187DHGtCVNlyXUr4rkr8TxwtnBYNd3Wd+iQrUeBPlXeZ7/2YmszVP4W0fGmCUdhj+QPH+90WyeK+D5dlsk+ELr8Os0yz6tSpCF6pjcsAdB8L2CntMPqVCtuyz7vWTpZ/zMLYaHa5hEzcamc26tSiEt6muubvhQPt1O50Kj0bhR1HoH2S3zaPiyf3eCabVWooWFW0UESYPB7m27/WBl1uuUSbfdvtVoNs/5rqOMBoPkKltpq2sS1Citl/d2fuy9611AYDPeIj6+gR4O/85NRv1NbnDSNHtRq+CF1GWno2bju8lwdKifXXs3p25rXwDzFwI8+GCMWVYiK5Pr57SunZOAOnX5N5Kln4nWdwgZ/Xv0GpbnwUvH2U0TNRubyXD0133XslLsCAUmCGXgXdE34oMk6TztB65ptVbiVuvzb33OIzsUzAnzbtTUP51FOHPcbbJV5mM3UhUMk9G6k2yFF4r1Zlqtlcn/62bzO2mavXjQz50ELuNfbHHjjKd5uJvrcXj+oEKMMUuSpksiz75uqlDuP+xfp/UGN+XVtP9n5TMRsqEiCGXgnTGmHWn9VVHHmA6y4+DRoOhJvV0mZ3OPEyplzj3cPjnv28AJZf7Z/iN0vmsBAAAAMF2EMigFY8xyHEVfFrFW5tzmvV7vmQ3OJo07tQ6/ftaulUnDxb13aP5xLOHRjxsMdr99lICt4N/yuF1K826YJG/dt/aa7zoAAAAATB+hDEpjf4PdWRuNRhePczxocnxJRMQ5t5bm+c+Ps8Nl0tDOZXLyICFQXRHKfNthJoYBAAAAqB5CGZRKUf1lDrpb5nEeFxwMk9H6fdt/7Pn8yXjtJ53Tf1yz43lt6koo8w/0kQEAAADqL/RdALBfmuc/Hyaj9VmvEyq1eNKYN4/0yVpvPPpbzahx5nGNx8yJ59biKPoybrU+j6PoS3PiubVHPyZN3c/+eZG9I1CYT5lzm06ySwQyAAAAQL0RyqBUrLVbTrJLmXObs15La/2OMWbpsJ9nrd0YjUYX99c4TEbrj46ZNa3WyqN9ZeJ44eyj4Y1W4d39v86c25QwOFpghFpwWfY2vYYAAACA+uP4EkqpqGMsxz0iYoxZFhF53A20MWYp0vpP+6dKjSfpfP/RMYzdTudCmmYvqlDuO5GP53VMI8eXaOwLAAAAzBNCGZTW43qtzMIsm6kaY5Ykk5/sHUcKvpBQfjuvgctBzHsoQ2NfAAAAYL4QyqDUimr8y81wOcxzKPO0ZtEAAAAA6omeMii13tbW+dFwuDrrdRrN5rluu31r1usAjzM5Rue7DgAAAADFIpRB6RU1kWkSzBhj2rNeC5gYT1pi9DUAAAAwhwhlUHrjiUwrRQUzkdZfTRr4ArM0bvz8IwIZAAAAYD4RyqASigxmQqUW4yj60pww77JrBrOyL5Bh9DUAAAAwpwhlUBmTYCZzbrOI9eI4uhxp/VW307lQxHqYHwQyAAAAAEQIZVAx1tqtJE1/VFQwEyq12Gg0bpzqdu+ycwbTQCADAAAAYIKR2KgkY8xypPUfQqUWi157NByuShB8kmbZH621G7NYY9zTZmtWj19WdR+JTSADAAAAYD9CGVSWMaatJFxrRo0zvmoYJqP1IMi/yvP8zy5N74jWG4cJUkyrtSIiIqF+VavghdRlp+N44ayIyGCQXLXb9spMCi+pOocyBDIAAAAAHqV9FwAclbV2yxizMkxG3oKZ8bpnROScRJGIiMSnTomIyGCwe/txnzMJXR6nMf0SUQIEMgAAAAAeh1AGlVaGYOZJnha+YH4QyAAAAAB4Ehr9ovImU5metDMF8GWYjNaTNP0+gQwAAACAxyGUQS1Ya7fs9oOV0XC46rsWQGQvkHGSrcxbs2YAAAAAB0cog1rpbW2dHwySq77rwHwbDYer40Bmy3ctAAAAAMqLUAa1Y7ftldFodDFzbtN3LZg/g0Fytbe1dZ5ABgAAAMCzEMqglnr9/s0kTX9EMIOiZM5tjkaji/M2xhwAAADA0RHKoLastXeSNH1pmIzWfdeCeptMWOr1+zd91wIAAACgOghlUGvW2q37tr9MnxnMymg4XE3S9CUmLAEAAAA4LEIZzAX6zGAW6B8DAAAA4DgIZTA3xn1mvs9xJhxX5tzmYGfnh/SPAQAAAHAchDKYK9baDY4z4TgeHlfa2VnzXQsAAACAaiOUwVyy2/bKYGfnhxxnwkFNpitxXAkAAADAtBDKYG7ZnZ21JE1fYtcMnmUw2L2dpOn3ma4EAAAAYJoIZTDXrLVb7JrBk0x2x9jtByvW2g3f9QAAAACoF0IZQPZ2zdzr9U6zawYTk94x7I4BAAAAMCuEMsA+dtteGSTJ84PB7m3ftcCPyWQlescAAAAAmDVCGeAR1toNu/1gZTQaXeRI0/zInNscDJKr93q900xWAgAAAFAEQhngCXr9/s3JkSbCmXp7OOZ6217xXQsAAACA+UEoAzyD3bZXmNJUT6PhcHWQJM9zVAkAAACAD4QywAE8nNKUJM+PhsNV3/XgeAaD3dv7+sZs+K4HAAAAwHwilAEOwVq70dvaOk84U02TMMZuP1ihbwwAAAAA3whlgCMgnKmW0XC4ShgDAAAAoGwIZYBj2BfOdKbdEFjr8OtpPVZlaD21vi6Zc5vf6hlDGAMAAACgZALfBQB10+10LuSZ/Hszapw5zuMMkuT5eex3cqrbvRsqtXjUz8+c20zT9NdO5DrNewEAAACUGaEMMCPGmGUdBO8opVYOGzIMBsnVeR3P3O10LjQajRuH/bzRcLgqQfBJr9+/OYu6AAAAAGDaCGWAGTPGtHUYvpam7mdxvHD2WR8/Gg5Xe1tb54uoray67fatRrN57lkfN0xG6yLZdSfy8TzuKgIAAABQbYQyQIGMMUtK5A2R8NKjx5uGyWg9COU/2emxp9vpXHhckJU5t5kM048klN9Za+/4qg8AAAAAAFScMabtu4ayM8YsGWOWfNcBAAAAAAAAAAAAAAAAAAAAAAAAAAAAAAAAAAAAAAAAAAAAAAAAAAAAAAAAAAAAAAAAAAAAAAAAAAAAAAAAAAAAAAAAAAAAAAAAAAAAAAAAAAAAAAAAAAAAAAAAAAAAAAAAAAAAMZrc3gAAAWhJREFUAAAAAAAAAAAAAAAAAAAAAAAAAAAAAAAAAAAAAAAAAAAAAAAAAAAAAAAAAAAAAAAAAAAAAAAAAAAAAAAAAAAAAAAAAMD/3x4cCAAAAAAI8rdeYIQKAAAAAAAAAAAAAAAAAAAAAAAAAAAAAAAAAAAAAAAAAAAAAAAAAAAAAAAAAAAAAAAAAAAAAAAAAAAAAAAAAAAAAAAAAAAAAAAAAAAAAAAAAAAAAAAAAAAAAAAAAAAAAAAAAAAAAAAAAAAAAAAAAAAAAAAAAAAAAAAAAAAAAAAAAAAAAAAAAAAAAAAAAAAAAAAAAAAAAAAAAAAAAAAAAAAAAAAAAAAAAAAAAAAAAAAAAAAAAAAAAAAAAAAAAAAAAAAAAAAAAAAAAAAAAAAAAAAAAAAAAAAAAAAAAAAAAAAAAAAAAAAAAAAAAAAAAAAAAAAAAAAAAAAAAAAAAAAAAAAAAAAAAAAAAAAAAAAAAAAAYARAGL479dblcAAAAABJRU5ErkJggg==;" vertex="1" parent="1">
          <mxGeometry x="80" y="640" width="134.9" height="50" as="geometry" />
        </mxCell>
        <mxCell id="XKejNxqJNqAKCkhe8Pqw-84" value="" style="sketch=0;outlineConnect=0;fontColor=#232F3E;gradientColor=none;fillColor=#232F3D;strokeColor=none;dashed=0;verticalLabelPosition=bottom;verticalAlign=top;align=center;html=1;fontSize=12;fontStyle=0;aspect=fixed;pointerEvents=1;shape=mxgraph.aws4.authenticated_user;" vertex="1" parent="1">
          <mxGeometry x="91.67999999999999" y="760" width="78" height="78" as="geometry" />
        </mxCell>
        <mxCell id="XKejNxqJNqAKCkhe8Pqw-85" value="" style="verticalLabelPosition=bottom;html=1;verticalAlign=top;align=center;strokeColor=none;fillColor=#00BEF2;shape=mxgraph.azure.laptop;pointerEvents=1;" vertex="1" parent="1">
          <mxGeometry x="153.23" y="760" width="50" height="30" as="geometry" />
        </mxCell>
        <mxCell id="XKejNxqJNqAKCkhe8Pqw-86" value="" style="endArrow=classic;html=1;rounded=0;" edge="1" parent="1">
          <mxGeometry width="50" height="50" relative="1" as="geometry">
            <mxPoint x="160" y="750" as="sourcePoint" />
            <mxPoint x="160" y="690" as="targetPoint" />
          </mxGeometry>
        </mxCell>
        <mxCell id="XKejNxqJNqAKCkhe8Pqw-87" value="Aplication 개발&lt;br&gt;commit/push" style="text;html=1;align=center;verticalAlign=middle;resizable=0;points=[];autosize=1;strokeColor=none;fillColor=none;" vertex="1" parent="1">
          <mxGeometry x="200" y="743" width="100" height="40" as="geometry" />
        </mxCell>
        <mxCell id="XKejNxqJNqAKCkhe8Pqw-88" value="개발자" style="text;html=1;align=center;verticalAlign=middle;resizable=0;points=[];autosize=1;strokeColor=none;fillColor=none;" vertex="1" parent="1">
          <mxGeometry x="117.45" y="838" width="60" height="30" as="geometry" />
        </mxCell>
        <mxCell id="XKejNxqJNqAKCkhe8Pqw-90" value="" style="endArrow=classic;html=1;rounded=0;exitX=1;exitY=0.5;exitDx=0;exitDy=0;" edge="1" parent="1" source="XKejNxqJNqAKCkhe8Pqw-79">
          <mxGeometry width="50" height="50" relative="1" as="geometry">
            <mxPoint x="215" y="665" as="sourcePoint" />
            <mxPoint x="320" y="665" as="targetPoint" />
          </mxGeometry>
        </mxCell>
        <mxCell id="XKejNxqJNqAKCkhe8Pqw-91" value="" style="shape=image;verticalLabelPosition=bottom;labelBackgroundColor=default;verticalAlign=top;aspect=fixed;imageAspect=0;image=data:image/png,iVBORw0KGgoAAAANSUhEUgAAAOEAAADhCAMAAAAJbSJIAAABNVBMVEX///8AAAD11LjjKjgpUWDnKjlta23z8/P8/Pz517shISHiKjjY2Ni3t7f107f82r1zsMKWlpa9vb3/LEE6c4ji4uLR0dEkHyDt7e0qKir6488KAACFhYU+Pj7h3dwkHBygoKAAHh7nyK7IyMgTCw0qJSbRtZ4oSFUzZHdVVVViYmIcFRf43cbWuaEAAAraKTfHKDR5dnesrKxMTEytlYMUHR45NTaSJCy6JzJtIigjFxU8eY8kJiqPj486Ojp+fn5lW1Wch3d+bWG6oY1QISVJPzpDICPkzrtEOzdxYlgSHx/BKDNXS0SkJi8ACxE0XW54IykyICJbhZJfIiY3RUomOUKwn5LEsqOMfnSfj4O+q53/79kuFRpIHyJyIiiJJCwOKCwYOUFXfoo+UVlmm6sAEg9IYms8mEF/AAASoUlEQVR4nO2dC1vaSNvHHTUHIpCChoCBJMIEJKMoYOIJBFFUKGpdl67dbuu+Pez3/wjvTA4QBLa2ax9Cr/yvXi2QAPPjvuc+zAS6sBAoUKBAgQIFChQoUKBAgQIFChQoUKBAgQIFChQoUKBAgX6CWCGhNvQill6O5QR21uN5aQmqrgEJugJisS7MekwvqYgOJCSiEjCbrVazjUAJIgjo8KzH9UJiVQCgKCLQfrv+/v36Ov7r8s8HEyAEysysB/cCYiMnAOk0KrX/XB/RHx1sx8z8u2qiCFLlXJxWHrZssC2sENHW1nYTwdSce2qyAWA6Iati+4/3Fl5oMRqNLjoKhfYQ0hKzHuR/UVwEekKuVMGDjTdgcxTl8xCJc2zFGFBiQrxcBW8J4BgfEZ9HKDW3c7ECtIhcoXWNAG5NwLMQsaNm5jT7ywgSQNp89y+Ai6GtByjVZz3WH1MZxJKVIl1tDgCji2OeurX+fr2JwFxORUEzVRNIErjEgAQsitPF5RY/Srj+VoOmiOhZj/YHJOhIBJqergOc6B1zvb3SUnuhkVn4J0AlUu/MX7ARNJzp0rlwIoIzhWXCrfVOqSSKV9kRwndn2/kHDUnqrAf83dIhysTlSoOmxZZtwvUmuNrLb+efBBosPmvC4qwH/L3KAVQN52idJoTW1Nt6CzpRHvNMiqdZbe5yYgOKiQhtCT3wVphpt6OT6GxnPQW5WQ/5+8QUYTlRtgmBHVuyID8VcDGUn7eJmExJqmoD6mDbJttz80T2KWk2G8pezVm+EJAUcUxYFJ0k73BFQ6cOYpR3DYjhe9VZj/n7FIGwYgPikmbUYFvrf7YswmjU/ndx6xLxfEec9Zi/SyoSoeOkdOYhNAq4vo5sI0bb1szEj7TP+A6c9aC/R6okijDmEJqn3jqNVG7rLdt4oVYnZD/yrs23gDrrYT9fFWBcXMA6XSySdGjujVaiGCiLTgli6MwKrzhD5sHZAwSVWQ/8uYoA45y6NzIKhFAr0pkRGy5m81k86UqWf/KoHV3keyUAwOkpFEFk1kN/nnLIuFil7jiImp0rqBSLvZHEtwdQCpeseceIrRB/ilDvjD+FFxyai6yfNI07avWNATuXZMZBjUZZL+F2E/OZdhEQDTVLe3w0m43ymPD1HTKTsx7+M1SE3C42IWquX757i6Mk0ksjtUxocTufd3N+aNsk1gyRsu2GOuDmof6ugI3r1dUdTrxc1wC4WnwHU6XRibjoLb75M6BZuPwDpKj9Df9HGwF0P66urh587b3/I9+70jrbAGhn0+vRRX4PXBFEvvUXtbR0aAC/txg0FKnVVerga+f91vZVNl/azm9P7yisqfgAerhw5Tvn1BK1I0Kfl6dxifgoRR0Yzfdb+R7P48FP5XNW33C0afKL0d4htiF13ZXis4b4N7FVdId9dIXavbtax1GTD21np/HhzG+tbeCUUerwoezJPiZcwiGq6ue104jUfY1NiEf6wfiDj+LefrqDRi/X7dINN79noVC+e2ARHhiSn/N+xjjHgCt4oI9fO1uL0+1HLPeOt/jyHdDLEkO+JoRL1LmRmTXGdOUgMaE1zl3OyYLTpmFor7nI89l8B2p70VCI7/y1s2Q987oL/VvZlKFjQjzQj4a5TZadzvYmI4bypWarc1XSTnGZmj3lT+4tEy4t7XyA5VmDTBMLuvs4zNim2BENPPhsCzTHNyxwjYat1jKveqdn+Hb0oZTPd/cdQuqxC/waayqgSzkmtPzUuAGg1L7cGt2p2NoK5cmyKUbDCmXPWiXwwD/c7LqEu4ZvC5vyzb09C52RHhpdEV6ujxLiHMHze6ikmVdX7XYzryFYai3y3Icd94kr9zc+dVPG7F67TmohLu3ud0u4wXhCmO3k+e2WCUukfcyXSqnTKH9WekMNnrdvmP68QCMMNnYGTmqPleqW3F2ZQerfWjxt8ySKnraaveb26VkWZ43e19dDwtcbPt1rUyXD46T2YM9vWu+txB7Kt9yYGuUfetu8oxCOObjBKJ17n8X5dHWYTMMRExKH67Yv7c3RUG+4XMNflZp7+fw2UZZsWlxtDE2In+XTicgWv+6PEe6IN3/YbhrKi4NGOJRtl0pIwxI13FaEWjeHlPdZj1+LfswXSbN7sEotjYrav+msO/XngxYdIp62U5pmtlukwT9D4usRwmvDl6sZsmjsrq48IVxa+cBduhcp9HrDQpwnqzP4bwwYNZ8SHhiiPGucCUpIxs44IfXRjTXYcmZvvBkOLTaRwnE73nm4a0h+DKYJwFFPpiFOF9d3InCNiCNKe/vJdQr8dhMqfYW781iR2uGAHy8EiwPu6TQkZY2ooOa62+tut7Uz7/UmuOTGLrq8VlA45Xr4ZEzox0afEI7yrTyKhlKrKaUHJ9hgog7o5O21Nvx3dO+qJIqFtbW1whFn7A8R/UooegmJg3aPastrx/2j0tXbLSu7b+/t9VCpfZrPRrP5vQ7EfCInKptrx4UjcWNQuFG+JfRMJer1eVfBfER9BUFw1Tk92xNvbgxOFCHCKpUAMkWj++GDUcOIy4rYfeNvL80BzhMrHkVOKazZ2qwhPVEv60UkPu4f3nUxY6/X7rXOzrSN+93V1UOjsLm2dlsTu85cxIR+bPMTkhvysQEv8AS8dQBvlws1VCcp3CCLxdTBuWH09rK4oUgZuBlZXT0w+su3a8ebomGXNri1lPwYS8PIOHAG+KbLHTkG3LxdJipApRxJAAtodXX3YuMGnZzc3FO4VF9Z2r3r41M2jwvGR8rJ+MiP+VAwDcvJqMcNYsBji295oD6SwMbB6goRtXrwkdu/vvuwskJqhJ0LQri8WXBWMkjV5se1fab6lQyQeo2DY3/tCZ/FWMMdhLuKs487revuo5XnqXOLcLlm2CsZ1P7Xqi9bYNrqELCL2SHmdnlMxIY24PU9t0vtcyuUl5A7d/gPb/y5eVGHd5YNRYUkiXG+5eW/r92VOIq6ONz/S9mhiFYuCtZcNR6dSHUH/XnJcA5skGBKXYi148mE//folubUwREwylXw4c3+9cE+ZxH2Nxwn3dnwZbLADaJi5TPq0VBuJzrpcuGDu2J4jeh4WJbrptH9vQ85e57eOSa87ip+bA9xk6/fHC7ZbloYCzOOm9qRZekRQVqWmbCQu/vt1avftBo5aLhV2+GN7scWf4EsRSnETVfOOXHaRDzE025p97776bOkMjkQTmpfXmHEowKZhk463bnz6UIU2eHesNx0v3t0O5mwcLeDw+jX/pdXX0RNYCKsTfgPiaV90YlC1xv+3ekuGvd2A0vcdGQi9p1/axsbXfgPhnr1CaRZUiZgwi+Wk3bd1ah7w78XZEQkzppoh1xtlLCgONOyUOsrn19ZMk1ZqAgnmPD3vpUr7LIbVww+3iJlNcPejN842hwJNX3x2AXuW35JJh9QY0D+Hd+o2ZHUrtupQ0PzaZwhikmildNw0j8eIawN7romfPWqVpWTOXwvZWXDQV8hSrFZY/yLkqZxb6fE/rE31BQGhIWjo8+OET9JlYX4ZzvMLPe7TiS99+da6UAq7h8oUpvWRoJpoT+wYV8ZMNaKjPrpi2g9zF1YFdzO9Qb06+ahLaaKyEbgDsdtekONhxDfFo9Ei/Gfo5z+2+9OTfqGbMbdXygi8jfhQhx0cf1MXSi3x1MIyT1sx98/vfqCyuY/tWXHSQ/uua4BTQ36Nt87KkPugMIBcXmUaSTwEEblSPlsoproZBPlA8YDZoQVaAn6eiIusAjhuH/d9cy82qiXWurXRFHBf2r9Wq1GbiFg1u2lCxr4OZguWJcIny/hUDMMpphBW7st9PuYBqMgRH40Av8jYikEDiIR6jmcBRmBIdsD5qwZviEVGh9fK8NgWqhhCg5BCUDNrBZ1uoxF68VMChNiZlRM6xKNPTNcLicIZsaXuxZeNaTu4R0Opo4Fj4g3KiYdiyfCSc/6C5Mrw821tT5Oi4yiJ9k6UO1ipgH82eJ7REucKDqEtxjieLM2wSqsrErHa8cF8i3nNJKTuNMIW01FBfhzIcorXRJxunC89HZzc/PvCav0jFzBhGsFSLM4yeCPoKzT6RjxViD5tn1yxdJoNCH+PSGNM3IcbN4uF1CGWUiCCLvgFtyC6MttiycqouURwgkJgJFzwMqFCNsNxNiFhKrGcTBl5eI8fLWkDAtewv6EBVBGTtiEQF5YQGmWjUQilUoOP077dK1tRGlplPBq/BRMKJFjCul4T8pCMskwDMsyArahv6saSzGpfzwEXC5I46dgQkTKbhHWk3KGlh2F5QTM+D6WjhEuT7AKJlQIIYdoQa5W4/FKrF6PJWQ57f98uEBWFmsjq20TZhYmNAlhDVVVGgIAJFzdqDk5hvy71uZRBShi30N4o46dwsrhDDkF120gU69EaEDHYnVaA769gHZEAoSKwg0Z/06PnYIJi32ry0BWxcOWq6IElGpjDgIpUUJXMGPNZeyPL9SzslxGIlJEUtRYYpJYcxBkXMn1lMVobyxpYyPHhA10omtSxcerh99QMgYkxYIsFCZEDxw1cY6ozkVcmSpWNQFEmFKRxsOHTVj2fTf4DbHxRgYBAGFj7JAs13VZjs1H6PxXMYIgqNL4Zb+CHCuGcYMxHmbnUUmojU23pByrhuXwHPS7z1JmvOdLymomLMumz1cPnysVjF1/z8hqKkyCqR8vgPp+4Ybh6UOsXFESibj5ixAymbFr1Vg5LhUzEGq/hpculMeyAoubfJxIqr+GCclS9tiPCMkyUCK/RiAlSmZGu2A2KcuCOYc/tTddaSlTrshJxsr8mC+Ri9dTv0iUsYUnHZSAWKUb9Xq6TOtVTYIT6oB5lpoBQJIk4FHxVzIhEZuoxLD9sBrpulrJ/SJpIlCgQIECBQo0LnZyN8HM77qwI7ZSb9B6sVo9mbQ7WMmkTupzzphMucUoN06oWgfKM0VM1GMe/cjHLeToaYSMwz7T1W8VjOjHOvPqFMKw86rqfxzkfxIrqEXXy+q5H1x6UKcQJp1XnvXOIesg/vgqfGTaPEzb3eLMQ03MJvzxnZSphBYiPftFKYfwxy9Ymk6IA9HMDbjwkwl9oSmEzL+UI6MFzI8QTiqBWGfB7sXNPoGQiTT0arVI12X3vRkhEa+o9ToeWFKli1W9MVxt8hAKOVeM+5xYQ/C+QjqJX75SJq/gzZNsvIErI/yOYab84t9THCe0wj+dsQKhMHjAUnh4e3BhooewPDgxVxncJBtwOc8rRNybww3kyKA0AhxAL+3vTwkF8m7kv2pSB4+H09A+CYb1wVCAOk4oVKzjqJ5YCDegh1BIuwxyY/gK7nVg1kMN/AKCVSD9ZEIL0Kq0GNP50LGSJzahCehK3M5zIJUcIyRfPsHo9k1GHxKS33m1750AvRKvO/TJwXMAsF+s8vMJrYHYW9R2xal7MJwCJea5PUqIK/HiYMFb8BI6HM4bOT5sJWG75uCGw/m5hPZb2zu7jq2sN0x4zxKQ1009hBjQW76PEIY9UO4h632ScOgrC2Tn/OcScp4J4j3iENrDYG2fTT8lFJ78QMskQsH7PtZFxm79GrMPxV88s44QyvadOpMUhGQdDE01SpiZSJjgnrRKkwgdU6WGhMwgkKZiuZ9RA40QOrkAcsiNhE5a+DYhmyN2SXl3LZ5HuOCJruAk9mIWZNyiZYTQMZuuepR4FmHKiUXeq6SeSSgAr17q//ckEaUqTCNUx87/JuFAntLhmYSeesDSi+w+OtGaeUro3BlvFr9NWHadbeinzyVcSNJeQv0lCDNDrJh3HM5ox79I8YxIw9oVAhj+tMDzCJPEZklVRy4h9wJGFOxgbSWnutc1nMidGtvlfE4sdZ1t0Ew/jzDtWD0Zd0vCFyQk2ctexThxQpjHuI7050UaksXST0b4PELP9/YiL0bolJzE4Z01P9U54tRWqUHM1oH1o//PInQqgcHSzHNtOLx2ozrZg35AVptjNWL2NBx+hdXxFNN+03AV2BcZTiJsPCV0z3I+L3bEaacS4mky+E8Ei55P7r9JcD9pZ3hDv3A7AlCsq6oOAWcNiXVmq111hjnPs1jdA+I2iBFynhOw7aTkRrQG64FPkRlAqowTuxZi4UuZ0EpBXD1esaN00ev4jDubhocY2l1VBdXKQpg23Xt6QqAzg1PV4To3qKYbg1YS6kKyMXiFjIqTw+BJeg5/EISrITBMmJx08lLXcgiDtzSfLtGEB616xp5Dbm1MVB60QZatEp47ZFoPlgCg5wBICCOnhT33VEwYyw3yYeolrw9nImSzojLxIwtHKmol/r9ZPmOsJcdwRP2fvWOgQIECBQoUKFCgQIECBQoUKFCgQIECBQoUKFCgQIECBQoUKFCgQIECBQr0svp/IT99ghCKPCwAAAAASUVORK5CYII=;" vertex="1" parent="1">
          <mxGeometry x="327.65" y="607.5" width="115" height="115" as="geometry" />
        </mxCell>
        <mxCell id="XKejNxqJNqAKCkhe8Pqw-92" value="" style="shape=image;verticalLabelPosition=bottom;labelBackgroundColor=default;verticalAlign=top;aspect=fixed;imageAspect=0;image=data:image/png,iVBORw0KGgoAAAANSUhEUgAAA+gAAAINCAMAAACag6VTAAAANlBMVEVHcEzxPh7vUDA8KAD1SCb1Sij1Ph5DLQClJAA4JQD3RiI+KgD1RCD/Phr/QB5EMADtUjLzVDJE4k/dAAAADnRSTlMAIO94rc9A4Q44i6tk46xYJNYAACAASURBVHja7J2Jlps4EEVbgEBsBv//zw4C7LHbLFqBju9tx5OTTCyQ9XhVQip+fgAAAAAAAAAAAAAAAAAAAAAAAAAAAAAAAAAAAAAAAAAAAAAAAAAAAAAAAAAAAAAAAAAAAAAAAAAAAAAAAAAAAAAAAAAAAAAAAAAAAAAAAAAAAAAAAAAAAAAAAAAAAAAAAAAAAAAAAAAAAAAAAAAAAAAAAAAAAAAAAAAAAAAAAAAAAAAAAAAAAAAAAAAAAAAAAAAAAAAAAAAAAAAAAAAAAAAAAAAAAAAAAAAAAAAAAAAAAAAAAAAAAAAAAAAAAAAAAAAAAAAAAAAAAAAAAAAAAAAAAAAAAAAAAAAAAAAAAAAAAK6JEiJ/IoSiR4L3cCnKD+gWOBbRZLK9jbSyygU9ElznZV10bxQ1QodDyZtq0PnATb+1MqsapB6QskzTui403aB2/a5fRZ2mKWKHw6ja2c0ftLKhVwK6eVr8cvMXVydNgmOy86aSv3Q+KD0jfg8nc23mK0IfXL1E63BAdp5ntyXaKmf8BYnb03pF5TM14Tsc4OdZuyj0m8zw9EB+vqlzHb7j6RDZz5tlPx89vcHT/YW+q3Ot9JSOhpijMF9Iz18TdTzdN24v93XOjTaIH7ffthjydNbOeCboBjoflM7aGYhH3rTtbVvpEk/3YvW+2seEHH0F0fy8uu2h597xdOcuVrWh0IuaXoZYOpftbV/p5OleGXpnCEKHaH5uoPPbTeLpsTP0UejcYYMYmPk5nu4n9NpY6B2rZuBEP588vcHTnTCdipvupdNfENzPc3mzAE+PL/QCocOZfs7cO0KHv+rn2c0Sdri4Cd04Re8QOoT289zOz+e5d9bIWfd02iF0+EN+jqe7USN0OC8/z6SL0PF0h9DdQugdQoeQft44+fm8w4X+i+XoBUKHoH4u25ur0jNKRsZz9KK2+mhdb3KJUrDwBjz8nOpS18rRx0J09cePrlZDv+PnHn7Oatgr5ehCF5ZdggJ0oAvK3PygupSd0M3vo1sumFmtUFWk7I75epl7+jmebtvjaVecIHQ6/uv93Fvnt5vE020cPaLQOxwdFtO6St4CgKfHEXptKfSiw9FhcWysVnBn5UwkLPajWwp0tUZVjaOjdBFG6exaNe1wiwozlnVgVY2jQ2xPpwq0qaOb14wr7Ix4S+h8NSg9D6T0jBk5Pz36VoFVdYejwyqCPP1YoRtOx9mWnVBl0eHosEGAe+mshg2epdtOxa3nBDg6PD29xdMPzNJNnr1mOxW3fv2oU3bBweTp4Wbk6MwgwXth+5BFsX75wNEhQp5Ob5qYb7GboFvm1avr4sjRv3egRfV0xpRB9L7z/LXC/qHJG2ECjv6VKs/zpVoRItxdNvL0/S9BpFt5ussO8o27dqyM+84ovVp2XfL0Qz09XTV1tw3kG+twcPRvtJJGymUthvJ0iacb5enlWCfiU+WDLEv7DizLoiNHhxc/n5+GuvCXFXn6od9FWde6AIzeoK5fRedRDmbr5jyO/o1+rrXcttVKnh5m16okejf5NlQptK/XtRa8fh+8XJVO4ZDayvlx9O/TefXyhPOF/yFUnk4lCvPvZCzdWk/lWt0/ZuuGHY7+bbFi/lzruu7pwebe6W/jbF1oIy+Vcn9q5eZOGVbGfdmIypsXFWfLnl5lNzz9D14s6nCr5uGv+/m7Wy/Pmalc4ul/ju3V8+ToX5ULftSBXN6DIgLNveuKkQyvg77c7SW1OPo3+XkjF+6DNUtSxNP/qcCdlXFf5eeL8+nLa1vC7VptWDlzSOC+s8EdR/9qP9/w9IaKkX+Jvb1w5Ojf7ecPT/+J6Omsho3v57t1LHD0r/HzbGu96tI/CVRd6sZq2PhCrw2KUvEtfLWfr9eKwNP/kJ8XHY4O+v753h6UmJ7OypnIfr5ff46Vcfj5uAVlZddqNXh6+4Bdq5f8dtPa4OGsOPpX5OeVSXy9PPcu21bKbEBKd6mzGjaWypUqjUrEH5Cjq3dO6o4jDkItcgE/N4nA22xxh4vIB8TI8BvnFXPsWo3z3W4UqTna0XV9shfyE77w4QCqAW1L+r9VEyWQFHMzYztzS5U+4bN1nlemc2a7vTIo3TFtx9OjuHlq+mynOi2F2sfJ3CYf0PXJhrFfZdPbMPSnP3Y2u8fnrvH6sdNRNJUOPB8MhzEdQzCznVrJdTMv7YxN6RN+nO6V/Xzctbro6b/73rUwBatho7i5zYPW97EvR6mH/Tjux5Gf/M88/ifFuxlnNXzC+k9WibfsVGtvbLkffx4HoeUeyGtVPp3qfJr9a0tzW1msMMKku1qL+2AGh+i6ZA5PD5gg6ro0qbnKxzp0dV3s/NjVl57tbRz4/X2RXo//rMpdbFXk8r5FkuVv9vM4hv7lNbz1iV6G7e3qU8QwtJI8WunHBh6/5mNKBrE3ecgoIrSfz5UoDLQoXDN1PD2MkZfpXHnKQuda6mM5um1SOwupnia6zmR2evhbK13e1z/23suH0Ac3H6816wcwXmw8zbyZrLzfYbb26tg6yLpuVGu5tkUZnHTllqjr68g1TX2yyO3Xj3/2ZdDKQrsLMrfUuDGphb9pL09m19xisrrZ162Enm1+7iR0Nfpsv3UU+u/k6LPKdXRMJ7t/rvPZDlFE1ng0aB+3W694Wa4u9XH9cKxBc1VPf3HJ6TXS1d3jD3TRxnRQnWc7ZV3YMRxAnb5/wlwsNgrGjq7nowzs7d3qpFzePuUo9Cl0ny43Rs1XjePgGxMDq5Pt+xBhRDQ/n6tLGSjd4YOfEYO6nJOPVVgHPS8r6FGCeSzQ6ufHZW2t0F/h9P6i9gOErifgRjO3GPiTz1U2Lmfg6Hqi3exA5tYdBp9uw/Zs59PNqkNcXThVj2hNLrvOxaYu9gyXSeL1aJLF+vqy4vFT1HavX9Nbwt6JfwldFDGFbha6q8be4J42Z+FyIttq5K6FnlcysWj9baLeFC1zp7O1PV9ns8rdbDczmpGrHKu/y8vMvU8z17ZzWqO/m79++bG30MviZEefZrj7u53BPX2u12JTIYSuHX1IIZO7ReuJtC6Dom/yJU4n+5wciO7nrrVcB083uay7rpG7iqePi00clGf18pdpfWDobuDo+aAtR3+bR/+gtkBCryp5t7XYzHLw2YQMiy3KKnZ+7l4hJjM5ttz1469QXWpMy4s6bhw8XhXStxii++OOrm+t+g18nSxnZmtKdoSub2Mld3vd2UwIDioasnO/y1p1UT8fpWjQF+7lIy/g6WV8jX9KR+3VdTMQujpX6E2W3HtfBqkbrczaE3ri1ra0GHxN4nu+cYXu5ed6e4uJo7s/o23IW070dKVvpRXHCL34JXR/Rz8zdBeGt7L2MYrqdoTeu86QGXv66Of9lYXu5edrVSg+puM82jizupT5RpDAobtTw1cK3XMZwM+fahO+QnfGNE8PcL5RQ3c/Px+EbhRZm26KW6tEoU7z87rrzhL6xR19U+j6lnUw5SVyf+1UNKGb5enDAA9wvlGF7iNBLXRheDnxqi51UvBeHmfnv6UjUpem66vcRx9ytfs9mNju/e4IiCV0PR1oMMTzKsD5RnR05f2EczOh/ygvocszZuRKcVh2vuDHZR3A0c8K3aflYWF99SShT3Pv+8tQgpxvRKF7+rmx0H8av1aOXznjNO0dMHR3CSauMhkngvr5ZHbiLKFrn1W7AWt/v7DQlfCv3CoPEfrxO1xMqiJfXujnOLrKGxlcdcnO3Z14Qtf626lGIaosVPAQSeeVd4XmYxx98vTjTF0d7+e/76MX/kI/6T66arL+Hl5t2WaaHlPo972rTJjAPVqOLkJUYj8kRz+8YmRZ1t3xOn/L0YsQjl6cEborGUNz9+3p75hC1zf4toWU9Nd19CB+rm+vKbPG/Fs6btfqKX7+Hro7ufElHF3kMpKtVqcJ/b4VTgypStJf19FFmCertEbF9LYe5na9PF3ZVViLk6MHEPo5OXoTS3KbwXtkoT9LUS0Nl0AZehRHD+TnhrvX3DeqfuxaVf9q4P4uHeUm0vN3r6nhq46mto0FcpGFnshmdeipYGccQegi1JPSbpnRppZMhrmqHOLp5Rl+/pGjX93Rl4UeKXDfnROLK3QdvK8OPZOmP0veHiJ033Wv7wG1Mgrdg7R3xLNWz0nQF5bA2u+A/8jRP6tbmH/U7itdXpgh79GEnqzXoYgudLm6qUNIg3KvU9367PEwh8VyuOFzdNGEkrm2dMM1/6Genx7b0w9e97q2H91lpuBz1n1W91TayrhOZPH2j9Z+Uy6Hscn9qrYapwSGyvfOWJeOqZr/2DvT7UZxIApbYhNCOOb9X7YlSNIdG6hbRYnFaZ+ZOfMnjpP48631Vj09QhiPWPz1t88HuqaeT5kz9Nnide6nZ95aRe8QavL95ST1pMct26355Rlez6tgRxaRQy1zl1pc7prYsqxmBj212GY/ZSJNBOi2HI+tfV+H+sR9BH5yfx/yhO7b9lKFG+mamu7eKXD/0snm9faJm0J4xiUl0gwCC1fERxbjWwvWczJjnZ9ROwr0YSjnFa32BOiLzoduMsL+9tTTVXRlPR9PtkAaq5anZ72fzloPnfD8q3EdmgUnP+juh2y242OuA9Di3hc06CYr6IwMfcpapzOjFTxhYxcnV0Sg85KM+RabC+ug2+WNrOSdmbS9/LLoUAVdWc/HLB3Mm5Uq/b3PCTojQ28SsBFR9x1rx0gbIT1m4yPaID7xmbtmT0XvhPfRHeoeNYwXC8aAdry7WMEuTEs9Hj7ozGBiKZwgfubhQbtmjLo+6IKuruec4P0KtfcWL1h1xXSkwf1N76f7DvRTNON9B/xnaEHSu4MV3UPAxvfzWJsazwuOOWtI73WsHLeADQ/00UPdh/Hb4gO7s0V/R7hIW7qmZD5/AVYR9Ax6PubN4CCL19L0Oh/oOOftlEb/KOXFB1Dxil/M+wGwCjyi6B0GukzRS0wZZ0JAgznGLpbjWKDb78OGZsqS4SzdzPYZVr8XeJMh/QIqLdCd3pzMs6ZjbS/NPD1LKQ7M0CPmUcsXSizIkeL49SyUDGQhd3AxDivFVbMGzi6ZQ0Mx/1bQ0+fMGE64rzQZPLuQumRs0C0Kuku6rnWpxWz2mdg6nur8qWvvDs2FiePg9DJ707bMT6DzKzpUils8deQg27WtoKegPcwMblrsM8JwB2CXXu/Cr8CcWs+nLdISceVN3lUn1nRsCzzyRGBKD7s0Hee8ONgMUKq6N0JFB0pxK4eOHFazt5tAT75QM3lDOrOKFBdmvjk16W45oOuUnlw+PZ9Qx8J3lf2WTO5S2BoIEneTMXLDytLbvUN3ye8WMZapVqwWowgArIYNoFu7oA9YX3AY8oKulJ/XZX/PTfrzX87NvQ6d/dgMmt62YNwOnJAlbVw7TvBu9g7dJb8+IPRerUE7F+gB2mG+XQWBnjCfTzBTtAs0DIZX8wsC9MGKL62LOfd5OR8Xxp8nf+b+rE5nlS3DrdW2bTR6WFijjkWTUwrdc/bRnRfFvk/CSjfYvBT0VZdHTNOrl29OLqlW5a6g58zP/8mbnz7i5+NrpzQNq+1EgdGE1supWdqmYWTp4OEW8jPI5au6O0PW3Fdm1b803VvyOWYH1ADQ1w+BAN96Mr9gttfih9uOFsZqPhNM0O/zB66N15qcCZpOFFBpu+nQZyMS/gg6/uLb81fdkeZaSU+JkXm+lYEe03PimwcoKGCDnjywdrM7jHp+vx8B+j2vpt9VNR2RO4YOO8Us/QJ9dCD2tfQ8CF3+nm9YUaCvmkF9Q0J+Ug0zoNO9BuvDG+n5AujzH2d6mq7oLgWBzmiLFXpZul6Onk3RAURtUPm4ECk6DbqraUkf7POwDzLfP2r6Di5omeZeIdCza7ri5AyUwDLEjlJhauwmQ+iecdadfsMvL5lyEoAhF+jJ2ZD0kIgJwNP7LXi6XJ8WUPNbI+1Qb18FPXeerka6A9SOM9FGxcmMNGDfPnpXFALQSUoA1m7GlCQ0c70cDdABcR5eB/vqAICeLs2EzJn6Xnq+BPqiJbRWH0DNcgYDHX86xbq72Tt0F3TRqTIaWXP/6sZTUytznWkN0JOz5QBI8/MXWWjWZkACmk35eVkdDfr8zJxWx09taxUAvWkY34m2jYbr7u78k3F0YwyrnFJjN/NLZCqgI1n6S4PNGdD31o6eUubyer4M+qKvnNqGy36gd63mE8I7bBfoo9PjMtgOJpUCDI+5kRkV0MdnoeT5pZNu8D3XAXoVMj2v+hOAvqTpp9pwQebiOm3QW03QtUJ3yWScUwO9lOT6SqDTvbLh5QagK3Er+6jq5eoNuQvo+Rro+TVdoSIHgN5oKzoqnWbXEViBojvjFbroCOhDRtCRctzLvZg0BMuwxExjtMqttiy+UULQz6/pkP9r0xlN0JsCfLrT76PTbTELgk66quYEna6sDS9tHhc8y2bSji7vTlXP/f1+EtCXNF3LiWL71qpBdr67gxT99H10eqwMLTrToM/NxumAnhJusu7+HHo75tnkIVX0gp6q763nFOj9fMc7aXrfV1/navrDNB1R9EZb0bvdc/RMVXf6tiIMeqgOBZ1s47+MzLiaexF+NKfUaqvvNPcKg760V+p8WU6WnJMpp/Sgy9atVYOB3h4C+un76IYaXR2uArolQX9ZdjUl97Jk6qrrbGTtW2/HQO/n3VvNj0cdpMH8xq1VMEd3yqBjz+fOPhlHb5Jb2BT8UNBLEvTXrXbDzNL/utc5Bc7L+/1koKcby/QOSrIDlal65bcMySGKzsvRqUVVRoBw+j56TYnaUKGg15K1Fj3QKz7oKUvnH4pJ12HD1lkv1XupeqBDjuzOGamv3CZNR9prHxzQ6SdscBeLk1fd6ZkyFPSbI+PgjKA70nTa2plD4XUpuhZtFz1xYT335wT9DtUgkh+o6PX3W7ZWW8QakgV60ZwvR8+m6FZJ0SPow6GgU7UGO+MNFQPoh+iRXO43RKF1eQDnEOjYlRVx5rEpT3eI7wQHdNLdvds/R880GQeA7i8BeigHqkQwZwLngvCaq93gKecO0XMQ9AV3qRdNF9YSqw3HLrDtNRwB5DTTu/TRgdAd/cu4SrCRrge6F4EuDd7HbkRtZKy7Q/QcBX1pa/W1XyPTdJ8XdIbYAaAX79JHRxS9voKi12Fgr7V8RtHDQyrqsvC9DtX9zKBjmi5OP8pQZwT9A7aSckDKf8Cse6Y+el3pgU57zLy2pbRAj9m2DHTQGX7Zaor/fvVVf27QwdkWYfDe90EMOqKaHbxZCnTr9p91z6XomqALPGbUQL/VJOiVWRolkGr661wtUnE/KHBngI4dX61LafAu7E2CoKMdMeDZ3mcfnZ4CvQzofCfY7wGQykpBr0quJcW+m6ky0Be3Vp9bFtJhWGFtAztCDqowct7pAM84LD0pbr9X0elLEEtvgLBF07ljcodl6DzQAUUXL99JbTzA+BjK0qHzp0d4xjUXyNHPDXpUdHfLoumst204KkNXBz3+LMKh90oIelsgx1Q/OiU9bz4K5c+gAyfjfpWiL/526m2azgK9vwLo2JCA9GeRluOwI4tJ01dBcK1WpH2hPvr75Oi0oi+rVFrUEGu6ZWn6JUDvS5c1OhHX3SHQR683t8r5B/aBsfsBh2zXVH+Voq+Fo3WQRu/jlLB7K9D73kM/kHiSN2uDbVo7WxI9NzKJRQYF5/baL+qjX1fRRzeqUD0eogDeWsYE9zUUHQW9OifoU/jeuvHx/cXp0Rp6wl1wZPF/H/0qij72vcQluQoP3t9K0f3eoCMLbN+iHh9FxN0kKmK8HiP2oouUo5zrn03+NX30fCOwG4txX0NyZSXUdPyayyVAr04LeoFK+sh61PWEepto/8Qc/+oPRrO6/V91PxPoZKblSysUdY9++v9X9A2gR9IZqI6oR2AT8OnL0v8xvpaz2v4O++iKs+6Hgj7QoDtXh4j6IFD1CnWi+J+jbwEdJEHjwZJNd/rJuDfZXtsw6/7zh4ikVyJ/qRLcZAvlr6+6y9daWFn6xkfBiY7/76PvtY8u3V6bY91XA1/ULWh8aC4xAgsOzAj316oN5hNt0eyh6Yxhmf376M0vdpipvRboEcXgBaru0VWNKyy1ZB2Y6TedrNwneOcZxF+gj67mAnu7HWslpQf6FGBbrqrDSYbvzw961ln3ctMRarCTtVXQWxZL7vSTceQNAxR0R15Fsnk94+ipFsbbqw6eu+hi0YD0/MYTqLVbkL0Of9v2aD+a/ILucnz6HNhH9/v5uuc84EDaPQ880G8umaLxrGcsWjY8u5XUGF3TU73Czfq+CltBL5ozVdwv0Uc3epda6upxHOj0dSW2bauLqs5pqw8WPQJ+cnNItMEmbK5t8YH9Ch5zV94brmKevo+ud3vtgieZgFJ+hTfVB/yqw0GazgKdztJFpbiFO+y8v4vLW5BruoL9Vjm9ouudTT77kUU+6In01FZHx2LxmMGd94DDX0mnfvGiUlxfbg3cRx6yki7g6AL30Uuta6rEffRhltkd76OXXmJJyHGfsXh/uD7rSaZ/pdeozwNo6PlnNz0b6VHP+eaV7dmvqTpDV6u9CuiPjKCna4k06KIbqGl91YPnlRmg39wBpXcW6GloZu0XVleH6XlmTefr+QX66PGPTb59MdBT55lQdJ8N9OBp0L342LEJYFHOMkA/QNOZoFcrU71GMsnbb7yQ/lPT84j6tMfOfzlnn4zbD/THY65WpQN62jqjQK/kVxGNmXZdANAZ38LsrulM0O93v3AdOoY5okKcmp5Pj6LRbqg3aVBG8jY5fR89/rFJrfLgOCSh6MPcQJQS6IBlRLVNTAJwoy05a7Aqff3JQY8p9dxPlCw6+sPy83/oMsqiHhXXyM46t2e/phrfwWRUisVbVM1qGObazFqg02F1ue1NZgz9iRh/RJZk7X08mQ362PQ25l9Zdym8EWUdlTx3WqnJaW64NF3XSt8eZ++j00qM+iR5S8tdJtDpobylW6o8TbfKoO+t6QLQ+776qeoxiSl7GedGm/MxU++O7Kod1UfvJIpekqBDHS461w+SQRfgmzu6PLDpnPl3+YyqvQ+PkjnGva+mC0AfM2sf6u9HkE3q970Pt1sG0JWC9+aji5y34heycx9dEnnQyScyBOuMF6y0KIFOD6WncRnzHIuzwzNy+o4Nevy1nR70CGnS9aoq47+90B+nKjPouWLoPtpDb3iFO++jSxSdPlJiLQ26bC5OCXT69sJMFz0EwV4AWc5gL2btqelC0L9pl5tg9WVwp9XzplmxgYc7ALv20SWKXlOzcanBRpYi6TuF2UCnt2nmFk6cL2tmhdV5clSAD7pz/hKg635jpaq7yhZbovzmnNv4UnZV9KYQvFxHBd2PgXYKCLSbbJkJdCBDnzGGjGGAZY5vOGRUQPBJW1bvDXrKz00GzNfidvSgSzJ/35Kb/1N137OP3hSSF0mDTm0WxlSTatIN86tdJOiWGHRxBplFt7OgVz5wUHchg6KPH1XvDXomPS86DS1PjDuN4GLXqrsQdEtvftVU+E9q6vy0hKHz6/XlCnr9bn6vbEzseZdQs4Eutke/Auj6czKfer5yjGG829B9XmX5/GcCZPqnS0pejLcdlEoHbtc+erKoFbxwspOeFltWZTXQWx8LJqkA6FF4V745ErinkNrNVvBi+O4DGlcaeiZIOuNZvjHoufS8IXhqJ9a7L9i//tM1n6eadLT8CEVPZ+EkoNOsDOueCvR0nV3Y9wBAH6LuuuVSFmIJMbwOZX2W6geGqSPdXhukzeJ9NlwOAD3m57n0nDqOOF5bGw+utcWPx+eJJtU2gPnD3rmoOYoCUTgaL3jhS/v+LzsCatIdxQIKMJlTMzu7s7vTJml/DxRVp5Keo+siWK+V4ynotq1yQVi4Hy3+C8pY8qPNtFBjzYme68dncmWtVL05Pec9H6yscvu+N0r1paBXMepkTla4wyYD4ra3xA1NsV9g6e51kk6pIP0pjzOnDcFEsawCQD9avs+cU3rKdpcTL4fvk2G9CF74TOXoC3qSrtXkoMu6iqLnM1WtrfblljxSL91bn3pdQaJNsSD2RfX8T0/1AUdE0A2Kv2+agmwIsVf++rvKplRfv1elnvsFc9p9glCW0/hLRRG/ciY96Dn0vL13Hww6uTTgZHj7/qqFIozTXvpbcU6xVJuOnuxU0KdJVeI2z5WYMJOTaKD3Z6BPalrDsoYX4teHpH+rn2aUfvSAxV/RyO8CXZlRxdFzW92r16I2bnLQ5RydDLpN082E6PfMvKClrsvfsrqYLFG8V8ryKJdHBd1cvq5m3R3n6PvKYRbiXsJ/r262VJeYr6Gu8gz1+/lapFxCUII5umNkYtDrGH0sZw6wnkfMHLsJHkWnVweoSp/uqUpakYQaBF90ehD8zhOPkI5bVVWRbqJpeqpD6rHBpAPo+vqGw5k8deWJ+IAYd6kq966gvqbhfQvFOG08UyDot9hdq0lBl1H6Us/XyF2XCXSWpbvTsFhTDbDWAugDhqV6QKcwdjLz8y59osrqk4KSKqmWaS8uoD9fQekyAnH/+OysE6Y0F1J/d7hS4Eo18j49LeiR+lLtQLVtkWPhztaPLrq7WzuOruBVIt51zxqh49YX0VOZfZG2iTqG0GJd4Qz6tAT9T1S9O+iT+qF//jhcqe4DQY/ctZoS9Dh6rjiwL9yHLILOp+jCBXTTedeaUr/2YYqCXgdF7oDuOGfMTYSPm5HdFd354uNu/lGwX1jV0wbnniJ2rcr67fX1MtbV4vSlnh5Xa092IbIoOlONesfnmPN436SLkbRL90St7v2rzcIvPh5kvtgvXDIUgQkR6zx9Rq/5i0C0w3ubU3TQx3PmM8FawJ5B0ec1C6Ozbbd7lh4LdOs81tigHzbeRQC9ZinqjtO1quVc7FQcxVhBSFnF6EtV+ab21N5xWHat71GYqHn2DAAADU9JREFUn1EUnw101pnQewdwIhpxVnPJ2KAfLqf532/JA/othqbL+mADI2K4y0fTc8oh8y+v93bdw5pYKt0jvDhqjTpB0Rl9bfcq4oln6R4719KWoooM+vG5Hj/obG3X/Joujw0FxMit6ZF8Jm5UV4bfEmp+LumqlfZ3qfc80i/WL0H1rhteLrq/suAcNdUOO9+IZixjaarIBbrFwJYd9JLt9mZ3l1J6fnw17vxfpL5UtfpofbNS7eo6077Yz2xSf/fzmFlPtIbWaWLMYmujnjZhRbCEx8runPeiLqOwZu0Liwz6cU8FP+iMx8bMKms3CCpYrxZtf07Yobur/Qr7i8gT1/Xi5dzabbFtlhjbRd/fJZ9T/WP3sFH0dRRBt9Y7RwW9tBzmcoPOtUNfXh3n4l2e2d5wFtnH0nNqTUqYs5SCj/jUaZ3c6Y530e836J3xLe2C3vQ/E/sO/eQ8NSboVqMoZtBPbfUcb+qRLyN33kJWsCUF4u3PdSouKuiLvBMTdjyri3YXdL73ud/4ombnMaNeno1zigm61eWVGfSS20iFrxpWnqI3L96v7QO5puLiKvq2j1cz2E5IFxFB50zHDbu+0MXIjV1diVsu0G11OtygH2f3vW/rhqnDRZ7PSOGaARfJB3ID/ZEmzB76JEPXxQORc5e+D/r8Da9YC+TK05nk8UAva6uS8YIew0iFSdNlRTnRYzlNlxH1PCHozyFNx6U1MRVdCL7Eezvsv4WiZyyQKwkJqmigz3pufcZwgl6WfYwbm0XTJcmBmuOILa6epwfdvoLvHtFA59ylt21xtIjj62458YiOC/rJ3AdW0HkTca8Hngz4kbpFOZzlI/lG5QJdr+EP/ZqYFP1gac24S2+747KsiUtTG8r6NFaZzskzhhH0soqkZByaLkl+lQzpuLqKquc+dXEcqn7k1xRV0UXHlng8dNBj0/Tz/XlE0OuxSAa6WrHGapcK13RJwq9o+ovruVb05KTrBneReI9uFu9RD9jWZVyZZH8eDfSyPLd64QK9LGMqmRChxSyS9uJE4Py3OD4Tf8/RH48cpO9qYsSsu9Fbpo2KxStT6Ob0KUTV1bwHWjNgBNCnn7o5vzgL6GqITBPX5yC0mIUIetigR1UnE70HPHbBjAWVHQOHyIpOtZUlHBNaKgKamfSyDJLznmvMkY/EUhydOEDXtrjRhSxMa+sUoAeb5V2iBNatquURGXQRnpGbMS+Etf1eFE1Veor6NJ3WvbqAXrq9DqOxlNtGr1qCli1qeGoCK8KwrtUEip5Ez7VfXCbQd5a/cbPum6a3AS9aV+4TaqW0o7JXsl1ZQt/YQK+dXkdZU5unqJ70VjlPcoMHda2mAD2Sz8SOxj3yRHt/e6BHV/SwJ5tZs1N2lRr1H9fS91lQVVqGvm09BV3RVBE93CedAqf2GRZNX9c/fqquli312CSyIRwDNF3S1jfF6K/n0fpSL3DAdsRj/D26fpqo3Yq72cZqAk0+xO2r2slBXc9ScbPzJoA+mtVFSdNYhxT4TLrTwJc/V+qbVB6EIZouSRQWYx+g57dUn8M9H+ld2qz7+o0vnJ2ldJn+zU2CtKpT98iTHl7meqRMAL1Rr6Ov7eNSJj3o3HUlraaqVeYrTw5i/uP2QOHYp3tXrklSWrToK//9ebpPosuUeFcW6SKDouu3rOeoEXR989Dw8MtRqt5TJo/p+S1qLJprcooE+vw69As5HA5TlsuARI/jq9H6lffeJ22cOrOY9VELWbwTfnU6Pc+7eP97mJ5gj/5SEXuelmuNlAcYXxbNqFA/GMyyjE3Rt7/Pk50G+iprZp09/YngvNg2LfJ4Bsy0jmWrqz7prf088vRFkdTU4leBF7uPZWeNmesw/a9R86zog/GcDPuLArow/pNK2c3IpZefw6sVVhFicDvvE5qmWaRdK99L1MuAU/V/eGmcC+jLCxmXAacqqu3yRRH+FseXt7iOXFtmsJk3at5nccsSng1msiJ8Xzzr7xLr+aJu1wB9YAmqc9W8515nKC60m+fE6m3JmBY2HCyAraEmDI9jwFPdBfQNd8W6mmesf53h43qTWtnNO/z9MNPvsx+bTIiv3wBPGk9ftvCb2JJczw1h3X3Ioer3N5U9mBPhGA5y9HSX3uJu3Ko5j3+EnpS8E0URcBkP0EXx+krmf+Z6k+LwLYa/T5bnkOf6+jR14dm7VkfvYzk8Xs4A+puDg1hHkoeEz12q/pi4LX/7lHAH/f8Nz65VWZ+bQ0qvfHueFY5gHWZCBz3P4PVvCYDu9ml5afpJoa5fh5zMo+fZQG/vAB2gJ0s6e2m6fY1d+JzRy7pqMq0buyxb9EeuyesAHZrukDU7HmRReB2tRZp/ftkdurWxGwHQL6PpzbGeS6+vl+kEohiyFcfdATpATxd+Aiz7vTMD8Wl6fjJV2BSRAHSA/v9q+u6hdzNW0k/Pc3Fu0/OliKQ10xMBOkD/dE2v/LLk/VisVQfC1AyMfudq1Zhp3W7V82Vu2lZ09qwz/VU16vsIAOgAPfn97tnhIp+eIKoIsJbSr04mW4GgrU21fXS6fmSrY9nKRlf4203uPc/XADpATxujZ9eqNK13o+nY8+I8bV/qHz239a7tHn+JZ63oM4b7U/Hp1LcPgA7Qk39sQTbsIQ7S+fR8htZG5XB0grjq++9/a9rBWocUPhQdoKe/6TlmKH2WntvHl6gdtHB8bBidpx7XYY8O0LPc9lUW0DN+N+wZd5+6Nf1ooNrFY+kO0LPc9mN6Tc+Ybz+ZGt4GtJwQS+0AOkD/XzQ9Wx/LwiO9W9ztg7wP2KMD9Avv08ekmp7HZ2IL69FaGwQ6yT8de3SAni0q+b/ouX0r3Q73oC/eAXSAfulPr5EJ9bzIeaNb/V9De8U7ZN0B+rWX77X8L/RcT0e3jUEIAp3kZAHQAXrG278Y05Cery910dwuIug0RYfxBEDPGE0STc+t5zd7VVwbrOgAHaBD07Pr+dnhWiDo3Z00JQ2gA/Ssmh479y7z+Uw8NdcGehumtrTjNbjAAvQv1/R8PhO/FL19xDpHJw10G5CKA+jfrOlZ616JojuD7u/caO9+fe4OcJ8B9Oya3sfMwzUX0LKz1fVwL2J9aYY1AwKgM2l6rA4XVfd6Ac5nRR/O5g97abroOtokZuTcAfolRL2Ktj+/xPs7l12/zDuxoeXRIhUH0C8RUbpWZz3Pvz8n7NHXfXrnpOrKe4LoO9G2mN4A0K+i6fJr9Zy2kVY2sJ3Tw4M8DALVMgD9MqCz79OzzUvdA70YCKAbx2c9MlxYhbwz3rB0zlHnDtC/VtPllT56QTOH0Lo+KNgPJ5KvrpAurs+oigPol9J0+Z16fqNWtSy6PrM+3PdjuK8G7w6jG7BDB+gX0/Qv6mPxBH1vGlvgTLZ2KHBvAfSv1HSZv4/lz1vzmpb8hDxgHltI2R0CoEf6POU36rlKxw15xiXPzwkBzgH61TSdxV0qsw/k7hsT3ZCHc+g5QL/mPl1y6Pn1bm4xtG0OPe8g6AD9kh9pcNdqZh/Iw116DklHGzpAv2oEdq3K6+3PDeikNjNuPcfCHaBfd58elHu/Rl/qLunJ83FDB84B+nVj9Nd0ecn9+bZ4b5PKOXziAPrFRb3/irrXt+hS5uNcJzEjAHqGfXrtWfc6XrkKLJ2mQ84B+ocs3z+7LzW3pqMxFaB/iKa7d61esE7m/Ybp7vFR13IO0AH6Z0T1XfvzTdPjn6fPco7dOUD/HE2XH9yXerxP1wZQMdVcyTlAB+gfE25dqxetk0m8U299/WQRAP0TNF3KqvmcruvFJYYb8kerjagAOkD/uI9XfqGem1Dr95ZXzFWqHZAD9A9cvDe0DpfL+UyQVN24NXMI+/zI0DtzaDlA/9QPmDQ//fP03DzHOmPlGiTt2oMGCTiA/h9o+gfq+arqxrx58FN2g/igvkKHc3OA/uEfsZTfqefro0wdrT+9XUnq3j6VXCXZIeUA/Rs0vf9SPd/eoShmZVfn652ey6CgV9wP7asJbLs4QW9u0N0auEcA+ldEY92nX7gv1Vnab88pLEsYspdf139pKBdQ8uuAPgF0BgJsThTX9I0KEPdtJMv8V3cTBuf119vyHwQoTw26XdB/SoDOoelHXatqXirueERu0KcSoPMo3YGmf5eeIz5Y0WuAzqTpEnqOAOjfLumzpkvoOSIX6PUE0BNpej+Lulxpn/+hrvoGnCOS6ExRlScB0PmeqmO1qbrEcQYi4a3X1JM9fgA636ddNOPY6xjHscEsYEQ6RR9PA/cjAoFAOD5blx8IRJYb7+gHAoFAIBAIBAKBQCAQCAQCgUAgEAgEAoFAIBAIBAKBQCAQCAQCgUAgEAgEAoFAIP61B4cEAAAAAIL+v3aFDQAAAAAAAAAAAAAAAAAAAAAAAAAAAAAAAAAAAAAAAAAAAAAAAAAAAAAAAAAAAAAAAAAAAAAAAAAAAAAAAAAAAAAAAAAAAAAAAAAAAAAAAAAAAAAAAAAAAAAAAAAAAAAAAAAAAAAAAAAAAAAAAAAAAAAAAAAAAAAAAAAAAAAAAACAR5+gQrpI6XnGAAAAAElFTkSuQmCC;" vertex="1" parent="1">
          <mxGeometry x="327.65" y="710" width="95.24" height="50" as="geometry" />
        </mxCell>
        <mxCell id="XKejNxqJNqAKCkhe8Pqw-93" value="컨테이너화 및 배포" style="text;html=1;align=center;verticalAlign=middle;resizable=0;points=[];autosize=1;strokeColor=none;fillColor=none;" vertex="1" parent="1">
          <mxGeometry x="432.65" y="700" width="120" height="30" as="geometry" />
        </mxCell>
        <mxCell id="XKejNxqJNqAKCkhe8Pqw-95" value="" style="endArrow=classic;html=1;rounded=0;exitX=1;exitY=0.5;exitDx=0;exitDy=0;" edge="1" parent="1">
          <mxGeometry width="50" height="50" relative="1" as="geometry">
            <mxPoint x="442.65" y="664.63" as="sourcePoint" />
            <mxPoint x="600" y="665" as="targetPoint" />
          </mxGeometry>
        </mxCell>
        <mxCell id="XKejNxqJNqAKCkhe8Pqw-97" value="" style="shape=image;verticalLabelPosition=bottom;labelBackgroundColor=default;verticalAlign=top;aspect=fixed;imageAspect=0;image=https://velog.velcdn.com/images/_zero_/post/ba04e832-70d0-4525-b738-63d545d2822d/image.png;" vertex="1" parent="1">
          <mxGeometry x="600" y="630" width="336.76" height="200" as="geometry" />
        </mxCell>
        <mxCell id="XKejNxqJNqAKCkhe8Pqw-98" value="사전에 협의된 배포 방식으로 배포 진행" style="text;html=1;align=center;verticalAlign=middle;resizable=0;points=[];autosize=1;strokeColor=none;fillColor=none;" vertex="1" parent="1">
          <mxGeometry x="600" y="830" width="220" height="30" as="geometry" />
        </mxCell>
        <mxCell id="XKejNxqJNqAKCkhe8Pqw-100" value="" style="edgeStyle=segmentEdgeStyle;endArrow=classic;html=1;curved=0;rounded=0;endSize=8;startSize=8;exitX=0.891;exitY=0.002;exitDx=0;exitDy=0;exitPerimeter=0;" edge="1" parent="1" source="XKejNxqJNqAKCkhe8Pqw-97">
          <mxGeometry width="50" height="50" relative="1" as="geometry">
            <mxPoint x="850" y="590" as="sourcePoint" />
            <mxPoint x="840" y="330" as="targetPoint" />
            <Array as="points">
              <mxPoint x="900" y="330" />
              <mxPoint x="850" y="330" />
            </Array>
          </mxGeometry>
        </mxCell>
        <mxCell id="XKejNxqJNqAKCkhe8Pqw-103" value="" style="endArrow=none;dashed=1;html=1;dashPattern=1 3;strokeWidth=2;rounded=0;" edge="1" parent="1">
          <mxGeometry width="50" height="50" relative="1" as="geometry">
            <mxPoint x="960" y="130" as="sourcePoint" />
            <mxPoint x="960" y="840" as="targetPoint" />
          </mxGeometry>
        </mxCell>
        <mxCell id="XKejNxqJNqAKCkhe8Pqw-104" value="&lt;h1 style=&quot;margin-top: 0px;&quot;&gt;&lt;span style=&quot;background-color: initial;&quot;&gt;&lt;font style=&quot;font-size: 20px;&quot;&gt;인프라 설명&lt;/font&gt;&lt;/span&gt;&lt;br&gt;&lt;/h1&gt;&lt;div&gt;내부 서버를 EC2 와 같은 가상서버 기반이 아닌, Kubernetes(이하 K8s) 로 사용&lt;/div&gt;&lt;div&gt;&lt;span style=&quot;background-color: initial;&quot;&gt;VM의 로컬 스토리지를 Ceph로 구성하여 DB용 Storage 로 사용함으로서 데이터 유실을 방지하고 가용성을 높임&lt;/span&gt;&lt;/div&gt;&lt;div&gt;&lt;br&gt;&lt;/div&gt;&lt;div&gt;&lt;b&gt;K8s 인프라 구축시 장점&lt;/b&gt;&lt;/div&gt;&lt;div&gt;1. 개발자 편의성&lt;/div&gt;&lt;div&gt;- 대부분의 workflow 을 자동화하기에 서버에대한 깊이있는 이해가 필요 없음&lt;/div&gt;&lt;div&gt;&lt;br&gt;&lt;/div&gt;&lt;div&gt;2. 가용성&lt;/div&gt;&lt;div&gt;- 모든 application 를 다중화 하기에 운영,배포 진행시 장애발생시간을 최소화 할 수 있음&lt;/div&gt;&lt;div&gt;&lt;br&gt;&lt;/div&gt;&lt;div&gt;3. 보안&lt;/div&gt;&lt;div&gt;- 보안에대한 지식이 많지않더라도 기본적인 인증/인가 프로세스를 지원하기에 높은 수준의 보안레벨을 획들 할 수 있음&lt;/div&gt;&lt;div&gt;&lt;br&gt;&lt;/div&gt;&lt;div&gt;4. Kubernetes 및 서버 전문지식 획득&lt;/div&gt;&lt;div&gt;- AWS, GCP, NCP 등의 CSP 사와 같은 체계적이고 이미 만들어져있는 서비스를 제공하지는 않지만 동일한 기능을 구현하여 해당 서비스가 어떤 workflow를 가지는지 습득 가능&lt;/div&gt;&lt;div&gt;ex) EKS, ELK, Security, ALB, NLB 등의 구현&lt;/div&gt;&lt;div&gt;&lt;br&gt;&lt;/div&gt;&lt;div&gt;&lt;br&gt;&lt;/div&gt;&lt;div&gt;외의 내용은 미팅시 더 이야기 나누었으면 좋겠습니다.&lt;/div&gt;&lt;div&gt;&lt;br&gt;&lt;/div&gt;" style="text;html=1;whiteSpace=wrap;overflow=hidden;rounded=0;" vertex="1" parent="1">
          <mxGeometry x="970" y="165" width="360" height="665" as="geometry" />
        </mxCell>
      </root>
    </mxGraphModel>
  </diagram>
</mxfile>
